<mxfile host="app.diagrams.net" agent="Mozilla/5.0 (Windows NT 10.0; Win64; x64) AppleWebKit/537.36 (KHTML, like Gecko) Chrome/129.0.0.0 Safari/537.36 Edg/129.0.0.0" version="24.7.16">
  <diagram name="PÃ¡gina-1" id="gD80FIFxmAY5DxciqJuU">
    <mxGraphModel dx="2884" dy="451" grid="1" gridSize="10" guides="1" tooltips="1" connect="1" arrows="1" fold="1" page="1" pageScale="1" pageWidth="827" pageHeight="1169" math="0" shadow="0">
      <root>
        <mxCell id="0" />
        <mxCell id="1" parent="0" />
        <mxCell id="8AMS8Mi4bmMsw5T7nzCZ-1" value="A0*B0" style="text;html=1;align=center;verticalAlign=middle;resizable=0;points=[];autosize=1;strokeColor=none;fillColor=none;" vertex="1" parent="1">
          <mxGeometry x="690" y="38" width="60" height="30" as="geometry" />
        </mxCell>
        <mxCell id="8AMS8Mi4bmMsw5T7nzCZ-2" value="" style="endArrow=classic;html=1;rounded=0;exitX=0.526;exitY=1.024;exitDx=0;exitDy=0;exitPerimeter=0;entryX=0.5;entryY=0;entryDx=0;entryDy=0;" edge="1" parent="1" source="8AMS8Mi4bmMsw5T7nzCZ-1" target="8AMS8Mi4bmMsw5T7nzCZ-24">
          <mxGeometry width="50" height="50" relative="1" as="geometry">
            <mxPoint x="560" y="280" as="sourcePoint" />
            <mxPoint x="720" y="640" as="targetPoint" />
          </mxGeometry>
        </mxCell>
        <mxCell id="8AMS8Mi4bmMsw5T7nzCZ-36" value="" style="edgeStyle=orthogonalEdgeStyle;rounded=0;orthogonalLoop=1;jettySize=auto;html=1;entryX=0.75;entryY=0;entryDx=0;entryDy=0;" edge="1" parent="1" source="8AMS8Mi4bmMsw5T7nzCZ-4" target="8AMS8Mi4bmMsw5T7nzCZ-6">
          <mxGeometry relative="1" as="geometry" />
        </mxCell>
        <mxCell id="8AMS8Mi4bmMsw5T7nzCZ-4" value="A1*B0" style="text;html=1;align=center;verticalAlign=middle;resizable=0;points=[];autosize=1;strokeColor=none;fillColor=none;" vertex="1" parent="1">
          <mxGeometry x="620" y="38" width="60" height="30" as="geometry" />
        </mxCell>
        <mxCell id="8AMS8Mi4bmMsw5T7nzCZ-37" value="" style="edgeStyle=orthogonalEdgeStyle;rounded=0;orthogonalLoop=1;jettySize=auto;html=1;" edge="1" parent="1" source="8AMS8Mi4bmMsw5T7nzCZ-5" target="8AMS8Mi4bmMsw5T7nzCZ-6">
          <mxGeometry relative="1" as="geometry">
            <Array as="points">
              <mxPoint x="590" y="90" />
              <mxPoint x="590" y="90" />
            </Array>
          </mxGeometry>
        </mxCell>
        <mxCell id="8AMS8Mi4bmMsw5T7nzCZ-5" value="A0*B1" style="text;html=1;align=center;verticalAlign=middle;resizable=0;points=[];autosize=1;strokeColor=none;fillColor=none;" vertex="1" parent="1">
          <mxGeometry x="560" y="38" width="60" height="30" as="geometry" />
        </mxCell>
        <mxCell id="8AMS8Mi4bmMsw5T7nzCZ-6" value="HA" style="rounded=0;whiteSpace=wrap;html=1;" vertex="1" parent="1">
          <mxGeometry x="560" y="120" width="120" height="40" as="geometry" />
        </mxCell>
        <mxCell id="8AMS8Mi4bmMsw5T7nzCZ-8" value="" style="endArrow=classic;html=1;rounded=0;exitX=0.5;exitY=1;exitDx=0;exitDy=0;entryX=0.5;entryY=0;entryDx=0;entryDy=0;" edge="1" parent="1" source="8AMS8Mi4bmMsw5T7nzCZ-6" target="8AMS8Mi4bmMsw5T7nzCZ-25">
          <mxGeometry width="50" height="50" relative="1" as="geometry">
            <mxPoint x="622" y="180" as="sourcePoint" />
            <mxPoint x="625.2" y="639.6100000000001" as="targetPoint" />
          </mxGeometry>
        </mxCell>
        <mxCell id="8AMS8Mi4bmMsw5T7nzCZ-10" value="SUM(0)" style="edgeLabel;html=1;align=center;verticalAlign=middle;resizable=0;points=[];" vertex="1" connectable="0" parent="8AMS8Mi4bmMsw5T7nzCZ-8">
          <mxGeometry x="0.1049" y="-1" relative="1" as="geometry">
            <mxPoint x="1" y="338" as="offset" />
          </mxGeometry>
        </mxCell>
        <mxCell id="8AMS8Mi4bmMsw5T7nzCZ-11" value="" style="endArrow=classic;html=1;rounded=0;exitX=0;exitY=0.5;exitDx=0;exitDy=0;entryX=1;entryY=0.5;entryDx=0;entryDy=0;" edge="1" parent="1" source="8AMS8Mi4bmMsw5T7nzCZ-6" target="8AMS8Mi4bmMsw5T7nzCZ-12">
          <mxGeometry width="50" height="50" relative="1" as="geometry">
            <mxPoint x="470" y="250" as="sourcePoint" />
            <mxPoint x="520" y="200" as="targetPoint" />
          </mxGeometry>
        </mxCell>
        <mxCell id="8AMS8Mi4bmMsw5T7nzCZ-15" value="COUT(0)" style="edgeLabel;html=1;align=center;verticalAlign=middle;resizable=0;points=[];" vertex="1" connectable="0" parent="8AMS8Mi4bmMsw5T7nzCZ-11">
          <mxGeometry x="-0.2448" y="2" relative="1" as="geometry">
            <mxPoint x="-10" y="-2" as="offset" />
          </mxGeometry>
        </mxCell>
        <mxCell id="8AMS8Mi4bmMsw5T7nzCZ-20" value="" style="edgeStyle=orthogonalEdgeStyle;rounded=0;orthogonalLoop=1;jettySize=auto;html=1;entryX=0.25;entryY=0;entryDx=0;entryDy=0;exitX=0.25;exitY=1;exitDx=0;exitDy=0;" edge="1" parent="1" source="8AMS8Mi4bmMsw5T7nzCZ-12" target="8AMS8Mi4bmMsw5T7nzCZ-16">
          <mxGeometry relative="1" as="geometry" />
        </mxCell>
        <mxCell id="8AMS8Mi4bmMsw5T7nzCZ-22" value="SUM(1)" style="edgeLabel;html=1;align=center;verticalAlign=middle;resizable=0;points=[];" vertex="1" connectable="0" parent="8AMS8Mi4bmMsw5T7nzCZ-20">
          <mxGeometry x="-0.0483" relative="1" as="geometry">
            <mxPoint y="-3" as="offset" />
          </mxGeometry>
        </mxCell>
        <mxCell id="8AMS8Mi4bmMsw5T7nzCZ-12" value="FA" style="rounded=0;whiteSpace=wrap;html=1;" vertex="1" parent="1">
          <mxGeometry x="360" y="120" width="120" height="40" as="geometry" />
        </mxCell>
        <mxCell id="8AMS8Mi4bmMsw5T7nzCZ-39" value="" style="edgeStyle=orthogonalEdgeStyle;rounded=0;orthogonalLoop=1;jettySize=auto;html=1;" edge="1" parent="1" source="8AMS8Mi4bmMsw5T7nzCZ-13" target="8AMS8Mi4bmMsw5T7nzCZ-12">
          <mxGeometry relative="1" as="geometry">
            <Array as="points">
              <mxPoint x="455" y="90" />
              <mxPoint x="455" y="90" />
            </Array>
          </mxGeometry>
        </mxCell>
        <mxCell id="8AMS8Mi4bmMsw5T7nzCZ-13" value="A1*B1" style="text;html=1;align=center;verticalAlign=middle;resizable=0;points=[];autosize=1;strokeColor=none;fillColor=none;" vertex="1" parent="1">
          <mxGeometry x="425" y="38" width="60" height="30" as="geometry" />
        </mxCell>
        <mxCell id="8AMS8Mi4bmMsw5T7nzCZ-40" value="" style="edgeStyle=orthogonalEdgeStyle;rounded=0;orthogonalLoop=1;jettySize=auto;html=1;" edge="1" parent="1" source="8AMS8Mi4bmMsw5T7nzCZ-14" target="8AMS8Mi4bmMsw5T7nzCZ-12">
          <mxGeometry relative="1" as="geometry">
            <Array as="points">
              <mxPoint x="390" y="90" />
              <mxPoint x="390" y="90" />
            </Array>
          </mxGeometry>
        </mxCell>
        <mxCell id="8AMS8Mi4bmMsw5T7nzCZ-14" value="A0*B2" style="text;html=1;align=center;verticalAlign=middle;resizable=0;points=[];autosize=1;strokeColor=none;fillColor=none;" vertex="1" parent="1">
          <mxGeometry x="360" y="38" width="60" height="30" as="geometry" />
        </mxCell>
        <mxCell id="8AMS8Mi4bmMsw5T7nzCZ-27" value="" style="edgeStyle=orthogonalEdgeStyle;rounded=0;orthogonalLoop=1;jettySize=auto;html=1;" edge="1" parent="1" source="8AMS8Mi4bmMsw5T7nzCZ-16" target="8AMS8Mi4bmMsw5T7nzCZ-26">
          <mxGeometry relative="1" as="geometry" />
        </mxCell>
        <mxCell id="8AMS8Mi4bmMsw5T7nzCZ-28" value="SUM(2)" style="edgeLabel;html=1;align=center;verticalAlign=middle;resizable=0;points=[];" vertex="1" connectable="0" parent="8AMS8Mi4bmMsw5T7nzCZ-27">
          <mxGeometry x="-0.2479" relative="1" as="geometry">
            <mxPoint y="409" as="offset" />
          </mxGeometry>
        </mxCell>
        <mxCell id="8AMS8Mi4bmMsw5T7nzCZ-16" value="HA" style="rounded=0;whiteSpace=wrap;html=1;" vertex="1" parent="1">
          <mxGeometry x="360" y="240" width="120" height="40" as="geometry" />
        </mxCell>
        <mxCell id="8AMS8Mi4bmMsw5T7nzCZ-23" value="" style="edgeStyle=orthogonalEdgeStyle;rounded=0;orthogonalLoop=1;jettySize=auto;html=1;entryX=0.75;entryY=0;entryDx=0;entryDy=0;" edge="1" parent="1" source="8AMS8Mi4bmMsw5T7nzCZ-21" target="8AMS8Mi4bmMsw5T7nzCZ-16">
          <mxGeometry relative="1" as="geometry" />
        </mxCell>
        <mxCell id="8AMS8Mi4bmMsw5T7nzCZ-21" value="A2*B0" style="text;html=1;align=center;verticalAlign=middle;resizable=0;points=[];autosize=1;strokeColor=none;fillColor=none;" vertex="1" parent="1">
          <mxGeometry x="420" y="180" width="60" height="30" as="geometry" />
        </mxCell>
        <mxCell id="8AMS8Mi4bmMsw5T7nzCZ-552" style="edgeStyle=orthogonalEdgeStyle;rounded=0;orthogonalLoop=1;jettySize=auto;html=1;exitX=0.5;exitY=1;exitDx=0;exitDy=0;entryX=1;entryY=0.75;entryDx=0;entryDy=0;" edge="1" parent="1" source="8AMS8Mi4bmMsw5T7nzCZ-24" target="8AMS8Mi4bmMsw5T7nzCZ-547">
          <mxGeometry relative="1" as="geometry">
            <mxPoint x="170" y="1555" as="targetPoint" />
            <mxPoint x="750" y="1160" as="sourcePoint" />
            <Array as="points">
              <mxPoint x="720" y="1555" />
            </Array>
          </mxGeometry>
        </mxCell>
        <mxCell id="8AMS8Mi4bmMsw5T7nzCZ-24" value="C0" style="rounded=0;whiteSpace=wrap;html=1;" vertex="1" parent="1">
          <mxGeometry x="700" y="1120" width="40" height="40" as="geometry" />
        </mxCell>
        <mxCell id="8AMS8Mi4bmMsw5T7nzCZ-553" style="edgeStyle=orthogonalEdgeStyle;rounded=0;orthogonalLoop=1;jettySize=auto;html=1;exitX=0.5;exitY=1;exitDx=0;exitDy=0;entryX=1;entryY=0.5;entryDx=0;entryDy=0;" edge="1" parent="1" target="8AMS8Mi4bmMsw5T7nzCZ-547">
          <mxGeometry relative="1" as="geometry">
            <mxPoint x="620" y="1160" as="sourcePoint" />
            <mxPoint x="173" y="1530" as="targetPoint" />
            <Array as="points">
              <mxPoint x="620" y="1540" />
            </Array>
          </mxGeometry>
        </mxCell>
        <mxCell id="8AMS8Mi4bmMsw5T7nzCZ-25" value="C1" style="rounded=0;whiteSpace=wrap;html=1;" vertex="1" parent="1">
          <mxGeometry x="600" y="1120" width="40" height="40" as="geometry" />
        </mxCell>
        <mxCell id="8AMS8Mi4bmMsw5T7nzCZ-554" style="edgeStyle=orthogonalEdgeStyle;rounded=0;orthogonalLoop=1;jettySize=auto;html=1;entryX=1;entryY=0.25;entryDx=0;entryDy=0;exitX=0.5;exitY=1;exitDx=0;exitDy=0;" edge="1" parent="1" target="8AMS8Mi4bmMsw5T7nzCZ-547">
          <mxGeometry relative="1" as="geometry">
            <mxPoint x="440" y="1160" as="sourcePoint" />
            <mxPoint x="175" y="1524.9999999999998" as="targetPoint" />
            <Array as="points">
              <mxPoint x="420" y="1160" />
              <mxPoint x="420" y="1525" />
            </Array>
          </mxGeometry>
        </mxCell>
        <mxCell id="8AMS8Mi4bmMsw5T7nzCZ-26" value="C2" style="rounded=0;whiteSpace=wrap;html=1;" vertex="1" parent="1">
          <mxGeometry x="400" y="1120" width="40" height="40" as="geometry" />
        </mxCell>
        <mxCell id="8AMS8Mi4bmMsw5T7nzCZ-43" value="" style="endArrow=classic;html=1;rounded=0;exitX=0;exitY=0.5;exitDx=0;exitDy=0;entryX=1;entryY=0.5;entryDx=0;entryDy=0;" edge="1" parent="1" target="8AMS8Mi4bmMsw5T7nzCZ-45" source="8AMS8Mi4bmMsw5T7nzCZ-12">
          <mxGeometry width="50" height="50" relative="1" as="geometry">
            <mxPoint x="360" y="129" as="sourcePoint" />
            <mxPoint x="320" y="200" as="targetPoint" />
          </mxGeometry>
        </mxCell>
        <mxCell id="8AMS8Mi4bmMsw5T7nzCZ-44" value="COUT(1)" style="edgeLabel;html=1;align=center;verticalAlign=middle;resizable=0;points=[];" vertex="1" connectable="0" parent="8AMS8Mi4bmMsw5T7nzCZ-43">
          <mxGeometry x="-0.2448" y="2" relative="1" as="geometry">
            <mxPoint x="-10" y="-2" as="offset" />
          </mxGeometry>
        </mxCell>
        <mxCell id="8AMS8Mi4bmMsw5T7nzCZ-57" value="" style="edgeStyle=orthogonalEdgeStyle;rounded=0;orthogonalLoop=1;jettySize=auto;html=1;entryX=0.25;entryY=0;entryDx=0;entryDy=0;exitX=0.25;exitY=1;exitDx=0;exitDy=0;" edge="1" parent="1" source="8AMS8Mi4bmMsw5T7nzCZ-45" target="8AMS8Mi4bmMsw5T7nzCZ-52">
          <mxGeometry relative="1" as="geometry">
            <Array as="points" />
          </mxGeometry>
        </mxCell>
        <mxCell id="8AMS8Mi4bmMsw5T7nzCZ-59" value="SUM(3)" style="edgeLabel;html=1;align=center;verticalAlign=middle;resizable=0;points=[];" vertex="1" connectable="0" parent="8AMS8Mi4bmMsw5T7nzCZ-57">
          <mxGeometry x="-0.1333" y="1" relative="1" as="geometry">
            <mxPoint as="offset" />
          </mxGeometry>
        </mxCell>
        <mxCell id="8AMS8Mi4bmMsw5T7nzCZ-79" value="" style="edgeStyle=orthogonalEdgeStyle;rounded=0;orthogonalLoop=1;jettySize=auto;html=1;" edge="1" parent="1" source="8AMS8Mi4bmMsw5T7nzCZ-45" target="8AMS8Mi4bmMsw5T7nzCZ-74">
          <mxGeometry relative="1" as="geometry" />
        </mxCell>
        <mxCell id="8AMS8Mi4bmMsw5T7nzCZ-80" value="COUT(3)" style="edgeLabel;html=1;align=center;verticalAlign=middle;resizable=0;points=[];" vertex="1" connectable="0" parent="8AMS8Mi4bmMsw5T7nzCZ-79">
          <mxGeometry x="0.25" y="-1" relative="1" as="geometry">
            <mxPoint x="10" y="1" as="offset" />
          </mxGeometry>
        </mxCell>
        <mxCell id="8AMS8Mi4bmMsw5T7nzCZ-45" value="FA" style="rounded=0;whiteSpace=wrap;html=1;" vertex="1" parent="1">
          <mxGeometry x="160" y="120" width="120" height="40" as="geometry" />
        </mxCell>
        <mxCell id="8AMS8Mi4bmMsw5T7nzCZ-46" value="" style="edgeStyle=orthogonalEdgeStyle;rounded=0;orthogonalLoop=1;jettySize=auto;html=1;" edge="1" parent="1" source="8AMS8Mi4bmMsw5T7nzCZ-47" target="8AMS8Mi4bmMsw5T7nzCZ-45">
          <mxGeometry relative="1" as="geometry">
            <Array as="points">
              <mxPoint x="255" y="90" />
              <mxPoint x="255" y="90" />
            </Array>
          </mxGeometry>
        </mxCell>
        <mxCell id="8AMS8Mi4bmMsw5T7nzCZ-47" value="A1*B2" style="text;html=1;align=center;verticalAlign=middle;resizable=0;points=[];autosize=1;strokeColor=none;fillColor=none;" vertex="1" parent="1">
          <mxGeometry x="225" y="38" width="60" height="30" as="geometry" />
        </mxCell>
        <mxCell id="8AMS8Mi4bmMsw5T7nzCZ-48" value="" style="edgeStyle=orthogonalEdgeStyle;rounded=0;orthogonalLoop=1;jettySize=auto;html=1;" edge="1" parent="1" source="8AMS8Mi4bmMsw5T7nzCZ-49" target="8AMS8Mi4bmMsw5T7nzCZ-45">
          <mxGeometry relative="1" as="geometry">
            <Array as="points">
              <mxPoint x="190" y="90" />
              <mxPoint x="190" y="90" />
            </Array>
          </mxGeometry>
        </mxCell>
        <mxCell id="8AMS8Mi4bmMsw5T7nzCZ-49" value="A0*B3" style="text;html=1;align=center;verticalAlign=middle;resizable=0;points=[];autosize=1;strokeColor=none;fillColor=none;" vertex="1" parent="1">
          <mxGeometry x="160" y="38" width="60" height="30" as="geometry" />
        </mxCell>
        <mxCell id="8AMS8Mi4bmMsw5T7nzCZ-50" value="" style="endArrow=classic;html=1;rounded=0;exitX=0;exitY=0.5;exitDx=0;exitDy=0;entryX=1;entryY=0.5;entryDx=0;entryDy=0;" edge="1" parent="1" target="8AMS8Mi4bmMsw5T7nzCZ-52" source="8AMS8Mi4bmMsw5T7nzCZ-16">
          <mxGeometry width="50" height="50" relative="1" as="geometry">
            <mxPoint x="360" y="271" as="sourcePoint" />
            <mxPoint x="320" y="342" as="targetPoint" />
          </mxGeometry>
        </mxCell>
        <mxCell id="8AMS8Mi4bmMsw5T7nzCZ-51" value="COUT(2)" style="edgeLabel;html=1;align=center;verticalAlign=middle;resizable=0;points=[];" vertex="1" connectable="0" parent="8AMS8Mi4bmMsw5T7nzCZ-50">
          <mxGeometry x="-0.2448" y="2" relative="1" as="geometry">
            <mxPoint x="-10" y="-2" as="offset" />
          </mxGeometry>
        </mxCell>
        <mxCell id="8AMS8Mi4bmMsw5T7nzCZ-65" value="" style="edgeStyle=orthogonalEdgeStyle;rounded=0;orthogonalLoop=1;jettySize=auto;html=1;entryX=0.25;entryY=0;entryDx=0;entryDy=0;exitX=0.25;exitY=1;exitDx=0;exitDy=0;" edge="1" parent="1" source="8AMS8Mi4bmMsw5T7nzCZ-52" target="8AMS8Mi4bmMsw5T7nzCZ-61">
          <mxGeometry relative="1" as="geometry" />
        </mxCell>
        <mxCell id="8AMS8Mi4bmMsw5T7nzCZ-67" value="SUM(4)" style="edgeLabel;html=1;align=center;verticalAlign=middle;resizable=0;points=[];" vertex="1" connectable="0" parent="8AMS8Mi4bmMsw5T7nzCZ-65">
          <mxGeometry x="-0.1412" y="-2" relative="1" as="geometry">
            <mxPoint as="offset" />
          </mxGeometry>
        </mxCell>
        <mxCell id="8AMS8Mi4bmMsw5T7nzCZ-88" value="" style="edgeStyle=orthogonalEdgeStyle;rounded=0;orthogonalLoop=1;jettySize=auto;html=1;" edge="1" parent="1" source="8AMS8Mi4bmMsw5T7nzCZ-52" target="8AMS8Mi4bmMsw5T7nzCZ-82">
          <mxGeometry relative="1" as="geometry" />
        </mxCell>
        <mxCell id="8AMS8Mi4bmMsw5T7nzCZ-89" value="COUT(4)" style="edgeLabel;html=1;align=center;verticalAlign=middle;resizable=0;points=[];" vertex="1" connectable="0" parent="8AMS8Mi4bmMsw5T7nzCZ-88">
          <mxGeometry x="-0.0929" y="-1" relative="1" as="geometry">
            <mxPoint x="-4" y="1" as="offset" />
          </mxGeometry>
        </mxCell>
        <mxCell id="8AMS8Mi4bmMsw5T7nzCZ-52" value="FA" style="rounded=0;whiteSpace=wrap;html=1;" vertex="1" parent="1">
          <mxGeometry x="160" y="240" width="120" height="40" as="geometry" />
        </mxCell>
        <mxCell id="8AMS8Mi4bmMsw5T7nzCZ-53" value="" style="edgeStyle=orthogonalEdgeStyle;rounded=0;orthogonalLoop=1;jettySize=auto;html=1;" edge="1" parent="1" source="8AMS8Mi4bmMsw5T7nzCZ-54" target="8AMS8Mi4bmMsw5T7nzCZ-52">
          <mxGeometry relative="1" as="geometry">
            <Array as="points">
              <mxPoint x="255" y="232" />
              <mxPoint x="255" y="232" />
            </Array>
          </mxGeometry>
        </mxCell>
        <mxCell id="8AMS8Mi4bmMsw5T7nzCZ-54" value="A2*B1" style="text;html=1;align=center;verticalAlign=middle;resizable=0;points=[];autosize=1;strokeColor=none;fillColor=none;" vertex="1" parent="1">
          <mxGeometry x="225" y="180" width="60" height="30" as="geometry" />
        </mxCell>
        <mxCell id="8AMS8Mi4bmMsw5T7nzCZ-71" style="edgeStyle=orthogonalEdgeStyle;rounded=0;orthogonalLoop=1;jettySize=auto;html=1;entryX=0.5;entryY=0;entryDx=0;entryDy=0;" edge="1" parent="1" source="8AMS8Mi4bmMsw5T7nzCZ-61" target="8AMS8Mi4bmMsw5T7nzCZ-68">
          <mxGeometry relative="1" as="geometry" />
        </mxCell>
        <mxCell id="8AMS8Mi4bmMsw5T7nzCZ-72" value="SUM(5)" style="edgeLabel;html=1;align=center;verticalAlign=middle;resizable=0;points=[];" vertex="1" connectable="0" parent="8AMS8Mi4bmMsw5T7nzCZ-71">
          <mxGeometry x="-0.1525" y="-2" relative="1" as="geometry">
            <mxPoint x="2" y="306" as="offset" />
          </mxGeometry>
        </mxCell>
        <mxCell id="8AMS8Mi4bmMsw5T7nzCZ-96" value="" style="edgeStyle=orthogonalEdgeStyle;rounded=0;orthogonalLoop=1;jettySize=auto;html=1;" edge="1" parent="1" source="8AMS8Mi4bmMsw5T7nzCZ-61" target="8AMS8Mi4bmMsw5T7nzCZ-91">
          <mxGeometry relative="1" as="geometry" />
        </mxCell>
        <mxCell id="8AMS8Mi4bmMsw5T7nzCZ-97" value="COUT(5)" style="edgeLabel;html=1;align=center;verticalAlign=middle;resizable=0;points=[];" vertex="1" connectable="0" parent="8AMS8Mi4bmMsw5T7nzCZ-96">
          <mxGeometry x="-0.0643" y="-2" relative="1" as="geometry">
            <mxPoint y="2" as="offset" />
          </mxGeometry>
        </mxCell>
        <mxCell id="8AMS8Mi4bmMsw5T7nzCZ-61" value="HA" style="rounded=0;whiteSpace=wrap;html=1;" vertex="1" parent="1">
          <mxGeometry x="160" y="360" width="120" height="40" as="geometry" />
        </mxCell>
        <mxCell id="8AMS8Mi4bmMsw5T7nzCZ-66" value="" style="edgeStyle=orthogonalEdgeStyle;rounded=0;orthogonalLoop=1;jettySize=auto;html=1;entryX=0.75;entryY=0;entryDx=0;entryDy=0;" edge="1" parent="1" source="8AMS8Mi4bmMsw5T7nzCZ-63" target="8AMS8Mi4bmMsw5T7nzCZ-61">
          <mxGeometry relative="1" as="geometry" />
        </mxCell>
        <mxCell id="8AMS8Mi4bmMsw5T7nzCZ-63" value="A3*B0" style="text;html=1;align=center;verticalAlign=middle;resizable=0;points=[];autosize=1;strokeColor=none;fillColor=none;" vertex="1" parent="1">
          <mxGeometry x="220" y="300" width="60" height="30" as="geometry" />
        </mxCell>
        <mxCell id="8AMS8Mi4bmMsw5T7nzCZ-558" style="edgeStyle=orthogonalEdgeStyle;rounded=0;orthogonalLoop=1;jettySize=auto;html=1;entryX=0.75;entryY=0;entryDx=0;entryDy=0;" edge="1" parent="1" source="8AMS8Mi4bmMsw5T7nzCZ-68" target="8AMS8Mi4bmMsw5T7nzCZ-547">
          <mxGeometry relative="1" as="geometry">
            <Array as="points">
              <mxPoint x="220" y="1280" />
              <mxPoint x="150" y="1280" />
            </Array>
          </mxGeometry>
        </mxCell>
        <mxCell id="8AMS8Mi4bmMsw5T7nzCZ-68" value="C3" style="rounded=0;whiteSpace=wrap;html=1;" vertex="1" parent="1">
          <mxGeometry x="200" y="1120" width="40" height="40" as="geometry" />
        </mxCell>
        <mxCell id="8AMS8Mi4bmMsw5T7nzCZ-74" value="FA" style="rounded=0;whiteSpace=wrap;html=1;" vertex="1" parent="1">
          <mxGeometry x="-40" y="120" width="120" height="40" as="geometry" />
        </mxCell>
        <mxCell id="8AMS8Mi4bmMsw5T7nzCZ-75" value="" style="edgeStyle=orthogonalEdgeStyle;rounded=0;orthogonalLoop=1;jettySize=auto;html=1;" edge="1" parent="1" source="8AMS8Mi4bmMsw5T7nzCZ-76" target="8AMS8Mi4bmMsw5T7nzCZ-74">
          <mxGeometry relative="1" as="geometry">
            <Array as="points">
              <mxPoint x="55" y="90" />
              <mxPoint x="55" y="90" />
            </Array>
          </mxGeometry>
        </mxCell>
        <mxCell id="8AMS8Mi4bmMsw5T7nzCZ-76" value="A1*B3" style="text;html=1;align=center;verticalAlign=middle;resizable=0;points=[];autosize=1;strokeColor=none;fillColor=none;" vertex="1" parent="1">
          <mxGeometry x="25" y="38" width="60" height="30" as="geometry" />
        </mxCell>
        <mxCell id="8AMS8Mi4bmMsw5T7nzCZ-77" value="" style="edgeStyle=orthogonalEdgeStyle;rounded=0;orthogonalLoop=1;jettySize=auto;html=1;" edge="1" parent="1" source="8AMS8Mi4bmMsw5T7nzCZ-78" target="8AMS8Mi4bmMsw5T7nzCZ-74">
          <mxGeometry relative="1" as="geometry">
            <Array as="points">
              <mxPoint x="-10" y="90" />
              <mxPoint x="-10" y="90" />
            </Array>
          </mxGeometry>
        </mxCell>
        <mxCell id="8AMS8Mi4bmMsw5T7nzCZ-78" value="A0*B4" style="text;html=1;align=center;verticalAlign=middle;resizable=0;points=[];autosize=1;strokeColor=none;fillColor=none;" vertex="1" parent="1">
          <mxGeometry x="-40" y="38" width="60" height="30" as="geometry" />
        </mxCell>
        <mxCell id="8AMS8Mi4bmMsw5T7nzCZ-82" value="FA" style="rounded=0;whiteSpace=wrap;html=1;" vertex="1" parent="1">
          <mxGeometry x="-40" y="240" width="120" height="40" as="geometry" />
        </mxCell>
        <mxCell id="8AMS8Mi4bmMsw5T7nzCZ-83" value="" style="edgeStyle=orthogonalEdgeStyle;rounded=0;orthogonalLoop=1;jettySize=auto;html=1;" edge="1" parent="1" source="8AMS8Mi4bmMsw5T7nzCZ-84" target="8AMS8Mi4bmMsw5T7nzCZ-82">
          <mxGeometry relative="1" as="geometry">
            <Array as="points">
              <mxPoint x="55" y="232" />
              <mxPoint x="55" y="232" />
            </Array>
          </mxGeometry>
        </mxCell>
        <mxCell id="8AMS8Mi4bmMsw5T7nzCZ-84" value="A2*B2" style="text;html=1;align=center;verticalAlign=middle;resizable=0;points=[];autosize=1;strokeColor=none;fillColor=none;" vertex="1" parent="1">
          <mxGeometry x="25" y="180" width="60" height="30" as="geometry" />
        </mxCell>
        <mxCell id="8AMS8Mi4bmMsw5T7nzCZ-85" value="" style="edgeStyle=orthogonalEdgeStyle;rounded=0;orthogonalLoop=1;jettySize=auto;html=1;exitX=0.25;exitY=1;exitDx=0;exitDy=0;entryX=0.25;entryY=0;entryDx=0;entryDy=0;" edge="1" parent="1" source="8AMS8Mi4bmMsw5T7nzCZ-74" target="8AMS8Mi4bmMsw5T7nzCZ-82">
          <mxGeometry relative="1" as="geometry">
            <Array as="points" />
            <mxPoint x="-10" y="210" as="sourcePoint" />
          </mxGeometry>
        </mxCell>
        <mxCell id="8AMS8Mi4bmMsw5T7nzCZ-87" value="SUM(6)" style="edgeLabel;html=1;align=center;verticalAlign=middle;resizable=0;points=[];" vertex="1" connectable="0" parent="8AMS8Mi4bmMsw5T7nzCZ-85">
          <mxGeometry x="-0.3464" y="1" relative="1" as="geometry">
            <mxPoint x="-1" y="9" as="offset" />
          </mxGeometry>
        </mxCell>
        <mxCell id="8AMS8Mi4bmMsw5T7nzCZ-105" value="" style="edgeStyle=orthogonalEdgeStyle;rounded=0;orthogonalLoop=1;jettySize=auto;html=1;entryX=0.25;entryY=0;entryDx=0;entryDy=0;exitX=0.25;exitY=1;exitDx=0;exitDy=0;" edge="1" parent="1" source="8AMS8Mi4bmMsw5T7nzCZ-91" target="8AMS8Mi4bmMsw5T7nzCZ-101">
          <mxGeometry relative="1" as="geometry" />
        </mxCell>
        <mxCell id="8AMS8Mi4bmMsw5T7nzCZ-107" value="SUM(8)" style="edgeLabel;html=1;align=center;verticalAlign=middle;resizable=0;points=[];" vertex="1" connectable="0" parent="8AMS8Mi4bmMsw5T7nzCZ-105">
          <mxGeometry x="-0.1024" relative="1" as="geometry">
            <mxPoint as="offset" />
          </mxGeometry>
        </mxCell>
        <mxCell id="8AMS8Mi4bmMsw5T7nzCZ-91" value="FA" style="rounded=0;whiteSpace=wrap;html=1;" vertex="1" parent="1">
          <mxGeometry x="-40" y="360" width="120" height="40" as="geometry" />
        </mxCell>
        <mxCell id="8AMS8Mi4bmMsw5T7nzCZ-92" value="" style="edgeStyle=orthogonalEdgeStyle;rounded=0;orthogonalLoop=1;jettySize=auto;html=1;" edge="1" parent="1" source="8AMS8Mi4bmMsw5T7nzCZ-93" target="8AMS8Mi4bmMsw5T7nzCZ-91">
          <mxGeometry relative="1" as="geometry">
            <Array as="points">
              <mxPoint x="55" y="374" />
              <mxPoint x="55" y="374" />
            </Array>
          </mxGeometry>
        </mxCell>
        <mxCell id="8AMS8Mi4bmMsw5T7nzCZ-93" value="A3*B1" style="text;html=1;align=center;verticalAlign=middle;resizable=0;points=[];autosize=1;strokeColor=none;fillColor=none;" vertex="1" parent="1">
          <mxGeometry x="20" y="300" width="60" height="30" as="geometry" />
        </mxCell>
        <mxCell id="8AMS8Mi4bmMsw5T7nzCZ-94" value="" style="edgeStyle=orthogonalEdgeStyle;rounded=0;orthogonalLoop=1;jettySize=auto;html=1;exitX=0.25;exitY=1;exitDx=0;exitDy=0;entryX=0.25;entryY=0;entryDx=0;entryDy=0;" edge="1" parent="1" target="8AMS8Mi4bmMsw5T7nzCZ-91" source="8AMS8Mi4bmMsw5T7nzCZ-82">
          <mxGeometry relative="1" as="geometry">
            <Array as="points" />
            <mxPoint x="-10" y="302" as="sourcePoint" />
          </mxGeometry>
        </mxCell>
        <mxCell id="8AMS8Mi4bmMsw5T7nzCZ-95" value="SUM(7)" style="edgeLabel;html=1;align=center;verticalAlign=middle;resizable=0;points=[];" vertex="1" connectable="0" parent="8AMS8Mi4bmMsw5T7nzCZ-94">
          <mxGeometry x="-0.3464" y="1" relative="1" as="geometry">
            <mxPoint x="-1" y="9" as="offset" />
          </mxGeometry>
        </mxCell>
        <mxCell id="8AMS8Mi4bmMsw5T7nzCZ-109" value="" style="edgeStyle=orthogonalEdgeStyle;rounded=0;orthogonalLoop=1;jettySize=auto;html=1;" edge="1" parent="1" source="8AMS8Mi4bmMsw5T7nzCZ-101" target="8AMS8Mi4bmMsw5T7nzCZ-108">
          <mxGeometry relative="1" as="geometry" />
        </mxCell>
        <mxCell id="8AMS8Mi4bmMsw5T7nzCZ-110" value="SUM(9)" style="edgeLabel;html=1;align=center;verticalAlign=middle;resizable=0;points=[];" vertex="1" connectable="0" parent="8AMS8Mi4bmMsw5T7nzCZ-109">
          <mxGeometry x="0.0138" y="2" relative="1" as="geometry">
            <mxPoint x="-2" y="197" as="offset" />
          </mxGeometry>
        </mxCell>
        <mxCell id="8AMS8Mi4bmMsw5T7nzCZ-101" value="HA" style="rounded=0;whiteSpace=wrap;html=1;" vertex="1" parent="1">
          <mxGeometry x="-40" y="480" width="120" height="40" as="geometry" />
        </mxCell>
        <mxCell id="8AMS8Mi4bmMsw5T7nzCZ-102" value="" style="edgeStyle=orthogonalEdgeStyle;rounded=0;orthogonalLoop=1;jettySize=auto;html=1;entryX=0.75;entryY=0;entryDx=0;entryDy=0;" edge="1" parent="1" source="8AMS8Mi4bmMsw5T7nzCZ-103" target="8AMS8Mi4bmMsw5T7nzCZ-101">
          <mxGeometry relative="1" as="geometry" />
        </mxCell>
        <mxCell id="8AMS8Mi4bmMsw5T7nzCZ-103" value="A4*B0" style="text;html=1;align=center;verticalAlign=middle;resizable=0;points=[];autosize=1;strokeColor=none;fillColor=none;" vertex="1" parent="1">
          <mxGeometry x="20" y="420" width="60" height="30" as="geometry" />
        </mxCell>
        <mxCell id="8AMS8Mi4bmMsw5T7nzCZ-563" style="edgeStyle=orthogonalEdgeStyle;rounded=0;orthogonalLoop=1;jettySize=auto;html=1;exitX=0.5;exitY=1;exitDx=0;exitDy=0;entryX=0.25;entryY=0;entryDx=0;entryDy=0;" edge="1" parent="1" source="8AMS8Mi4bmMsw5T7nzCZ-108" target="8AMS8Mi4bmMsw5T7nzCZ-547">
          <mxGeometry relative="1" as="geometry">
            <Array as="points">
              <mxPoint x="20" y="1280" />
              <mxPoint x="90" y="1280" />
            </Array>
          </mxGeometry>
        </mxCell>
        <mxCell id="8AMS8Mi4bmMsw5T7nzCZ-108" value="C4" style="rounded=0;whiteSpace=wrap;html=1;" vertex="1" parent="1">
          <mxGeometry y="1120" width="40" height="40" as="geometry" />
        </mxCell>
        <mxCell id="8AMS8Mi4bmMsw5T7nzCZ-111" value="" style="edgeStyle=orthogonalEdgeStyle;rounded=0;orthogonalLoop=1;jettySize=auto;html=1;" edge="1" parent="1" target="8AMS8Mi4bmMsw5T7nzCZ-113">
          <mxGeometry relative="1" as="geometry">
            <mxPoint x="-40" y="140" as="sourcePoint" />
          </mxGeometry>
        </mxCell>
        <mxCell id="8AMS8Mi4bmMsw5T7nzCZ-112" value="COUT(6)" style="edgeLabel;html=1;align=center;verticalAlign=middle;resizable=0;points=[];" vertex="1" connectable="0" parent="8AMS8Mi4bmMsw5T7nzCZ-111">
          <mxGeometry x="0.25" y="-1" relative="1" as="geometry">
            <mxPoint x="10" y="1" as="offset" />
          </mxGeometry>
        </mxCell>
        <mxCell id="8AMS8Mi4bmMsw5T7nzCZ-113" value="FA" style="rounded=0;whiteSpace=wrap;html=1;" vertex="1" parent="1">
          <mxGeometry x="-240" y="120" width="120" height="40" as="geometry" />
        </mxCell>
        <mxCell id="8AMS8Mi4bmMsw5T7nzCZ-114" value="" style="edgeStyle=orthogonalEdgeStyle;rounded=0;orthogonalLoop=1;jettySize=auto;html=1;" edge="1" parent="1" source="8AMS8Mi4bmMsw5T7nzCZ-115" target="8AMS8Mi4bmMsw5T7nzCZ-113">
          <mxGeometry relative="1" as="geometry">
            <Array as="points">
              <mxPoint x="-145" y="90" />
              <mxPoint x="-145" y="90" />
            </Array>
          </mxGeometry>
        </mxCell>
        <mxCell id="8AMS8Mi4bmMsw5T7nzCZ-115" value="A1*B4" style="text;html=1;align=center;verticalAlign=middle;resizable=0;points=[];autosize=1;strokeColor=none;fillColor=none;" vertex="1" parent="1">
          <mxGeometry x="-175" y="38" width="60" height="30" as="geometry" />
        </mxCell>
        <mxCell id="8AMS8Mi4bmMsw5T7nzCZ-116" value="" style="edgeStyle=orthogonalEdgeStyle;rounded=0;orthogonalLoop=1;jettySize=auto;html=1;" edge="1" parent="1" source="8AMS8Mi4bmMsw5T7nzCZ-117" target="8AMS8Mi4bmMsw5T7nzCZ-113">
          <mxGeometry relative="1" as="geometry">
            <Array as="points">
              <mxPoint x="-210" y="90" />
              <mxPoint x="-210" y="90" />
            </Array>
          </mxGeometry>
        </mxCell>
        <mxCell id="8AMS8Mi4bmMsw5T7nzCZ-117" value="A0*B5" style="text;html=1;align=center;verticalAlign=middle;resizable=0;points=[];autosize=1;strokeColor=none;fillColor=none;" vertex="1" parent="1">
          <mxGeometry x="-240" y="38" width="60" height="30" as="geometry" />
        </mxCell>
        <mxCell id="8AMS8Mi4bmMsw5T7nzCZ-118" value="" style="edgeStyle=orthogonalEdgeStyle;rounded=0;orthogonalLoop=1;jettySize=auto;html=1;" edge="1" parent="1" target="8AMS8Mi4bmMsw5T7nzCZ-120">
          <mxGeometry relative="1" as="geometry">
            <mxPoint x="-40" y="260" as="sourcePoint" />
          </mxGeometry>
        </mxCell>
        <mxCell id="8AMS8Mi4bmMsw5T7nzCZ-119" value="COUT(7)" style="edgeLabel;html=1;align=center;verticalAlign=middle;resizable=0;points=[];" vertex="1" connectable="0" parent="8AMS8Mi4bmMsw5T7nzCZ-118">
          <mxGeometry x="-0.0929" y="-1" relative="1" as="geometry">
            <mxPoint x="-4" y="1" as="offset" />
          </mxGeometry>
        </mxCell>
        <mxCell id="8AMS8Mi4bmMsw5T7nzCZ-120" value="FA" style="rounded=0;whiteSpace=wrap;html=1;" vertex="1" parent="1">
          <mxGeometry x="-240" y="240" width="120" height="40" as="geometry" />
        </mxCell>
        <mxCell id="8AMS8Mi4bmMsw5T7nzCZ-121" value="" style="edgeStyle=orthogonalEdgeStyle;rounded=0;orthogonalLoop=1;jettySize=auto;html=1;" edge="1" parent="1" source="8AMS8Mi4bmMsw5T7nzCZ-122" target="8AMS8Mi4bmMsw5T7nzCZ-120">
          <mxGeometry relative="1" as="geometry">
            <Array as="points">
              <mxPoint x="-145" y="232" />
              <mxPoint x="-145" y="232" />
            </Array>
          </mxGeometry>
        </mxCell>
        <mxCell id="8AMS8Mi4bmMsw5T7nzCZ-122" value="A2*B3" style="text;html=1;align=center;verticalAlign=middle;resizable=0;points=[];autosize=1;strokeColor=none;fillColor=none;" vertex="1" parent="1">
          <mxGeometry x="-175" y="180" width="60" height="30" as="geometry" />
        </mxCell>
        <mxCell id="8AMS8Mi4bmMsw5T7nzCZ-123" value="" style="edgeStyle=orthogonalEdgeStyle;rounded=0;orthogonalLoop=1;jettySize=auto;html=1;exitX=0.25;exitY=1;exitDx=0;exitDy=0;entryX=0.25;entryY=0;entryDx=0;entryDy=0;" edge="1" parent="1" target="8AMS8Mi4bmMsw5T7nzCZ-120">
          <mxGeometry relative="1" as="geometry">
            <Array as="points" />
            <mxPoint x="-210" y="160" as="sourcePoint" />
          </mxGeometry>
        </mxCell>
        <mxCell id="8AMS8Mi4bmMsw5T7nzCZ-124" value="SUM(10)" style="edgeLabel;html=1;align=center;verticalAlign=middle;resizable=0;points=[];" vertex="1" connectable="0" parent="8AMS8Mi4bmMsw5T7nzCZ-123">
          <mxGeometry x="-0.3464" y="1" relative="1" as="geometry">
            <mxPoint x="-1" y="9" as="offset" />
          </mxGeometry>
        </mxCell>
        <mxCell id="8AMS8Mi4bmMsw5T7nzCZ-125" value="" style="edgeStyle=orthogonalEdgeStyle;rounded=0;orthogonalLoop=1;jettySize=auto;html=1;" edge="1" parent="1" target="8AMS8Mi4bmMsw5T7nzCZ-127">
          <mxGeometry relative="1" as="geometry">
            <mxPoint x="-40" y="380" as="sourcePoint" />
          </mxGeometry>
        </mxCell>
        <mxCell id="8AMS8Mi4bmMsw5T7nzCZ-126" value="COUT(8)" style="edgeLabel;html=1;align=center;verticalAlign=middle;resizable=0;points=[];" vertex="1" connectable="0" parent="8AMS8Mi4bmMsw5T7nzCZ-125">
          <mxGeometry x="-0.0929" y="-1" relative="1" as="geometry">
            <mxPoint x="-4" y="1" as="offset" />
          </mxGeometry>
        </mxCell>
        <mxCell id="8AMS8Mi4bmMsw5T7nzCZ-127" value="FA" style="rounded=0;whiteSpace=wrap;html=1;" vertex="1" parent="1">
          <mxGeometry x="-240" y="360" width="120" height="40" as="geometry" />
        </mxCell>
        <mxCell id="8AMS8Mi4bmMsw5T7nzCZ-128" value="" style="edgeStyle=orthogonalEdgeStyle;rounded=0;orthogonalLoop=1;jettySize=auto;html=1;" edge="1" parent="1" source="8AMS8Mi4bmMsw5T7nzCZ-129" target="8AMS8Mi4bmMsw5T7nzCZ-127">
          <mxGeometry relative="1" as="geometry">
            <Array as="points">
              <mxPoint x="-145" y="352" />
              <mxPoint x="-145" y="352" />
            </Array>
          </mxGeometry>
        </mxCell>
        <mxCell id="8AMS8Mi4bmMsw5T7nzCZ-129" value="A3*B2" style="text;html=1;align=center;verticalAlign=middle;resizable=0;points=[];autosize=1;strokeColor=none;fillColor=none;" vertex="1" parent="1">
          <mxGeometry x="-175" y="300" width="60" height="30" as="geometry" />
        </mxCell>
        <mxCell id="8AMS8Mi4bmMsw5T7nzCZ-130" value="" style="edgeStyle=orthogonalEdgeStyle;rounded=0;orthogonalLoop=1;jettySize=auto;html=1;exitX=0.25;exitY=1;exitDx=0;exitDy=0;entryX=0.25;entryY=0;entryDx=0;entryDy=0;" edge="1" parent="1" target="8AMS8Mi4bmMsw5T7nzCZ-127">
          <mxGeometry relative="1" as="geometry">
            <Array as="points" />
            <mxPoint x="-210" y="280" as="sourcePoint" />
          </mxGeometry>
        </mxCell>
        <mxCell id="8AMS8Mi4bmMsw5T7nzCZ-131" value="SUM(11)" style="edgeLabel;html=1;align=center;verticalAlign=middle;resizable=0;points=[];" vertex="1" connectable="0" parent="8AMS8Mi4bmMsw5T7nzCZ-130">
          <mxGeometry x="-0.3464" y="1" relative="1" as="geometry">
            <mxPoint x="-1" y="9" as="offset" />
          </mxGeometry>
        </mxCell>
        <mxCell id="8AMS8Mi4bmMsw5T7nzCZ-132" value="" style="edgeStyle=orthogonalEdgeStyle;rounded=0;orthogonalLoop=1;jettySize=auto;html=1;" edge="1" parent="1" target="8AMS8Mi4bmMsw5T7nzCZ-134">
          <mxGeometry relative="1" as="geometry">
            <mxPoint x="-40" y="500" as="sourcePoint" />
          </mxGeometry>
        </mxCell>
        <mxCell id="8AMS8Mi4bmMsw5T7nzCZ-133" value="COUT(9)" style="edgeLabel;html=1;align=center;verticalAlign=middle;resizable=0;points=[];" vertex="1" connectable="0" parent="8AMS8Mi4bmMsw5T7nzCZ-132">
          <mxGeometry x="-0.0929" y="-1" relative="1" as="geometry">
            <mxPoint x="-4" y="1" as="offset" />
          </mxGeometry>
        </mxCell>
        <mxCell id="8AMS8Mi4bmMsw5T7nzCZ-134" value="FA" style="rounded=0;whiteSpace=wrap;html=1;" vertex="1" parent="1">
          <mxGeometry x="-240" y="480" width="120" height="40" as="geometry" />
        </mxCell>
        <mxCell id="8AMS8Mi4bmMsw5T7nzCZ-135" value="" style="edgeStyle=orthogonalEdgeStyle;rounded=0;orthogonalLoop=1;jettySize=auto;html=1;" edge="1" parent="1" source="8AMS8Mi4bmMsw5T7nzCZ-136" target="8AMS8Mi4bmMsw5T7nzCZ-134">
          <mxGeometry relative="1" as="geometry">
            <Array as="points">
              <mxPoint x="-145" y="472" />
              <mxPoint x="-145" y="472" />
            </Array>
          </mxGeometry>
        </mxCell>
        <mxCell id="8AMS8Mi4bmMsw5T7nzCZ-136" value="A4*B1" style="text;html=1;align=center;verticalAlign=middle;resizable=0;points=[];autosize=1;strokeColor=none;fillColor=none;" vertex="1" parent="1">
          <mxGeometry x="-175" y="420" width="60" height="30" as="geometry" />
        </mxCell>
        <mxCell id="8AMS8Mi4bmMsw5T7nzCZ-137" value="" style="edgeStyle=orthogonalEdgeStyle;rounded=0;orthogonalLoop=1;jettySize=auto;html=1;exitX=0.25;exitY=1;exitDx=0;exitDy=0;entryX=0.25;entryY=0;entryDx=0;entryDy=0;" edge="1" parent="1" target="8AMS8Mi4bmMsw5T7nzCZ-134">
          <mxGeometry relative="1" as="geometry">
            <Array as="points" />
            <mxPoint x="-210" y="400" as="sourcePoint" />
          </mxGeometry>
        </mxCell>
        <mxCell id="8AMS8Mi4bmMsw5T7nzCZ-138" value="SUM(12)" style="edgeLabel;html=1;align=center;verticalAlign=middle;resizable=0;points=[];" vertex="1" connectable="0" parent="8AMS8Mi4bmMsw5T7nzCZ-137">
          <mxGeometry x="-0.3464" y="1" relative="1" as="geometry">
            <mxPoint x="-1" y="9" as="offset" />
          </mxGeometry>
        </mxCell>
        <mxCell id="8AMS8Mi4bmMsw5T7nzCZ-139" value="" style="edgeStyle=orthogonalEdgeStyle;rounded=0;orthogonalLoop=1;jettySize=auto;html=1;entryX=0.25;entryY=0;entryDx=0;entryDy=0;exitX=0.25;exitY=1;exitDx=0;exitDy=0;" edge="1" parent="1" target="8AMS8Mi4bmMsw5T7nzCZ-143">
          <mxGeometry relative="1" as="geometry">
            <mxPoint x="-210" y="520" as="sourcePoint" />
          </mxGeometry>
        </mxCell>
        <mxCell id="8AMS8Mi4bmMsw5T7nzCZ-140" value="SUM(13)" style="edgeLabel;html=1;align=center;verticalAlign=middle;resizable=0;points=[];" vertex="1" connectable="0" parent="8AMS8Mi4bmMsw5T7nzCZ-139">
          <mxGeometry x="-0.1024" relative="1" as="geometry">
            <mxPoint as="offset" />
          </mxGeometry>
        </mxCell>
        <mxCell id="8AMS8Mi4bmMsw5T7nzCZ-141" value="" style="edgeStyle=orthogonalEdgeStyle;rounded=0;orthogonalLoop=1;jettySize=auto;html=1;" edge="1" parent="1" source="8AMS8Mi4bmMsw5T7nzCZ-143" target="8AMS8Mi4bmMsw5T7nzCZ-146">
          <mxGeometry relative="1" as="geometry" />
        </mxCell>
        <mxCell id="8AMS8Mi4bmMsw5T7nzCZ-142" value="SUM(14)" style="edgeLabel;html=1;align=center;verticalAlign=middle;resizable=0;points=[];" vertex="1" connectable="0" parent="8AMS8Mi4bmMsw5T7nzCZ-141">
          <mxGeometry x="0.0138" y="2" relative="1" as="geometry">
            <mxPoint x="-2" y="138" as="offset" />
          </mxGeometry>
        </mxCell>
        <mxCell id="8AMS8Mi4bmMsw5T7nzCZ-143" value="HA" style="rounded=0;whiteSpace=wrap;html=1;" vertex="1" parent="1">
          <mxGeometry x="-240" y="600" width="120" height="40" as="geometry" />
        </mxCell>
        <mxCell id="8AMS8Mi4bmMsw5T7nzCZ-144" value="" style="edgeStyle=orthogonalEdgeStyle;rounded=0;orthogonalLoop=1;jettySize=auto;html=1;entryX=0.75;entryY=0;entryDx=0;entryDy=0;" edge="1" parent="1" source="8AMS8Mi4bmMsw5T7nzCZ-145" target="8AMS8Mi4bmMsw5T7nzCZ-143">
          <mxGeometry relative="1" as="geometry" />
        </mxCell>
        <mxCell id="8AMS8Mi4bmMsw5T7nzCZ-145" value="A5*B0" style="text;html=1;align=center;verticalAlign=middle;resizable=0;points=[];autosize=1;strokeColor=none;fillColor=none;" vertex="1" parent="1">
          <mxGeometry x="-180" y="540" width="60" height="30" as="geometry" />
        </mxCell>
        <mxCell id="8AMS8Mi4bmMsw5T7nzCZ-561" style="edgeStyle=orthogonalEdgeStyle;rounded=0;orthogonalLoop=1;jettySize=auto;html=1;entryX=0;entryY=0.25;entryDx=0;entryDy=0;" edge="1" parent="1" source="8AMS8Mi4bmMsw5T7nzCZ-146" target="8AMS8Mi4bmMsw5T7nzCZ-547">
          <mxGeometry relative="1" as="geometry">
            <mxPoint x="-119.99999999999955" y="1510" as="targetPoint" />
            <Array as="points">
              <mxPoint x="-180" y="1525" />
            </Array>
          </mxGeometry>
        </mxCell>
        <mxCell id="8AMS8Mi4bmMsw5T7nzCZ-146" value="C5" style="rounded=0;whiteSpace=wrap;html=1;" vertex="1" parent="1">
          <mxGeometry x="-200" y="1120" width="40" height="40" as="geometry" />
        </mxCell>
        <mxCell id="8AMS8Mi4bmMsw5T7nzCZ-148" value="" style="edgeStyle=orthogonalEdgeStyle;rounded=0;orthogonalLoop=1;jettySize=auto;html=1;" edge="1" parent="1" target="8AMS8Mi4bmMsw5T7nzCZ-150">
          <mxGeometry relative="1" as="geometry">
            <mxPoint x="-240" y="140" as="sourcePoint" />
          </mxGeometry>
        </mxCell>
        <mxCell id="8AMS8Mi4bmMsw5T7nzCZ-149" value="COUT(10)" style="edgeLabel;html=1;align=center;verticalAlign=middle;resizable=0;points=[];" vertex="1" connectable="0" parent="8AMS8Mi4bmMsw5T7nzCZ-148">
          <mxGeometry x="0.25" y="-1" relative="1" as="geometry">
            <mxPoint x="10" y="1" as="offset" />
          </mxGeometry>
        </mxCell>
        <mxCell id="8AMS8Mi4bmMsw5T7nzCZ-150" value="FA" style="rounded=0;whiteSpace=wrap;html=1;" vertex="1" parent="1">
          <mxGeometry x="-440" y="120" width="120" height="40" as="geometry" />
        </mxCell>
        <mxCell id="8AMS8Mi4bmMsw5T7nzCZ-151" value="" style="edgeStyle=orthogonalEdgeStyle;rounded=0;orthogonalLoop=1;jettySize=auto;html=1;" edge="1" parent="1" source="8AMS8Mi4bmMsw5T7nzCZ-152" target="8AMS8Mi4bmMsw5T7nzCZ-150">
          <mxGeometry relative="1" as="geometry">
            <Array as="points">
              <mxPoint x="-345" y="90" />
              <mxPoint x="-345" y="90" />
            </Array>
          </mxGeometry>
        </mxCell>
        <mxCell id="8AMS8Mi4bmMsw5T7nzCZ-152" value="A1*B5" style="text;html=1;align=center;verticalAlign=middle;resizable=0;points=[];autosize=1;strokeColor=none;fillColor=none;" vertex="1" parent="1">
          <mxGeometry x="-375" y="38" width="60" height="30" as="geometry" />
        </mxCell>
        <mxCell id="8AMS8Mi4bmMsw5T7nzCZ-153" value="" style="edgeStyle=orthogonalEdgeStyle;rounded=0;orthogonalLoop=1;jettySize=auto;html=1;" edge="1" parent="1" source="8AMS8Mi4bmMsw5T7nzCZ-154" target="8AMS8Mi4bmMsw5T7nzCZ-150">
          <mxGeometry relative="1" as="geometry">
            <Array as="points">
              <mxPoint x="-410" y="90" />
              <mxPoint x="-410" y="90" />
            </Array>
          </mxGeometry>
        </mxCell>
        <mxCell id="8AMS8Mi4bmMsw5T7nzCZ-154" value="A0*B6" style="text;html=1;align=center;verticalAlign=middle;resizable=0;points=[];autosize=1;strokeColor=none;fillColor=none;" vertex="1" parent="1">
          <mxGeometry x="-440" y="38" width="60" height="30" as="geometry" />
        </mxCell>
        <mxCell id="8AMS8Mi4bmMsw5T7nzCZ-155" value="" style="edgeStyle=orthogonalEdgeStyle;rounded=0;orthogonalLoop=1;jettySize=auto;html=1;" edge="1" parent="1" target="8AMS8Mi4bmMsw5T7nzCZ-157">
          <mxGeometry relative="1" as="geometry">
            <mxPoint x="-240" y="260" as="sourcePoint" />
          </mxGeometry>
        </mxCell>
        <mxCell id="8AMS8Mi4bmMsw5T7nzCZ-156" value="COUT(11)" style="edgeLabel;html=1;align=center;verticalAlign=middle;resizable=0;points=[];" vertex="1" connectable="0" parent="8AMS8Mi4bmMsw5T7nzCZ-155">
          <mxGeometry x="-0.0929" y="-1" relative="1" as="geometry">
            <mxPoint x="-4" y="1" as="offset" />
          </mxGeometry>
        </mxCell>
        <mxCell id="8AMS8Mi4bmMsw5T7nzCZ-157" value="FA" style="rounded=0;whiteSpace=wrap;html=1;" vertex="1" parent="1">
          <mxGeometry x="-440" y="240" width="120" height="40" as="geometry" />
        </mxCell>
        <mxCell id="8AMS8Mi4bmMsw5T7nzCZ-158" value="" style="edgeStyle=orthogonalEdgeStyle;rounded=0;orthogonalLoop=1;jettySize=auto;html=1;" edge="1" parent="1" source="8AMS8Mi4bmMsw5T7nzCZ-159" target="8AMS8Mi4bmMsw5T7nzCZ-157">
          <mxGeometry relative="1" as="geometry">
            <Array as="points">
              <mxPoint x="-345" y="232" />
              <mxPoint x="-345" y="232" />
            </Array>
          </mxGeometry>
        </mxCell>
        <mxCell id="8AMS8Mi4bmMsw5T7nzCZ-159" value="A2*B4" style="text;html=1;align=center;verticalAlign=middle;resizable=0;points=[];autosize=1;strokeColor=none;fillColor=none;" vertex="1" parent="1">
          <mxGeometry x="-375" y="180" width="60" height="30" as="geometry" />
        </mxCell>
        <mxCell id="8AMS8Mi4bmMsw5T7nzCZ-160" value="" style="edgeStyle=orthogonalEdgeStyle;rounded=0;orthogonalLoop=1;jettySize=auto;html=1;exitX=0.25;exitY=1;exitDx=0;exitDy=0;entryX=0.25;entryY=0;entryDx=0;entryDy=0;" edge="1" parent="1" target="8AMS8Mi4bmMsw5T7nzCZ-157">
          <mxGeometry relative="1" as="geometry">
            <Array as="points" />
            <mxPoint x="-410" y="160" as="sourcePoint" />
          </mxGeometry>
        </mxCell>
        <mxCell id="8AMS8Mi4bmMsw5T7nzCZ-161" value="SUM(15)" style="edgeLabel;html=1;align=center;verticalAlign=middle;resizable=0;points=[];" vertex="1" connectable="0" parent="8AMS8Mi4bmMsw5T7nzCZ-160">
          <mxGeometry x="-0.3464" y="1" relative="1" as="geometry">
            <mxPoint x="-1" y="9" as="offset" />
          </mxGeometry>
        </mxCell>
        <mxCell id="8AMS8Mi4bmMsw5T7nzCZ-162" value="" style="edgeStyle=orthogonalEdgeStyle;rounded=0;orthogonalLoop=1;jettySize=auto;html=1;" edge="1" parent="1" target="8AMS8Mi4bmMsw5T7nzCZ-164">
          <mxGeometry relative="1" as="geometry">
            <mxPoint x="-240" y="380" as="sourcePoint" />
          </mxGeometry>
        </mxCell>
        <mxCell id="8AMS8Mi4bmMsw5T7nzCZ-163" value="COUT(12)" style="edgeLabel;html=1;align=center;verticalAlign=middle;resizable=0;points=[];" vertex="1" connectable="0" parent="8AMS8Mi4bmMsw5T7nzCZ-162">
          <mxGeometry x="-0.0929" y="-1" relative="1" as="geometry">
            <mxPoint x="-4" y="1" as="offset" />
          </mxGeometry>
        </mxCell>
        <mxCell id="8AMS8Mi4bmMsw5T7nzCZ-272" value="" style="edgeStyle=orthogonalEdgeStyle;rounded=0;orthogonalLoop=1;jettySize=auto;html=1;" edge="1" parent="1" source="8AMS8Mi4bmMsw5T7nzCZ-164" target="8AMS8Mi4bmMsw5T7nzCZ-238">
          <mxGeometry relative="1" as="geometry" />
        </mxCell>
        <mxCell id="8AMS8Mi4bmMsw5T7nzCZ-164" value="FA" style="rounded=0;whiteSpace=wrap;html=1;" vertex="1" parent="1">
          <mxGeometry x="-440" y="360" width="120" height="40" as="geometry" />
        </mxCell>
        <mxCell id="8AMS8Mi4bmMsw5T7nzCZ-165" value="" style="edgeStyle=orthogonalEdgeStyle;rounded=0;orthogonalLoop=1;jettySize=auto;html=1;" edge="1" parent="1" source="8AMS8Mi4bmMsw5T7nzCZ-166" target="8AMS8Mi4bmMsw5T7nzCZ-164">
          <mxGeometry relative="1" as="geometry">
            <Array as="points">
              <mxPoint x="-345" y="352" />
              <mxPoint x="-345" y="352" />
            </Array>
          </mxGeometry>
        </mxCell>
        <mxCell id="8AMS8Mi4bmMsw5T7nzCZ-166" value="A3*B3" style="text;html=1;align=center;verticalAlign=middle;resizable=0;points=[];autosize=1;strokeColor=none;fillColor=none;" vertex="1" parent="1">
          <mxGeometry x="-375" y="300" width="60" height="30" as="geometry" />
        </mxCell>
        <mxCell id="8AMS8Mi4bmMsw5T7nzCZ-167" value="" style="edgeStyle=orthogonalEdgeStyle;rounded=0;orthogonalLoop=1;jettySize=auto;html=1;exitX=0.25;exitY=1;exitDx=0;exitDy=0;entryX=0.25;entryY=0;entryDx=0;entryDy=0;" edge="1" parent="1" target="8AMS8Mi4bmMsw5T7nzCZ-164">
          <mxGeometry relative="1" as="geometry">
            <Array as="points" />
            <mxPoint x="-410" y="280" as="sourcePoint" />
          </mxGeometry>
        </mxCell>
        <mxCell id="8AMS8Mi4bmMsw5T7nzCZ-168" value="SUM(16)" style="edgeLabel;html=1;align=center;verticalAlign=middle;resizable=0;points=[];" vertex="1" connectable="0" parent="8AMS8Mi4bmMsw5T7nzCZ-167">
          <mxGeometry x="-0.3464" y="1" relative="1" as="geometry">
            <mxPoint x="-1" y="9" as="offset" />
          </mxGeometry>
        </mxCell>
        <mxCell id="8AMS8Mi4bmMsw5T7nzCZ-169" value="" style="edgeStyle=orthogonalEdgeStyle;rounded=0;orthogonalLoop=1;jettySize=auto;html=1;" edge="1" parent="1" target="8AMS8Mi4bmMsw5T7nzCZ-171">
          <mxGeometry relative="1" as="geometry">
            <mxPoint x="-240" y="500" as="sourcePoint" />
          </mxGeometry>
        </mxCell>
        <mxCell id="8AMS8Mi4bmMsw5T7nzCZ-170" value="COUT(13)" style="edgeLabel;html=1;align=center;verticalAlign=middle;resizable=0;points=[];" vertex="1" connectable="0" parent="8AMS8Mi4bmMsw5T7nzCZ-169">
          <mxGeometry x="-0.0929" y="-1" relative="1" as="geometry">
            <mxPoint x="-4" y="1" as="offset" />
          </mxGeometry>
        </mxCell>
        <mxCell id="8AMS8Mi4bmMsw5T7nzCZ-171" value="FA" style="rounded=0;whiteSpace=wrap;html=1;" vertex="1" parent="1">
          <mxGeometry x="-440" y="480" width="120" height="40" as="geometry" />
        </mxCell>
        <mxCell id="8AMS8Mi4bmMsw5T7nzCZ-172" value="" style="edgeStyle=orthogonalEdgeStyle;rounded=0;orthogonalLoop=1;jettySize=auto;html=1;" edge="1" parent="1" source="8AMS8Mi4bmMsw5T7nzCZ-173" target="8AMS8Mi4bmMsw5T7nzCZ-171">
          <mxGeometry relative="1" as="geometry">
            <Array as="points">
              <mxPoint x="-345" y="472" />
              <mxPoint x="-345" y="472" />
            </Array>
          </mxGeometry>
        </mxCell>
        <mxCell id="8AMS8Mi4bmMsw5T7nzCZ-173" value="A4*B2" style="text;html=1;align=center;verticalAlign=middle;resizable=0;points=[];autosize=1;strokeColor=none;fillColor=none;" vertex="1" parent="1">
          <mxGeometry x="-375" y="420" width="60" height="30" as="geometry" />
        </mxCell>
        <mxCell id="8AMS8Mi4bmMsw5T7nzCZ-174" value="" style="edgeStyle=orthogonalEdgeStyle;rounded=0;orthogonalLoop=1;jettySize=auto;html=1;exitX=0.25;exitY=1;exitDx=0;exitDy=0;entryX=0.25;entryY=0;entryDx=0;entryDy=0;" edge="1" parent="1" target="8AMS8Mi4bmMsw5T7nzCZ-171">
          <mxGeometry relative="1" as="geometry">
            <Array as="points" />
            <mxPoint x="-410" y="400" as="sourcePoint" />
          </mxGeometry>
        </mxCell>
        <mxCell id="8AMS8Mi4bmMsw5T7nzCZ-175" value="SUM(17)" style="edgeLabel;html=1;align=center;verticalAlign=middle;resizable=0;points=[];" vertex="1" connectable="0" parent="8AMS8Mi4bmMsw5T7nzCZ-174">
          <mxGeometry x="-0.3464" y="1" relative="1" as="geometry">
            <mxPoint x="-1" y="9" as="offset" />
          </mxGeometry>
        </mxCell>
        <mxCell id="8AMS8Mi4bmMsw5T7nzCZ-177" value="" style="edgeStyle=orthogonalEdgeStyle;rounded=0;orthogonalLoop=1;jettySize=auto;html=1;" edge="1" parent="1" target="8AMS8Mi4bmMsw5T7nzCZ-179">
          <mxGeometry relative="1" as="geometry">
            <mxPoint x="-240" y="620" as="sourcePoint" />
          </mxGeometry>
        </mxCell>
        <mxCell id="8AMS8Mi4bmMsw5T7nzCZ-178" value="COUT(14)" style="edgeLabel;html=1;align=center;verticalAlign=middle;resizable=0;points=[];" vertex="1" connectable="0" parent="8AMS8Mi4bmMsw5T7nzCZ-177">
          <mxGeometry x="-0.0929" y="-1" relative="1" as="geometry">
            <mxPoint x="-4" y="1" as="offset" />
          </mxGeometry>
        </mxCell>
        <mxCell id="8AMS8Mi4bmMsw5T7nzCZ-179" value="FA" style="rounded=0;whiteSpace=wrap;html=1;" vertex="1" parent="1">
          <mxGeometry x="-440" y="600" width="120" height="40" as="geometry" />
        </mxCell>
        <mxCell id="8AMS8Mi4bmMsw5T7nzCZ-180" value="" style="edgeStyle=orthogonalEdgeStyle;rounded=0;orthogonalLoop=1;jettySize=auto;html=1;" edge="1" parent="1" source="8AMS8Mi4bmMsw5T7nzCZ-181" target="8AMS8Mi4bmMsw5T7nzCZ-179">
          <mxGeometry relative="1" as="geometry">
            <Array as="points">
              <mxPoint x="-345" y="592" />
              <mxPoint x="-345" y="592" />
            </Array>
          </mxGeometry>
        </mxCell>
        <mxCell id="8AMS8Mi4bmMsw5T7nzCZ-181" value="A5*B1" style="text;html=1;align=center;verticalAlign=middle;resizable=0;points=[];autosize=1;strokeColor=none;fillColor=none;" vertex="1" parent="1">
          <mxGeometry x="-375" y="540" width="60" height="30" as="geometry" />
        </mxCell>
        <mxCell id="8AMS8Mi4bmMsw5T7nzCZ-182" value="" style="edgeStyle=orthogonalEdgeStyle;rounded=0;orthogonalLoop=1;jettySize=auto;html=1;exitX=0.25;exitY=1;exitDx=0;exitDy=0;entryX=0.25;entryY=0;entryDx=0;entryDy=0;" edge="1" parent="1" target="8AMS8Mi4bmMsw5T7nzCZ-179">
          <mxGeometry relative="1" as="geometry">
            <Array as="points" />
            <mxPoint x="-410" y="520" as="sourcePoint" />
          </mxGeometry>
        </mxCell>
        <mxCell id="8AMS8Mi4bmMsw5T7nzCZ-183" value="SUM(18)" style="edgeLabel;html=1;align=center;verticalAlign=middle;resizable=0;points=[];" vertex="1" connectable="0" parent="8AMS8Mi4bmMsw5T7nzCZ-182">
          <mxGeometry x="-0.3464" y="1" relative="1" as="geometry">
            <mxPoint x="-1" y="9" as="offset" />
          </mxGeometry>
        </mxCell>
        <mxCell id="8AMS8Mi4bmMsw5T7nzCZ-184" value="" style="edgeStyle=orthogonalEdgeStyle;rounded=0;orthogonalLoop=1;jettySize=auto;html=1;entryX=0.25;entryY=0;entryDx=0;entryDy=0;exitX=0.25;exitY=1;exitDx=0;exitDy=0;" edge="1" parent="1" target="8AMS8Mi4bmMsw5T7nzCZ-188">
          <mxGeometry relative="1" as="geometry">
            <mxPoint x="-410" y="640" as="sourcePoint" />
          </mxGeometry>
        </mxCell>
        <mxCell id="8AMS8Mi4bmMsw5T7nzCZ-185" value="SUM(19)" style="edgeLabel;html=1;align=center;verticalAlign=middle;resizable=0;points=[];" vertex="1" connectable="0" parent="8AMS8Mi4bmMsw5T7nzCZ-184">
          <mxGeometry x="-0.1024" relative="1" as="geometry">
            <mxPoint as="offset" />
          </mxGeometry>
        </mxCell>
        <mxCell id="8AMS8Mi4bmMsw5T7nzCZ-186" value="" style="edgeStyle=orthogonalEdgeStyle;rounded=0;orthogonalLoop=1;jettySize=auto;html=1;" edge="1" parent="1" source="8AMS8Mi4bmMsw5T7nzCZ-188" target="8AMS8Mi4bmMsw5T7nzCZ-191">
          <mxGeometry relative="1" as="geometry" />
        </mxCell>
        <mxCell id="8AMS8Mi4bmMsw5T7nzCZ-187" value="SUM(20)" style="edgeLabel;html=1;align=center;verticalAlign=middle;resizable=0;points=[];" vertex="1" connectable="0" parent="8AMS8Mi4bmMsw5T7nzCZ-186">
          <mxGeometry x="0.0138" y="2" relative="1" as="geometry">
            <mxPoint x="-2" y="79" as="offset" />
          </mxGeometry>
        </mxCell>
        <mxCell id="8AMS8Mi4bmMsw5T7nzCZ-273" value="" style="edgeStyle=orthogonalEdgeStyle;rounded=0;orthogonalLoop=1;jettySize=auto;html=1;" edge="1" parent="1" source="8AMS8Mi4bmMsw5T7nzCZ-188" target="8AMS8Mi4bmMsw5T7nzCZ-259">
          <mxGeometry relative="1" as="geometry" />
        </mxCell>
        <mxCell id="8AMS8Mi4bmMsw5T7nzCZ-188" value="HA" style="rounded=0;whiteSpace=wrap;html=1;" vertex="1" parent="1">
          <mxGeometry x="-440" y="720" width="120" height="40" as="geometry" />
        </mxCell>
        <mxCell id="8AMS8Mi4bmMsw5T7nzCZ-189" value="" style="edgeStyle=orthogonalEdgeStyle;rounded=0;orthogonalLoop=1;jettySize=auto;html=1;entryX=0.75;entryY=0;entryDx=0;entryDy=0;" edge="1" parent="1" source="8AMS8Mi4bmMsw5T7nzCZ-190" target="8AMS8Mi4bmMsw5T7nzCZ-188">
          <mxGeometry relative="1" as="geometry" />
        </mxCell>
        <mxCell id="8AMS8Mi4bmMsw5T7nzCZ-190" value="A6*B0" style="text;html=1;align=center;verticalAlign=middle;resizable=0;points=[];autosize=1;strokeColor=none;fillColor=none;" vertex="1" parent="1">
          <mxGeometry x="-380" y="660" width="60" height="30" as="geometry" />
        </mxCell>
        <mxCell id="8AMS8Mi4bmMsw5T7nzCZ-564" style="edgeStyle=orthogonalEdgeStyle;rounded=0;orthogonalLoop=1;jettySize=auto;html=1;entryX=0;entryY=0.5;entryDx=0;entryDy=0;" edge="1" parent="1" source="8AMS8Mi4bmMsw5T7nzCZ-191" target="8AMS8Mi4bmMsw5T7nzCZ-547">
          <mxGeometry relative="1" as="geometry">
            <Array as="points">
              <mxPoint x="-380" y="1540" />
            </Array>
          </mxGeometry>
        </mxCell>
        <mxCell id="8AMS8Mi4bmMsw5T7nzCZ-191" value="C6" style="rounded=0;whiteSpace=wrap;html=1;" vertex="1" parent="1">
          <mxGeometry x="-400" y="1120" width="40" height="40" as="geometry" />
        </mxCell>
        <mxCell id="8AMS8Mi4bmMsw5T7nzCZ-222" value="" style="edgeStyle=orthogonalEdgeStyle;rounded=0;orthogonalLoop=1;jettySize=auto;html=1;" edge="1" parent="1" target="8AMS8Mi4bmMsw5T7nzCZ-224">
          <mxGeometry relative="1" as="geometry">
            <mxPoint x="-440" y="140" as="sourcePoint" />
          </mxGeometry>
        </mxCell>
        <mxCell id="8AMS8Mi4bmMsw5T7nzCZ-223" value="COUT(15)" style="edgeLabel;html=1;align=center;verticalAlign=middle;resizable=0;points=[];" vertex="1" connectable="0" parent="8AMS8Mi4bmMsw5T7nzCZ-222">
          <mxGeometry x="0.25" y="-1" relative="1" as="geometry">
            <mxPoint x="10" y="1" as="offset" />
          </mxGeometry>
        </mxCell>
        <mxCell id="8AMS8Mi4bmMsw5T7nzCZ-287" style="edgeStyle=orthogonalEdgeStyle;rounded=0;orthogonalLoop=1;jettySize=auto;html=1;entryX=0.75;entryY=0;entryDx=0;entryDy=0;" edge="1" parent="1" source="8AMS8Mi4bmMsw5T7nzCZ-224" target="8AMS8Mi4bmMsw5T7nzCZ-281">
          <mxGeometry relative="1" as="geometry">
            <mxPoint x="-750" y="140" as="targetPoint" />
          </mxGeometry>
        </mxCell>
        <mxCell id="8AMS8Mi4bmMsw5T7nzCZ-288" value="COUT(21)" style="edgeLabel;html=1;align=center;verticalAlign=middle;resizable=0;points=[];" vertex="1" connectable="0" parent="8AMS8Mi4bmMsw5T7nzCZ-287">
          <mxGeometry x="-0.3113" y="1" relative="1" as="geometry">
            <mxPoint x="33" y="-1" as="offset" />
          </mxGeometry>
        </mxCell>
        <mxCell id="8AMS8Mi4bmMsw5T7nzCZ-224" value="FA" style="rounded=0;whiteSpace=wrap;html=1;" vertex="1" parent="1">
          <mxGeometry x="-640" y="120" width="120" height="40" as="geometry" />
        </mxCell>
        <mxCell id="8AMS8Mi4bmMsw5T7nzCZ-225" value="" style="edgeStyle=orthogonalEdgeStyle;rounded=0;orthogonalLoop=1;jettySize=auto;html=1;" edge="1" parent="1" source="8AMS8Mi4bmMsw5T7nzCZ-226" target="8AMS8Mi4bmMsw5T7nzCZ-224">
          <mxGeometry relative="1" as="geometry">
            <Array as="points">
              <mxPoint x="-545" y="90" />
              <mxPoint x="-545" y="90" />
            </Array>
          </mxGeometry>
        </mxCell>
        <mxCell id="8AMS8Mi4bmMsw5T7nzCZ-226" value="A1*B6" style="text;html=1;align=center;verticalAlign=middle;resizable=0;points=[];autosize=1;strokeColor=none;fillColor=none;" vertex="1" parent="1">
          <mxGeometry x="-575" y="38" width="60" height="30" as="geometry" />
        </mxCell>
        <mxCell id="8AMS8Mi4bmMsw5T7nzCZ-227" value="" style="edgeStyle=orthogonalEdgeStyle;rounded=0;orthogonalLoop=1;jettySize=auto;html=1;" edge="1" parent="1" source="8AMS8Mi4bmMsw5T7nzCZ-228" target="8AMS8Mi4bmMsw5T7nzCZ-224">
          <mxGeometry relative="1" as="geometry">
            <Array as="points">
              <mxPoint x="-610" y="90" />
              <mxPoint x="-610" y="90" />
            </Array>
          </mxGeometry>
        </mxCell>
        <mxCell id="8AMS8Mi4bmMsw5T7nzCZ-228" value="A0*B7" style="text;html=1;align=center;verticalAlign=middle;resizable=0;points=[];autosize=1;strokeColor=none;fillColor=none;" vertex="1" parent="1">
          <mxGeometry x="-640" y="38" width="60" height="30" as="geometry" />
        </mxCell>
        <mxCell id="8AMS8Mi4bmMsw5T7nzCZ-229" value="" style="edgeStyle=orthogonalEdgeStyle;rounded=0;orthogonalLoop=1;jettySize=auto;html=1;" edge="1" parent="1" target="8AMS8Mi4bmMsw5T7nzCZ-231">
          <mxGeometry relative="1" as="geometry">
            <mxPoint x="-440" y="260" as="sourcePoint" />
          </mxGeometry>
        </mxCell>
        <mxCell id="8AMS8Mi4bmMsw5T7nzCZ-230" value="COUT(16)" style="edgeLabel;html=1;align=center;verticalAlign=middle;resizable=0;points=[];" vertex="1" connectable="0" parent="8AMS8Mi4bmMsw5T7nzCZ-229">
          <mxGeometry x="-0.0929" y="-1" relative="1" as="geometry">
            <mxPoint x="-4" y="1" as="offset" />
          </mxGeometry>
        </mxCell>
        <mxCell id="8AMS8Mi4bmMsw5T7nzCZ-231" value="FA" style="rounded=0;whiteSpace=wrap;html=1;" vertex="1" parent="1">
          <mxGeometry x="-640" y="240" width="120" height="40" as="geometry" />
        </mxCell>
        <mxCell id="8AMS8Mi4bmMsw5T7nzCZ-232" value="" style="edgeStyle=orthogonalEdgeStyle;rounded=0;orthogonalLoop=1;jettySize=auto;html=1;" edge="1" parent="1" source="8AMS8Mi4bmMsw5T7nzCZ-233" target="8AMS8Mi4bmMsw5T7nzCZ-231">
          <mxGeometry relative="1" as="geometry">
            <Array as="points">
              <mxPoint x="-545" y="232" />
              <mxPoint x="-545" y="232" />
            </Array>
          </mxGeometry>
        </mxCell>
        <mxCell id="8AMS8Mi4bmMsw5T7nzCZ-233" value="A2*B5" style="text;html=1;align=center;verticalAlign=middle;resizable=0;points=[];autosize=1;strokeColor=none;fillColor=none;" vertex="1" parent="1">
          <mxGeometry x="-575" y="180" width="60" height="30" as="geometry" />
        </mxCell>
        <mxCell id="8AMS8Mi4bmMsw5T7nzCZ-234" value="" style="edgeStyle=orthogonalEdgeStyle;rounded=0;orthogonalLoop=1;jettySize=auto;html=1;exitX=0.25;exitY=1;exitDx=0;exitDy=0;entryX=0.25;entryY=0;entryDx=0;entryDy=0;" edge="1" parent="1" target="8AMS8Mi4bmMsw5T7nzCZ-231">
          <mxGeometry relative="1" as="geometry">
            <Array as="points" />
            <mxPoint x="-610" y="160" as="sourcePoint" />
          </mxGeometry>
        </mxCell>
        <mxCell id="8AMS8Mi4bmMsw5T7nzCZ-235" value="SUM(21)" style="edgeLabel;html=1;align=center;verticalAlign=middle;resizable=0;points=[];" vertex="1" connectable="0" parent="8AMS8Mi4bmMsw5T7nzCZ-234">
          <mxGeometry x="-0.3464" y="1" relative="1" as="geometry">
            <mxPoint x="-1" y="9" as="offset" />
          </mxGeometry>
        </mxCell>
        <mxCell id="8AMS8Mi4bmMsw5T7nzCZ-236" value="" style="edgeStyle=orthogonalEdgeStyle;rounded=0;orthogonalLoop=1;jettySize=auto;html=1;" edge="1" parent="1" target="8AMS8Mi4bmMsw5T7nzCZ-238">
          <mxGeometry relative="1" as="geometry">
            <mxPoint x="-440" y="380" as="sourcePoint" />
          </mxGeometry>
        </mxCell>
        <mxCell id="8AMS8Mi4bmMsw5T7nzCZ-237" value="COUT(17)" style="edgeLabel;html=1;align=center;verticalAlign=middle;resizable=0;points=[];" vertex="1" connectable="0" parent="8AMS8Mi4bmMsw5T7nzCZ-236">
          <mxGeometry x="-0.0929" y="-1" relative="1" as="geometry">
            <mxPoint x="-4" y="1" as="offset" />
          </mxGeometry>
        </mxCell>
        <mxCell id="8AMS8Mi4bmMsw5T7nzCZ-238" value="FA" style="rounded=0;whiteSpace=wrap;html=1;" vertex="1" parent="1">
          <mxGeometry x="-640" y="360" width="120" height="40" as="geometry" />
        </mxCell>
        <mxCell id="8AMS8Mi4bmMsw5T7nzCZ-239" value="" style="edgeStyle=orthogonalEdgeStyle;rounded=0;orthogonalLoop=1;jettySize=auto;html=1;" edge="1" parent="1" source="8AMS8Mi4bmMsw5T7nzCZ-240" target="8AMS8Mi4bmMsw5T7nzCZ-238">
          <mxGeometry relative="1" as="geometry">
            <Array as="points">
              <mxPoint x="-545" y="352" />
              <mxPoint x="-545" y="352" />
            </Array>
          </mxGeometry>
        </mxCell>
        <mxCell id="8AMS8Mi4bmMsw5T7nzCZ-240" value="A3*B4" style="text;html=1;align=center;verticalAlign=middle;resizable=0;points=[];autosize=1;strokeColor=none;fillColor=none;" vertex="1" parent="1">
          <mxGeometry x="-575" y="300" width="60" height="30" as="geometry" />
        </mxCell>
        <mxCell id="8AMS8Mi4bmMsw5T7nzCZ-241" value="" style="edgeStyle=orthogonalEdgeStyle;rounded=0;orthogonalLoop=1;jettySize=auto;html=1;exitX=0.25;exitY=1;exitDx=0;exitDy=0;entryX=0.25;entryY=0;entryDx=0;entryDy=0;" edge="1" parent="1" target="8AMS8Mi4bmMsw5T7nzCZ-238">
          <mxGeometry relative="1" as="geometry">
            <Array as="points" />
            <mxPoint x="-610" y="280" as="sourcePoint" />
          </mxGeometry>
        </mxCell>
        <mxCell id="8AMS8Mi4bmMsw5T7nzCZ-242" value="SUM(22)" style="edgeLabel;html=1;align=center;verticalAlign=middle;resizable=0;points=[];" vertex="1" connectable="0" parent="8AMS8Mi4bmMsw5T7nzCZ-241">
          <mxGeometry x="-0.3464" y="1" relative="1" as="geometry">
            <mxPoint x="-1" y="9" as="offset" />
          </mxGeometry>
        </mxCell>
        <mxCell id="8AMS8Mi4bmMsw5T7nzCZ-243" value="" style="edgeStyle=orthogonalEdgeStyle;rounded=0;orthogonalLoop=1;jettySize=auto;html=1;" edge="1" parent="1" target="8AMS8Mi4bmMsw5T7nzCZ-245">
          <mxGeometry relative="1" as="geometry">
            <mxPoint x="-440" y="500" as="sourcePoint" />
          </mxGeometry>
        </mxCell>
        <mxCell id="8AMS8Mi4bmMsw5T7nzCZ-244" value="COUT(18)" style="edgeLabel;html=1;align=center;verticalAlign=middle;resizable=0;points=[];" vertex="1" connectable="0" parent="8AMS8Mi4bmMsw5T7nzCZ-243">
          <mxGeometry x="-0.0929" y="-1" relative="1" as="geometry">
            <mxPoint x="-4" y="1" as="offset" />
          </mxGeometry>
        </mxCell>
        <mxCell id="8AMS8Mi4bmMsw5T7nzCZ-245" value="FA" style="rounded=0;whiteSpace=wrap;html=1;" vertex="1" parent="1">
          <mxGeometry x="-640" y="480" width="120" height="40" as="geometry" />
        </mxCell>
        <mxCell id="8AMS8Mi4bmMsw5T7nzCZ-246" value="" style="edgeStyle=orthogonalEdgeStyle;rounded=0;orthogonalLoop=1;jettySize=auto;html=1;" edge="1" parent="1" source="8AMS8Mi4bmMsw5T7nzCZ-247" target="8AMS8Mi4bmMsw5T7nzCZ-245">
          <mxGeometry relative="1" as="geometry">
            <Array as="points">
              <mxPoint x="-545" y="472" />
              <mxPoint x="-545" y="472" />
            </Array>
          </mxGeometry>
        </mxCell>
        <mxCell id="8AMS8Mi4bmMsw5T7nzCZ-247" value="A4*B3" style="text;html=1;align=center;verticalAlign=middle;resizable=0;points=[];autosize=1;strokeColor=none;fillColor=none;" vertex="1" parent="1">
          <mxGeometry x="-575" y="420" width="60" height="30" as="geometry" />
        </mxCell>
        <mxCell id="8AMS8Mi4bmMsw5T7nzCZ-248" value="" style="edgeStyle=orthogonalEdgeStyle;rounded=0;orthogonalLoop=1;jettySize=auto;html=1;exitX=0.25;exitY=1;exitDx=0;exitDy=0;entryX=0.25;entryY=0;entryDx=0;entryDy=0;" edge="1" parent="1" target="8AMS8Mi4bmMsw5T7nzCZ-245">
          <mxGeometry relative="1" as="geometry">
            <Array as="points" />
            <mxPoint x="-610" y="400" as="sourcePoint" />
          </mxGeometry>
        </mxCell>
        <mxCell id="8AMS8Mi4bmMsw5T7nzCZ-249" value="SUM(23)" style="edgeLabel;html=1;align=center;verticalAlign=middle;resizable=0;points=[];" vertex="1" connectable="0" parent="8AMS8Mi4bmMsw5T7nzCZ-248">
          <mxGeometry x="-0.3464" y="1" relative="1" as="geometry">
            <mxPoint x="-1" y="9" as="offset" />
          </mxGeometry>
        </mxCell>
        <mxCell id="8AMS8Mi4bmMsw5T7nzCZ-250" value="" style="edgeStyle=orthogonalEdgeStyle;rounded=0;orthogonalLoop=1;jettySize=auto;html=1;" edge="1" parent="1" target="8AMS8Mi4bmMsw5T7nzCZ-252">
          <mxGeometry relative="1" as="geometry">
            <mxPoint x="-440" y="620" as="sourcePoint" />
          </mxGeometry>
        </mxCell>
        <mxCell id="8AMS8Mi4bmMsw5T7nzCZ-251" value="COUT(19)" style="edgeLabel;html=1;align=center;verticalAlign=middle;resizable=0;points=[];" vertex="1" connectable="0" parent="8AMS8Mi4bmMsw5T7nzCZ-250">
          <mxGeometry x="-0.0929" y="-1" relative="1" as="geometry">
            <mxPoint x="-4" y="1" as="offset" />
          </mxGeometry>
        </mxCell>
        <mxCell id="8AMS8Mi4bmMsw5T7nzCZ-252" value="FA" style="rounded=0;whiteSpace=wrap;html=1;" vertex="1" parent="1">
          <mxGeometry x="-640" y="600" width="120" height="40" as="geometry" />
        </mxCell>
        <mxCell id="8AMS8Mi4bmMsw5T7nzCZ-253" value="" style="edgeStyle=orthogonalEdgeStyle;rounded=0;orthogonalLoop=1;jettySize=auto;html=1;" edge="1" parent="1" source="8AMS8Mi4bmMsw5T7nzCZ-254" target="8AMS8Mi4bmMsw5T7nzCZ-252">
          <mxGeometry relative="1" as="geometry">
            <Array as="points">
              <mxPoint x="-545" y="592" />
              <mxPoint x="-545" y="592" />
            </Array>
          </mxGeometry>
        </mxCell>
        <mxCell id="8AMS8Mi4bmMsw5T7nzCZ-254" value="A5*B2" style="text;html=1;align=center;verticalAlign=middle;resizable=0;points=[];autosize=1;strokeColor=none;fillColor=none;" vertex="1" parent="1">
          <mxGeometry x="-575" y="540" width="60" height="30" as="geometry" />
        </mxCell>
        <mxCell id="8AMS8Mi4bmMsw5T7nzCZ-255" value="" style="edgeStyle=orthogonalEdgeStyle;rounded=0;orthogonalLoop=1;jettySize=auto;html=1;exitX=0.25;exitY=1;exitDx=0;exitDy=0;entryX=0.25;entryY=0;entryDx=0;entryDy=0;" edge="1" parent="1" target="8AMS8Mi4bmMsw5T7nzCZ-252">
          <mxGeometry relative="1" as="geometry">
            <Array as="points" />
            <mxPoint x="-610" y="520" as="sourcePoint" />
          </mxGeometry>
        </mxCell>
        <mxCell id="8AMS8Mi4bmMsw5T7nzCZ-256" value="SUM(24)" style="edgeLabel;html=1;align=center;verticalAlign=middle;resizable=0;points=[];" vertex="1" connectable="0" parent="8AMS8Mi4bmMsw5T7nzCZ-255">
          <mxGeometry x="-0.3464" y="1" relative="1" as="geometry">
            <mxPoint x="-1" y="9" as="offset" />
          </mxGeometry>
        </mxCell>
        <mxCell id="8AMS8Mi4bmMsw5T7nzCZ-257" value="" style="edgeStyle=orthogonalEdgeStyle;rounded=0;orthogonalLoop=1;jettySize=auto;html=1;" edge="1" parent="1" target="8AMS8Mi4bmMsw5T7nzCZ-259">
          <mxGeometry relative="1" as="geometry">
            <mxPoint x="-440" y="740" as="sourcePoint" />
          </mxGeometry>
        </mxCell>
        <mxCell id="8AMS8Mi4bmMsw5T7nzCZ-258" value="COUT(20)" style="edgeLabel;html=1;align=center;verticalAlign=middle;resizable=0;points=[];" vertex="1" connectable="0" parent="8AMS8Mi4bmMsw5T7nzCZ-257">
          <mxGeometry x="-0.0929" y="-1" relative="1" as="geometry">
            <mxPoint x="-4" y="1" as="offset" />
          </mxGeometry>
        </mxCell>
        <mxCell id="8AMS8Mi4bmMsw5T7nzCZ-259" value="FA" style="rounded=0;whiteSpace=wrap;html=1;" vertex="1" parent="1">
          <mxGeometry x="-640" y="720" width="120" height="40" as="geometry" />
        </mxCell>
        <mxCell id="8AMS8Mi4bmMsw5T7nzCZ-260" value="" style="edgeStyle=orthogonalEdgeStyle;rounded=0;orthogonalLoop=1;jettySize=auto;html=1;" edge="1" parent="1" source="8AMS8Mi4bmMsw5T7nzCZ-261" target="8AMS8Mi4bmMsw5T7nzCZ-259">
          <mxGeometry relative="1" as="geometry">
            <Array as="points">
              <mxPoint x="-545" y="712" />
              <mxPoint x="-545" y="712" />
            </Array>
          </mxGeometry>
        </mxCell>
        <mxCell id="8AMS8Mi4bmMsw5T7nzCZ-261" value="A6*B1" style="text;html=1;align=center;verticalAlign=middle;resizable=0;points=[];autosize=1;strokeColor=none;fillColor=none;" vertex="1" parent="1">
          <mxGeometry x="-575" y="660" width="60" height="30" as="geometry" />
        </mxCell>
        <mxCell id="8AMS8Mi4bmMsw5T7nzCZ-262" value="" style="edgeStyle=orthogonalEdgeStyle;rounded=0;orthogonalLoop=1;jettySize=auto;html=1;exitX=0.25;exitY=1;exitDx=0;exitDy=0;entryX=0.25;entryY=0;entryDx=0;entryDy=0;" edge="1" parent="1" target="8AMS8Mi4bmMsw5T7nzCZ-259">
          <mxGeometry relative="1" as="geometry">
            <Array as="points" />
            <mxPoint x="-610" y="640" as="sourcePoint" />
          </mxGeometry>
        </mxCell>
        <mxCell id="8AMS8Mi4bmMsw5T7nzCZ-263" value="SUM(25)" style="edgeLabel;html=1;align=center;verticalAlign=middle;resizable=0;points=[];" vertex="1" connectable="0" parent="8AMS8Mi4bmMsw5T7nzCZ-262">
          <mxGeometry x="-0.3464" y="1" relative="1" as="geometry">
            <mxPoint x="-1" y="9" as="offset" />
          </mxGeometry>
        </mxCell>
        <mxCell id="8AMS8Mi4bmMsw5T7nzCZ-264" value="" style="edgeStyle=orthogonalEdgeStyle;rounded=0;orthogonalLoop=1;jettySize=auto;html=1;entryX=0.25;entryY=0;entryDx=0;entryDy=0;exitX=0.25;exitY=1;exitDx=0;exitDy=0;" edge="1" parent="1" target="8AMS8Mi4bmMsw5T7nzCZ-268">
          <mxGeometry relative="1" as="geometry">
            <mxPoint x="-610" y="760" as="sourcePoint" />
          </mxGeometry>
        </mxCell>
        <mxCell id="8AMS8Mi4bmMsw5T7nzCZ-265" value="SUM(26)" style="edgeLabel;html=1;align=center;verticalAlign=middle;resizable=0;points=[];" vertex="1" connectable="0" parent="8AMS8Mi4bmMsw5T7nzCZ-264">
          <mxGeometry x="-0.1024" relative="1" as="geometry">
            <mxPoint as="offset" />
          </mxGeometry>
        </mxCell>
        <mxCell id="8AMS8Mi4bmMsw5T7nzCZ-266" value="" style="edgeStyle=orthogonalEdgeStyle;rounded=0;orthogonalLoop=1;jettySize=auto;html=1;" edge="1" parent="1" source="8AMS8Mi4bmMsw5T7nzCZ-268" target="8AMS8Mi4bmMsw5T7nzCZ-271">
          <mxGeometry relative="1" as="geometry" />
        </mxCell>
        <mxCell id="8AMS8Mi4bmMsw5T7nzCZ-267" value="SUM(27)" style="edgeLabel;html=1;align=center;verticalAlign=middle;resizable=0;points=[];" vertex="1" connectable="0" parent="8AMS8Mi4bmMsw5T7nzCZ-266">
          <mxGeometry x="0.0138" y="2" relative="1" as="geometry">
            <mxPoint x="-2" y="19" as="offset" />
          </mxGeometry>
        </mxCell>
        <mxCell id="8AMS8Mi4bmMsw5T7nzCZ-268" value="HA" style="rounded=0;whiteSpace=wrap;html=1;" vertex="1" parent="1">
          <mxGeometry x="-640" y="840" width="120" height="40" as="geometry" />
        </mxCell>
        <mxCell id="8AMS8Mi4bmMsw5T7nzCZ-269" value="" style="edgeStyle=orthogonalEdgeStyle;rounded=0;orthogonalLoop=1;jettySize=auto;html=1;entryX=0.75;entryY=0;entryDx=0;entryDy=0;" edge="1" parent="1" source="8AMS8Mi4bmMsw5T7nzCZ-270" target="8AMS8Mi4bmMsw5T7nzCZ-268">
          <mxGeometry relative="1" as="geometry" />
        </mxCell>
        <mxCell id="8AMS8Mi4bmMsw5T7nzCZ-270" value="A7*B0" style="text;html=1;align=center;verticalAlign=middle;resizable=0;points=[];autosize=1;strokeColor=none;fillColor=none;" vertex="1" parent="1">
          <mxGeometry x="-580" y="780" width="60" height="30" as="geometry" />
        </mxCell>
        <mxCell id="8AMS8Mi4bmMsw5T7nzCZ-565" style="edgeStyle=orthogonalEdgeStyle;rounded=0;orthogonalLoop=1;jettySize=auto;html=1;entryX=0;entryY=0.75;entryDx=0;entryDy=0;" edge="1" parent="1" source="8AMS8Mi4bmMsw5T7nzCZ-271" target="8AMS8Mi4bmMsw5T7nzCZ-547">
          <mxGeometry relative="1" as="geometry">
            <Array as="points">
              <mxPoint x="-580" y="1555" />
            </Array>
          </mxGeometry>
        </mxCell>
        <mxCell id="8AMS8Mi4bmMsw5T7nzCZ-271" value="C7" style="rounded=0;whiteSpace=wrap;html=1;" vertex="1" parent="1">
          <mxGeometry x="-600" y="1120" width="40" height="40" as="geometry" />
        </mxCell>
        <mxCell id="8AMS8Mi4bmMsw5T7nzCZ-279" value="" style="edgeStyle=orthogonalEdgeStyle;rounded=0;orthogonalLoop=1;jettySize=auto;html=1;" edge="1" parent="1" target="8AMS8Mi4bmMsw5T7nzCZ-281">
          <mxGeometry relative="1" as="geometry">
            <mxPoint x="-640" y="260" as="sourcePoint" />
          </mxGeometry>
        </mxCell>
        <mxCell id="8AMS8Mi4bmMsw5T7nzCZ-280" value="COUT(22)" style="edgeLabel;html=1;align=center;verticalAlign=middle;resizable=0;points=[];" vertex="1" connectable="0" parent="8AMS8Mi4bmMsw5T7nzCZ-279">
          <mxGeometry x="-0.0929" y="-1" relative="1" as="geometry">
            <mxPoint x="-4" y="1" as="offset" />
          </mxGeometry>
        </mxCell>
        <mxCell id="8AMS8Mi4bmMsw5T7nzCZ-353" style="edgeStyle=orthogonalEdgeStyle;rounded=0;orthogonalLoop=1;jettySize=auto;html=1;entryX=0.75;entryY=0;entryDx=0;entryDy=0;" edge="1" parent="1" source="8AMS8Mi4bmMsw5T7nzCZ-281" target="8AMS8Mi4bmMsw5T7nzCZ-350">
          <mxGeometry relative="1" as="geometry">
            <mxPoint x="-950" y="260" as="targetPoint" />
          </mxGeometry>
        </mxCell>
        <mxCell id="8AMS8Mi4bmMsw5T7nzCZ-354" value="COUT(28)" style="edgeLabel;html=1;align=center;verticalAlign=middle;resizable=0;points=[];" vertex="1" connectable="0" parent="8AMS8Mi4bmMsw5T7nzCZ-353">
          <mxGeometry x="-0.4815" y="1" relative="1" as="geometry">
            <mxPoint x="14" y="-1" as="offset" />
          </mxGeometry>
        </mxCell>
        <mxCell id="8AMS8Mi4bmMsw5T7nzCZ-281" value="FA" style="rounded=0;whiteSpace=wrap;html=1;" vertex="1" parent="1">
          <mxGeometry x="-840" y="240" width="120" height="40" as="geometry" />
        </mxCell>
        <mxCell id="8AMS8Mi4bmMsw5T7nzCZ-282" value="" style="edgeStyle=orthogonalEdgeStyle;rounded=0;orthogonalLoop=1;jettySize=auto;html=1;entryX=0.25;entryY=0;entryDx=0;entryDy=0;" edge="1" parent="1" source="8AMS8Mi4bmMsw5T7nzCZ-283" target="8AMS8Mi4bmMsw5T7nzCZ-281">
          <mxGeometry relative="1" as="geometry">
            <Array as="points">
              <mxPoint x="-810" y="210" />
              <mxPoint x="-810" y="210" />
            </Array>
          </mxGeometry>
        </mxCell>
        <mxCell id="8AMS8Mi4bmMsw5T7nzCZ-283" value="A1*B7" style="text;html=1;align=center;verticalAlign=middle;resizable=0;points=[];autosize=1;strokeColor=none;fillColor=none;" vertex="1" parent="1">
          <mxGeometry x="-840" y="180" width="60" height="30" as="geometry" />
        </mxCell>
        <mxCell id="8AMS8Mi4bmMsw5T7nzCZ-289" value="" style="edgeStyle=orthogonalEdgeStyle;rounded=0;orthogonalLoop=1;jettySize=auto;html=1;" edge="1" parent="1" target="8AMS8Mi4bmMsw5T7nzCZ-300">
          <mxGeometry relative="1" as="geometry">
            <mxPoint x="-640" y="500" as="sourcePoint" />
          </mxGeometry>
        </mxCell>
        <mxCell id="8AMS8Mi4bmMsw5T7nzCZ-290" value="" style="edgeStyle=orthogonalEdgeStyle;rounded=0;orthogonalLoop=1;jettySize=auto;html=1;" edge="1" parent="1" target="8AMS8Mi4bmMsw5T7nzCZ-321">
          <mxGeometry relative="1" as="geometry">
            <mxPoint x="-640" y="860" as="sourcePoint" />
          </mxGeometry>
        </mxCell>
        <mxCell id="8AMS8Mi4bmMsw5T7nzCZ-291" value="" style="edgeStyle=orthogonalEdgeStyle;rounded=0;orthogonalLoop=1;jettySize=auto;html=1;" edge="1" parent="1" target="8AMS8Mi4bmMsw5T7nzCZ-293">
          <mxGeometry relative="1" as="geometry">
            <mxPoint x="-640" y="380" as="sourcePoint" />
          </mxGeometry>
        </mxCell>
        <mxCell id="8AMS8Mi4bmMsw5T7nzCZ-292" value="COUT(23)" style="edgeLabel;html=1;align=center;verticalAlign=middle;resizable=0;points=[];" vertex="1" connectable="0" parent="8AMS8Mi4bmMsw5T7nzCZ-291">
          <mxGeometry x="-0.0929" y="-1" relative="1" as="geometry">
            <mxPoint x="-4" y="1" as="offset" />
          </mxGeometry>
        </mxCell>
        <mxCell id="8AMS8Mi4bmMsw5T7nzCZ-355" value="" style="edgeStyle=orthogonalEdgeStyle;rounded=0;orthogonalLoop=1;jettySize=auto;html=1;" edge="1" parent="1" source="8AMS8Mi4bmMsw5T7nzCZ-293" target="8AMS8Mi4bmMsw5T7nzCZ-350">
          <mxGeometry relative="1" as="geometry" />
        </mxCell>
        <mxCell id="8AMS8Mi4bmMsw5T7nzCZ-356" value="COUT(29)" style="edgeLabel;html=1;align=center;verticalAlign=middle;resizable=0;points=[];" vertex="1" connectable="0" parent="8AMS8Mi4bmMsw5T7nzCZ-355">
          <mxGeometry x="-0.0393" relative="1" as="geometry">
            <mxPoint as="offset" />
          </mxGeometry>
        </mxCell>
        <mxCell id="8AMS8Mi4bmMsw5T7nzCZ-293" value="FA" style="rounded=0;whiteSpace=wrap;html=1;" vertex="1" parent="1">
          <mxGeometry x="-840" y="360" width="120" height="40" as="geometry" />
        </mxCell>
        <mxCell id="8AMS8Mi4bmMsw5T7nzCZ-294" value="" style="edgeStyle=orthogonalEdgeStyle;rounded=0;orthogonalLoop=1;jettySize=auto;html=1;" edge="1" parent="1" source="8AMS8Mi4bmMsw5T7nzCZ-295" target="8AMS8Mi4bmMsw5T7nzCZ-293">
          <mxGeometry relative="1" as="geometry">
            <Array as="points">
              <mxPoint x="-745" y="352" />
              <mxPoint x="-745" y="352" />
            </Array>
          </mxGeometry>
        </mxCell>
        <mxCell id="8AMS8Mi4bmMsw5T7nzCZ-295" value="A2*B6" style="text;html=1;align=center;verticalAlign=middle;resizable=0;points=[];autosize=1;strokeColor=none;fillColor=none;" vertex="1" parent="1">
          <mxGeometry x="-775" y="300" width="60" height="30" as="geometry" />
        </mxCell>
        <mxCell id="8AMS8Mi4bmMsw5T7nzCZ-296" value="" style="edgeStyle=orthogonalEdgeStyle;rounded=0;orthogonalLoop=1;jettySize=auto;html=1;exitX=0.25;exitY=1;exitDx=0;exitDy=0;entryX=0.25;entryY=0;entryDx=0;entryDy=0;" edge="1" parent="1" target="8AMS8Mi4bmMsw5T7nzCZ-293">
          <mxGeometry relative="1" as="geometry">
            <Array as="points" />
            <mxPoint x="-810" y="280" as="sourcePoint" />
          </mxGeometry>
        </mxCell>
        <mxCell id="8AMS8Mi4bmMsw5T7nzCZ-297" value="SUM(28)" style="edgeLabel;html=1;align=center;verticalAlign=middle;resizable=0;points=[];" vertex="1" connectable="0" parent="8AMS8Mi4bmMsw5T7nzCZ-296">
          <mxGeometry x="-0.3464" y="1" relative="1" as="geometry">
            <mxPoint x="-1" y="9" as="offset" />
          </mxGeometry>
        </mxCell>
        <mxCell id="8AMS8Mi4bmMsw5T7nzCZ-298" value="" style="edgeStyle=orthogonalEdgeStyle;rounded=0;orthogonalLoop=1;jettySize=auto;html=1;" edge="1" parent="1" target="8AMS8Mi4bmMsw5T7nzCZ-300">
          <mxGeometry relative="1" as="geometry">
            <mxPoint x="-640" y="500" as="sourcePoint" />
          </mxGeometry>
        </mxCell>
        <mxCell id="8AMS8Mi4bmMsw5T7nzCZ-299" value="COUT(24)" style="edgeLabel;html=1;align=center;verticalAlign=middle;resizable=0;points=[];" vertex="1" connectable="0" parent="8AMS8Mi4bmMsw5T7nzCZ-298">
          <mxGeometry x="-0.0929" y="-1" relative="1" as="geometry">
            <mxPoint x="-4" y="1" as="offset" />
          </mxGeometry>
        </mxCell>
        <mxCell id="8AMS8Mi4bmMsw5T7nzCZ-300" value="FA" style="rounded=0;whiteSpace=wrap;html=1;" vertex="1" parent="1">
          <mxGeometry x="-840" y="480" width="120" height="40" as="geometry" />
        </mxCell>
        <mxCell id="8AMS8Mi4bmMsw5T7nzCZ-301" value="" style="edgeStyle=orthogonalEdgeStyle;rounded=0;orthogonalLoop=1;jettySize=auto;html=1;" edge="1" parent="1" source="8AMS8Mi4bmMsw5T7nzCZ-302" target="8AMS8Mi4bmMsw5T7nzCZ-300">
          <mxGeometry relative="1" as="geometry">
            <Array as="points">
              <mxPoint x="-745" y="472" />
              <mxPoint x="-745" y="472" />
            </Array>
          </mxGeometry>
        </mxCell>
        <mxCell id="8AMS8Mi4bmMsw5T7nzCZ-302" value="A3*B5" style="text;html=1;align=center;verticalAlign=middle;resizable=0;points=[];autosize=1;strokeColor=none;fillColor=none;" vertex="1" parent="1">
          <mxGeometry x="-775" y="420" width="60" height="30" as="geometry" />
        </mxCell>
        <mxCell id="8AMS8Mi4bmMsw5T7nzCZ-303" value="" style="edgeStyle=orthogonalEdgeStyle;rounded=0;orthogonalLoop=1;jettySize=auto;html=1;exitX=0.25;exitY=1;exitDx=0;exitDy=0;entryX=0.25;entryY=0;entryDx=0;entryDy=0;" edge="1" parent="1" target="8AMS8Mi4bmMsw5T7nzCZ-300">
          <mxGeometry relative="1" as="geometry">
            <Array as="points" />
            <mxPoint x="-810" y="400" as="sourcePoint" />
          </mxGeometry>
        </mxCell>
        <mxCell id="8AMS8Mi4bmMsw5T7nzCZ-304" value="SUM(29)" style="edgeLabel;html=1;align=center;verticalAlign=middle;resizable=0;points=[];" vertex="1" connectable="0" parent="8AMS8Mi4bmMsw5T7nzCZ-303">
          <mxGeometry x="-0.3464" y="1" relative="1" as="geometry">
            <mxPoint x="-1" y="9" as="offset" />
          </mxGeometry>
        </mxCell>
        <mxCell id="8AMS8Mi4bmMsw5T7nzCZ-305" value="" style="edgeStyle=orthogonalEdgeStyle;rounded=0;orthogonalLoop=1;jettySize=auto;html=1;" edge="1" parent="1" target="8AMS8Mi4bmMsw5T7nzCZ-307">
          <mxGeometry relative="1" as="geometry">
            <mxPoint x="-640" y="620" as="sourcePoint" />
          </mxGeometry>
        </mxCell>
        <mxCell id="8AMS8Mi4bmMsw5T7nzCZ-306" value="COUT(25)" style="edgeLabel;html=1;align=center;verticalAlign=middle;resizable=0;points=[];" vertex="1" connectable="0" parent="8AMS8Mi4bmMsw5T7nzCZ-305">
          <mxGeometry x="-0.0929" y="-1" relative="1" as="geometry">
            <mxPoint x="-4" y="1" as="offset" />
          </mxGeometry>
        </mxCell>
        <mxCell id="8AMS8Mi4bmMsw5T7nzCZ-307" value="FA" style="rounded=0;whiteSpace=wrap;html=1;" vertex="1" parent="1">
          <mxGeometry x="-840" y="600" width="120" height="40" as="geometry" />
        </mxCell>
        <mxCell id="8AMS8Mi4bmMsw5T7nzCZ-308" value="" style="edgeStyle=orthogonalEdgeStyle;rounded=0;orthogonalLoop=1;jettySize=auto;html=1;" edge="1" parent="1" source="8AMS8Mi4bmMsw5T7nzCZ-309" target="8AMS8Mi4bmMsw5T7nzCZ-307">
          <mxGeometry relative="1" as="geometry">
            <Array as="points">
              <mxPoint x="-745" y="592" />
              <mxPoint x="-745" y="592" />
            </Array>
          </mxGeometry>
        </mxCell>
        <mxCell id="8AMS8Mi4bmMsw5T7nzCZ-309" value="A4*B4" style="text;html=1;align=center;verticalAlign=middle;resizable=0;points=[];autosize=1;strokeColor=none;fillColor=none;" vertex="1" parent="1">
          <mxGeometry x="-775" y="540" width="60" height="30" as="geometry" />
        </mxCell>
        <mxCell id="8AMS8Mi4bmMsw5T7nzCZ-310" value="" style="edgeStyle=orthogonalEdgeStyle;rounded=0;orthogonalLoop=1;jettySize=auto;html=1;exitX=0.25;exitY=1;exitDx=0;exitDy=0;entryX=0.25;entryY=0;entryDx=0;entryDy=0;" edge="1" parent="1" target="8AMS8Mi4bmMsw5T7nzCZ-307">
          <mxGeometry relative="1" as="geometry">
            <Array as="points" />
            <mxPoint x="-810" y="520" as="sourcePoint" />
          </mxGeometry>
        </mxCell>
        <mxCell id="8AMS8Mi4bmMsw5T7nzCZ-311" value="SUM(30)" style="edgeLabel;html=1;align=center;verticalAlign=middle;resizable=0;points=[];" vertex="1" connectable="0" parent="8AMS8Mi4bmMsw5T7nzCZ-310">
          <mxGeometry x="-0.3464" y="1" relative="1" as="geometry">
            <mxPoint x="-1" y="9" as="offset" />
          </mxGeometry>
        </mxCell>
        <mxCell id="8AMS8Mi4bmMsw5T7nzCZ-312" value="" style="edgeStyle=orthogonalEdgeStyle;rounded=0;orthogonalLoop=1;jettySize=auto;html=1;" edge="1" parent="1" target="8AMS8Mi4bmMsw5T7nzCZ-314">
          <mxGeometry relative="1" as="geometry">
            <mxPoint x="-640" y="740" as="sourcePoint" />
          </mxGeometry>
        </mxCell>
        <mxCell id="8AMS8Mi4bmMsw5T7nzCZ-313" value="COUT(26)" style="edgeLabel;html=1;align=center;verticalAlign=middle;resizable=0;points=[];" vertex="1" connectable="0" parent="8AMS8Mi4bmMsw5T7nzCZ-312">
          <mxGeometry x="-0.0929" y="-1" relative="1" as="geometry">
            <mxPoint x="-4" y="1" as="offset" />
          </mxGeometry>
        </mxCell>
        <mxCell id="8AMS8Mi4bmMsw5T7nzCZ-314" value="FA" style="rounded=0;whiteSpace=wrap;html=1;" vertex="1" parent="1">
          <mxGeometry x="-840" y="720" width="120" height="40" as="geometry" />
        </mxCell>
        <mxCell id="8AMS8Mi4bmMsw5T7nzCZ-315" value="" style="edgeStyle=orthogonalEdgeStyle;rounded=0;orthogonalLoop=1;jettySize=auto;html=1;" edge="1" parent="1" source="8AMS8Mi4bmMsw5T7nzCZ-316" target="8AMS8Mi4bmMsw5T7nzCZ-314">
          <mxGeometry relative="1" as="geometry">
            <Array as="points">
              <mxPoint x="-745" y="712" />
              <mxPoint x="-745" y="712" />
            </Array>
          </mxGeometry>
        </mxCell>
        <mxCell id="8AMS8Mi4bmMsw5T7nzCZ-316" value="A5*B3" style="text;html=1;align=center;verticalAlign=middle;resizable=0;points=[];autosize=1;strokeColor=none;fillColor=none;" vertex="1" parent="1">
          <mxGeometry x="-775" y="660" width="60" height="30" as="geometry" />
        </mxCell>
        <mxCell id="8AMS8Mi4bmMsw5T7nzCZ-317" value="" style="edgeStyle=orthogonalEdgeStyle;rounded=0;orthogonalLoop=1;jettySize=auto;html=1;exitX=0.25;exitY=1;exitDx=0;exitDy=0;entryX=0.25;entryY=0;entryDx=0;entryDy=0;" edge="1" parent="1" target="8AMS8Mi4bmMsw5T7nzCZ-314">
          <mxGeometry relative="1" as="geometry">
            <Array as="points" />
            <mxPoint x="-810" y="640" as="sourcePoint" />
          </mxGeometry>
        </mxCell>
        <mxCell id="8AMS8Mi4bmMsw5T7nzCZ-318" value="SUM(31)" style="edgeLabel;html=1;align=center;verticalAlign=middle;resizable=0;points=[];" vertex="1" connectable="0" parent="8AMS8Mi4bmMsw5T7nzCZ-317">
          <mxGeometry x="-0.3464" y="1" relative="1" as="geometry">
            <mxPoint x="-1" y="9" as="offset" />
          </mxGeometry>
        </mxCell>
        <mxCell id="8AMS8Mi4bmMsw5T7nzCZ-319" value="" style="edgeStyle=orthogonalEdgeStyle;rounded=0;orthogonalLoop=1;jettySize=auto;html=1;" edge="1" parent="1" target="8AMS8Mi4bmMsw5T7nzCZ-321">
          <mxGeometry relative="1" as="geometry">
            <mxPoint x="-640" y="860" as="sourcePoint" />
          </mxGeometry>
        </mxCell>
        <mxCell id="8AMS8Mi4bmMsw5T7nzCZ-320" value="COUT(27)" style="edgeLabel;html=1;align=center;verticalAlign=middle;resizable=0;points=[];" vertex="1" connectable="0" parent="8AMS8Mi4bmMsw5T7nzCZ-319">
          <mxGeometry x="-0.0929" y="-1" relative="1" as="geometry">
            <mxPoint x="-4" y="1" as="offset" />
          </mxGeometry>
        </mxCell>
        <mxCell id="8AMS8Mi4bmMsw5T7nzCZ-321" value="FA" style="rounded=0;whiteSpace=wrap;html=1;" vertex="1" parent="1">
          <mxGeometry x="-840" y="840" width="120" height="40" as="geometry" />
        </mxCell>
        <mxCell id="8AMS8Mi4bmMsw5T7nzCZ-322" value="" style="edgeStyle=orthogonalEdgeStyle;rounded=0;orthogonalLoop=1;jettySize=auto;html=1;" edge="1" parent="1" source="8AMS8Mi4bmMsw5T7nzCZ-323" target="8AMS8Mi4bmMsw5T7nzCZ-321">
          <mxGeometry relative="1" as="geometry">
            <Array as="points">
              <mxPoint x="-745" y="832" />
              <mxPoint x="-745" y="832" />
            </Array>
          </mxGeometry>
        </mxCell>
        <mxCell id="8AMS8Mi4bmMsw5T7nzCZ-323" value="A6*B2" style="text;html=1;align=center;verticalAlign=middle;resizable=0;points=[];autosize=1;strokeColor=none;fillColor=none;" vertex="1" parent="1">
          <mxGeometry x="-775" y="780" width="60" height="30" as="geometry" />
        </mxCell>
        <mxCell id="8AMS8Mi4bmMsw5T7nzCZ-324" value="" style="edgeStyle=orthogonalEdgeStyle;rounded=0;orthogonalLoop=1;jettySize=auto;html=1;exitX=0.25;exitY=1;exitDx=0;exitDy=0;entryX=0.25;entryY=0;entryDx=0;entryDy=0;" edge="1" parent="1" target="8AMS8Mi4bmMsw5T7nzCZ-321">
          <mxGeometry relative="1" as="geometry">
            <Array as="points" />
            <mxPoint x="-810" y="760" as="sourcePoint" />
          </mxGeometry>
        </mxCell>
        <mxCell id="8AMS8Mi4bmMsw5T7nzCZ-325" value="SUM(32)" style="edgeLabel;html=1;align=center;verticalAlign=middle;resizable=0;points=[];" vertex="1" connectable="0" parent="8AMS8Mi4bmMsw5T7nzCZ-324">
          <mxGeometry x="-0.3464" y="1" relative="1" as="geometry">
            <mxPoint x="-1" y="9" as="offset" />
          </mxGeometry>
        </mxCell>
        <mxCell id="8AMS8Mi4bmMsw5T7nzCZ-341" value="" style="edgeStyle=orthogonalEdgeStyle;rounded=0;orthogonalLoop=1;jettySize=auto;html=1;entryX=0.25;entryY=0;entryDx=0;entryDy=0;exitX=0.25;exitY=1;exitDx=0;exitDy=0;" edge="1" parent="1" target="8AMS8Mi4bmMsw5T7nzCZ-345">
          <mxGeometry relative="1" as="geometry">
            <mxPoint x="-810" y="880" as="sourcePoint" />
          </mxGeometry>
        </mxCell>
        <mxCell id="8AMS8Mi4bmMsw5T7nzCZ-342" value="SUM(33)" style="edgeLabel;html=1;align=center;verticalAlign=middle;resizable=0;points=[];" vertex="1" connectable="0" parent="8AMS8Mi4bmMsw5T7nzCZ-341">
          <mxGeometry x="-0.1024" relative="1" as="geometry">
            <mxPoint as="offset" />
          </mxGeometry>
        </mxCell>
        <mxCell id="8AMS8Mi4bmMsw5T7nzCZ-343" value="" style="edgeStyle=orthogonalEdgeStyle;rounded=0;orthogonalLoop=1;jettySize=auto;html=1;" edge="1" parent="1" source="8AMS8Mi4bmMsw5T7nzCZ-345" target="8AMS8Mi4bmMsw5T7nzCZ-348">
          <mxGeometry relative="1" as="geometry" />
        </mxCell>
        <mxCell id="8AMS8Mi4bmMsw5T7nzCZ-344" value="SUM(34)" style="edgeLabel;html=1;align=center;verticalAlign=middle;resizable=0;points=[];" vertex="1" connectable="0" parent="8AMS8Mi4bmMsw5T7nzCZ-343">
          <mxGeometry x="0.0138" y="2" relative="1" as="geometry">
            <mxPoint x="-2" y="19" as="offset" />
          </mxGeometry>
        </mxCell>
        <mxCell id="8AMS8Mi4bmMsw5T7nzCZ-345" value="HA" style="rounded=0;whiteSpace=wrap;html=1;" vertex="1" parent="1">
          <mxGeometry x="-840" y="960" width="120" height="40" as="geometry" />
        </mxCell>
        <mxCell id="8AMS8Mi4bmMsw5T7nzCZ-346" value="" style="edgeStyle=orthogonalEdgeStyle;rounded=0;orthogonalLoop=1;jettySize=auto;html=1;entryX=0.75;entryY=0;entryDx=0;entryDy=0;" edge="1" parent="1" source="8AMS8Mi4bmMsw5T7nzCZ-347" target="8AMS8Mi4bmMsw5T7nzCZ-345">
          <mxGeometry relative="1" as="geometry" />
        </mxCell>
        <mxCell id="8AMS8Mi4bmMsw5T7nzCZ-347" value="A7*B1" style="text;html=1;align=center;verticalAlign=middle;resizable=0;points=[];autosize=1;strokeColor=none;fillColor=none;" vertex="1" parent="1">
          <mxGeometry x="-780" y="900" width="60" height="30" as="geometry" />
        </mxCell>
        <mxCell id="8AMS8Mi4bmMsw5T7nzCZ-348" value="C8" style="rounded=0;whiteSpace=wrap;html=1;" vertex="1" parent="1">
          <mxGeometry x="-800" y="1120" width="40" height="40" as="geometry" />
        </mxCell>
        <mxCell id="8AMS8Mi4bmMsw5T7nzCZ-440" style="edgeStyle=orthogonalEdgeStyle;rounded=0;orthogonalLoop=1;jettySize=auto;html=1;entryX=0.75;entryY=0;entryDx=0;entryDy=0;" edge="1" parent="1" source="8AMS8Mi4bmMsw5T7nzCZ-350" target="8AMS8Mi4bmMsw5T7nzCZ-401">
          <mxGeometry relative="1" as="geometry">
            <mxPoint x="-1150" y="380" as="targetPoint" />
          </mxGeometry>
        </mxCell>
        <mxCell id="8AMS8Mi4bmMsw5T7nzCZ-441" value="COUT(35)" style="edgeLabel;html=1;align=center;verticalAlign=middle;resizable=0;points=[];" vertex="1" connectable="0" parent="8AMS8Mi4bmMsw5T7nzCZ-440">
          <mxGeometry x="-0.7124" relative="1" as="geometry">
            <mxPoint x="-10" as="offset" />
          </mxGeometry>
        </mxCell>
        <mxCell id="8AMS8Mi4bmMsw5T7nzCZ-350" value="FA" style="rounded=0;whiteSpace=wrap;html=1;" vertex="1" parent="1">
          <mxGeometry x="-1040" y="360" width="120" height="40" as="geometry" />
        </mxCell>
        <mxCell id="8AMS8Mi4bmMsw5T7nzCZ-351" value="" style="edgeStyle=orthogonalEdgeStyle;rounded=0;orthogonalLoop=1;jettySize=auto;html=1;entryX=0.25;entryY=0;entryDx=0;entryDy=0;" edge="1" parent="1" source="8AMS8Mi4bmMsw5T7nzCZ-352" target="8AMS8Mi4bmMsw5T7nzCZ-350">
          <mxGeometry relative="1" as="geometry">
            <Array as="points" />
            <mxPoint x="-1010" y="360" as="targetPoint" />
          </mxGeometry>
        </mxCell>
        <mxCell id="8AMS8Mi4bmMsw5T7nzCZ-352" value="A2*B7" style="text;html=1;align=center;verticalAlign=middle;resizable=0;points=[];autosize=1;strokeColor=none;fillColor=none;" vertex="1" parent="1">
          <mxGeometry x="-1040" y="300" width="60" height="30" as="geometry" />
        </mxCell>
        <mxCell id="8AMS8Mi4bmMsw5T7nzCZ-357" value="" style="edgeStyle=orthogonalEdgeStyle;rounded=0;orthogonalLoop=1;jettySize=auto;html=1;" edge="1" parent="1" target="8AMS8Mi4bmMsw5T7nzCZ-368">
          <mxGeometry relative="1" as="geometry">
            <mxPoint x="-840" y="620" as="sourcePoint" />
          </mxGeometry>
        </mxCell>
        <mxCell id="8AMS8Mi4bmMsw5T7nzCZ-358" value="" style="edgeStyle=orthogonalEdgeStyle;rounded=0;orthogonalLoop=1;jettySize=auto;html=1;" edge="1" parent="1" target="8AMS8Mi4bmMsw5T7nzCZ-389">
          <mxGeometry relative="1" as="geometry">
            <mxPoint x="-840" y="980" as="sourcePoint" />
          </mxGeometry>
        </mxCell>
        <mxCell id="8AMS8Mi4bmMsw5T7nzCZ-359" value="" style="edgeStyle=orthogonalEdgeStyle;rounded=0;orthogonalLoop=1;jettySize=auto;html=1;" edge="1" parent="1" target="8AMS8Mi4bmMsw5T7nzCZ-361">
          <mxGeometry relative="1" as="geometry">
            <mxPoint x="-840" y="500" as="sourcePoint" />
          </mxGeometry>
        </mxCell>
        <mxCell id="8AMS8Mi4bmMsw5T7nzCZ-360" value="COUT(30)" style="edgeLabel;html=1;align=center;verticalAlign=middle;resizable=0;points=[];" vertex="1" connectable="0" parent="8AMS8Mi4bmMsw5T7nzCZ-359">
          <mxGeometry x="-0.0929" y="-1" relative="1" as="geometry">
            <mxPoint x="-4" y="1" as="offset" />
          </mxGeometry>
        </mxCell>
        <mxCell id="8AMS8Mi4bmMsw5T7nzCZ-361" value="FA" style="rounded=0;whiteSpace=wrap;html=1;" vertex="1" parent="1">
          <mxGeometry x="-1040" y="480" width="120" height="40" as="geometry" />
        </mxCell>
        <mxCell id="8AMS8Mi4bmMsw5T7nzCZ-362" value="" style="edgeStyle=orthogonalEdgeStyle;rounded=0;orthogonalLoop=1;jettySize=auto;html=1;" edge="1" parent="1" source="8AMS8Mi4bmMsw5T7nzCZ-363" target="8AMS8Mi4bmMsw5T7nzCZ-361">
          <mxGeometry relative="1" as="geometry">
            <Array as="points">
              <mxPoint x="-945" y="472" />
              <mxPoint x="-945" y="472" />
            </Array>
          </mxGeometry>
        </mxCell>
        <mxCell id="8AMS8Mi4bmMsw5T7nzCZ-363" value="A3*B6" style="text;html=1;align=center;verticalAlign=middle;resizable=0;points=[];autosize=1;strokeColor=none;fillColor=none;" vertex="1" parent="1">
          <mxGeometry x="-975" y="420" width="60" height="30" as="geometry" />
        </mxCell>
        <mxCell id="8AMS8Mi4bmMsw5T7nzCZ-364" value="" style="edgeStyle=orthogonalEdgeStyle;rounded=0;orthogonalLoop=1;jettySize=auto;html=1;exitX=0.25;exitY=1;exitDx=0;exitDy=0;entryX=0.25;entryY=0;entryDx=0;entryDy=0;" edge="1" parent="1" target="8AMS8Mi4bmMsw5T7nzCZ-361">
          <mxGeometry relative="1" as="geometry">
            <Array as="points" />
            <mxPoint x="-1010" y="400" as="sourcePoint" />
          </mxGeometry>
        </mxCell>
        <mxCell id="8AMS8Mi4bmMsw5T7nzCZ-365" value="SUM(35)" style="edgeLabel;html=1;align=center;verticalAlign=middle;resizable=0;points=[];" vertex="1" connectable="0" parent="8AMS8Mi4bmMsw5T7nzCZ-364">
          <mxGeometry x="-0.3464" y="1" relative="1" as="geometry">
            <mxPoint x="-1" y="9" as="offset" />
          </mxGeometry>
        </mxCell>
        <mxCell id="8AMS8Mi4bmMsw5T7nzCZ-366" value="" style="edgeStyle=orthogonalEdgeStyle;rounded=0;orthogonalLoop=1;jettySize=auto;html=1;" edge="1" parent="1" target="8AMS8Mi4bmMsw5T7nzCZ-368">
          <mxGeometry relative="1" as="geometry">
            <mxPoint x="-840" y="620" as="sourcePoint" />
          </mxGeometry>
        </mxCell>
        <mxCell id="8AMS8Mi4bmMsw5T7nzCZ-367" value="COUT(31)" style="edgeLabel;html=1;align=center;verticalAlign=middle;resizable=0;points=[];" vertex="1" connectable="0" parent="8AMS8Mi4bmMsw5T7nzCZ-366">
          <mxGeometry x="-0.0929" y="-1" relative="1" as="geometry">
            <mxPoint x="-4" y="1" as="offset" />
          </mxGeometry>
        </mxCell>
        <mxCell id="8AMS8Mi4bmMsw5T7nzCZ-368" value="FA" style="rounded=0;whiteSpace=wrap;html=1;" vertex="1" parent="1">
          <mxGeometry x="-1040" y="600" width="120" height="40" as="geometry" />
        </mxCell>
        <mxCell id="8AMS8Mi4bmMsw5T7nzCZ-369" value="" style="edgeStyle=orthogonalEdgeStyle;rounded=0;orthogonalLoop=1;jettySize=auto;html=1;" edge="1" parent="1" source="8AMS8Mi4bmMsw5T7nzCZ-370" target="8AMS8Mi4bmMsw5T7nzCZ-368">
          <mxGeometry relative="1" as="geometry">
            <Array as="points">
              <mxPoint x="-945" y="592" />
              <mxPoint x="-945" y="592" />
            </Array>
          </mxGeometry>
        </mxCell>
        <mxCell id="8AMS8Mi4bmMsw5T7nzCZ-370" value="A4*B5" style="text;html=1;align=center;verticalAlign=middle;resizable=0;points=[];autosize=1;strokeColor=none;fillColor=none;" vertex="1" parent="1">
          <mxGeometry x="-975" y="540" width="60" height="30" as="geometry" />
        </mxCell>
        <mxCell id="8AMS8Mi4bmMsw5T7nzCZ-371" value="" style="edgeStyle=orthogonalEdgeStyle;rounded=0;orthogonalLoop=1;jettySize=auto;html=1;exitX=0.25;exitY=1;exitDx=0;exitDy=0;entryX=0.25;entryY=0;entryDx=0;entryDy=0;" edge="1" parent="1" target="8AMS8Mi4bmMsw5T7nzCZ-368">
          <mxGeometry relative="1" as="geometry">
            <Array as="points" />
            <mxPoint x="-1010" y="520" as="sourcePoint" />
          </mxGeometry>
        </mxCell>
        <mxCell id="8AMS8Mi4bmMsw5T7nzCZ-372" value="SUM(36)" style="edgeLabel;html=1;align=center;verticalAlign=middle;resizable=0;points=[];" vertex="1" connectable="0" parent="8AMS8Mi4bmMsw5T7nzCZ-371">
          <mxGeometry x="-0.3464" y="1" relative="1" as="geometry">
            <mxPoint x="-1" y="9" as="offset" />
          </mxGeometry>
        </mxCell>
        <mxCell id="8AMS8Mi4bmMsw5T7nzCZ-373" value="" style="edgeStyle=orthogonalEdgeStyle;rounded=0;orthogonalLoop=1;jettySize=auto;html=1;" edge="1" parent="1" target="8AMS8Mi4bmMsw5T7nzCZ-375">
          <mxGeometry relative="1" as="geometry">
            <mxPoint x="-840" y="740" as="sourcePoint" />
          </mxGeometry>
        </mxCell>
        <mxCell id="8AMS8Mi4bmMsw5T7nzCZ-374" value="COUT(32)" style="edgeLabel;html=1;align=center;verticalAlign=middle;resizable=0;points=[];" vertex="1" connectable="0" parent="8AMS8Mi4bmMsw5T7nzCZ-373">
          <mxGeometry x="-0.0929" y="-1" relative="1" as="geometry">
            <mxPoint x="-4" y="1" as="offset" />
          </mxGeometry>
        </mxCell>
        <mxCell id="8AMS8Mi4bmMsw5T7nzCZ-375" value="FA" style="rounded=0;whiteSpace=wrap;html=1;" vertex="1" parent="1">
          <mxGeometry x="-1040" y="720" width="120" height="40" as="geometry" />
        </mxCell>
        <mxCell id="8AMS8Mi4bmMsw5T7nzCZ-376" value="" style="edgeStyle=orthogonalEdgeStyle;rounded=0;orthogonalLoop=1;jettySize=auto;html=1;" edge="1" parent="1" source="8AMS8Mi4bmMsw5T7nzCZ-377" target="8AMS8Mi4bmMsw5T7nzCZ-375">
          <mxGeometry relative="1" as="geometry">
            <Array as="points">
              <mxPoint x="-945" y="712" />
              <mxPoint x="-945" y="712" />
            </Array>
          </mxGeometry>
        </mxCell>
        <mxCell id="8AMS8Mi4bmMsw5T7nzCZ-377" value="A5*B4" style="text;html=1;align=center;verticalAlign=middle;resizable=0;points=[];autosize=1;strokeColor=none;fillColor=none;" vertex="1" parent="1">
          <mxGeometry x="-975" y="660" width="60" height="30" as="geometry" />
        </mxCell>
        <mxCell id="8AMS8Mi4bmMsw5T7nzCZ-378" value="" style="edgeStyle=orthogonalEdgeStyle;rounded=0;orthogonalLoop=1;jettySize=auto;html=1;exitX=0.25;exitY=1;exitDx=0;exitDy=0;entryX=0.25;entryY=0;entryDx=0;entryDy=0;" edge="1" parent="1" target="8AMS8Mi4bmMsw5T7nzCZ-375">
          <mxGeometry relative="1" as="geometry">
            <Array as="points" />
            <mxPoint x="-1010" y="640" as="sourcePoint" />
          </mxGeometry>
        </mxCell>
        <mxCell id="8AMS8Mi4bmMsw5T7nzCZ-379" value="SUM(37)" style="edgeLabel;html=1;align=center;verticalAlign=middle;resizable=0;points=[];" vertex="1" connectable="0" parent="8AMS8Mi4bmMsw5T7nzCZ-378">
          <mxGeometry x="-0.3464" y="1" relative="1" as="geometry">
            <mxPoint x="-1" y="9" as="offset" />
          </mxGeometry>
        </mxCell>
        <mxCell id="8AMS8Mi4bmMsw5T7nzCZ-380" value="" style="edgeStyle=orthogonalEdgeStyle;rounded=0;orthogonalLoop=1;jettySize=auto;html=1;" edge="1" parent="1" target="8AMS8Mi4bmMsw5T7nzCZ-382">
          <mxGeometry relative="1" as="geometry">
            <mxPoint x="-840" y="860" as="sourcePoint" />
          </mxGeometry>
        </mxCell>
        <mxCell id="8AMS8Mi4bmMsw5T7nzCZ-381" value="COUT(33)" style="edgeLabel;html=1;align=center;verticalAlign=middle;resizable=0;points=[];" vertex="1" connectable="0" parent="8AMS8Mi4bmMsw5T7nzCZ-380">
          <mxGeometry x="-0.0929" y="-1" relative="1" as="geometry">
            <mxPoint x="-4" y="1" as="offset" />
          </mxGeometry>
        </mxCell>
        <mxCell id="8AMS8Mi4bmMsw5T7nzCZ-382" value="FA" style="rounded=0;whiteSpace=wrap;html=1;" vertex="1" parent="1">
          <mxGeometry x="-1040" y="840" width="120" height="40" as="geometry" />
        </mxCell>
        <mxCell id="8AMS8Mi4bmMsw5T7nzCZ-383" value="" style="edgeStyle=orthogonalEdgeStyle;rounded=0;orthogonalLoop=1;jettySize=auto;html=1;" edge="1" parent="1" source="8AMS8Mi4bmMsw5T7nzCZ-384" target="8AMS8Mi4bmMsw5T7nzCZ-382">
          <mxGeometry relative="1" as="geometry">
            <Array as="points">
              <mxPoint x="-945" y="832" />
              <mxPoint x="-945" y="832" />
            </Array>
          </mxGeometry>
        </mxCell>
        <mxCell id="8AMS8Mi4bmMsw5T7nzCZ-384" value="A6*B3" style="text;html=1;align=center;verticalAlign=middle;resizable=0;points=[];autosize=1;strokeColor=none;fillColor=none;" vertex="1" parent="1">
          <mxGeometry x="-975" y="780" width="60" height="30" as="geometry" />
        </mxCell>
        <mxCell id="8AMS8Mi4bmMsw5T7nzCZ-385" value="" style="edgeStyle=orthogonalEdgeStyle;rounded=0;orthogonalLoop=1;jettySize=auto;html=1;exitX=0.25;exitY=1;exitDx=0;exitDy=0;entryX=0.25;entryY=0;entryDx=0;entryDy=0;" edge="1" parent="1" target="8AMS8Mi4bmMsw5T7nzCZ-382">
          <mxGeometry relative="1" as="geometry">
            <Array as="points" />
            <mxPoint x="-1010" y="760" as="sourcePoint" />
          </mxGeometry>
        </mxCell>
        <mxCell id="8AMS8Mi4bmMsw5T7nzCZ-386" value="SUM(38)" style="edgeLabel;html=1;align=center;verticalAlign=middle;resizable=0;points=[];" vertex="1" connectable="0" parent="8AMS8Mi4bmMsw5T7nzCZ-385">
          <mxGeometry x="-0.3464" y="1" relative="1" as="geometry">
            <mxPoint x="-1" y="9" as="offset" />
          </mxGeometry>
        </mxCell>
        <mxCell id="8AMS8Mi4bmMsw5T7nzCZ-387" value="" style="edgeStyle=orthogonalEdgeStyle;rounded=0;orthogonalLoop=1;jettySize=auto;html=1;" edge="1" parent="1" target="8AMS8Mi4bmMsw5T7nzCZ-389">
          <mxGeometry relative="1" as="geometry">
            <mxPoint x="-840" y="980" as="sourcePoint" />
          </mxGeometry>
        </mxCell>
        <mxCell id="8AMS8Mi4bmMsw5T7nzCZ-388" value="COUT(34)" style="edgeLabel;html=1;align=center;verticalAlign=middle;resizable=0;points=[];" vertex="1" connectable="0" parent="8AMS8Mi4bmMsw5T7nzCZ-387">
          <mxGeometry x="-0.0929" y="-1" relative="1" as="geometry">
            <mxPoint x="-4" y="1" as="offset" />
          </mxGeometry>
        </mxCell>
        <mxCell id="8AMS8Mi4bmMsw5T7nzCZ-389" value="FA" style="rounded=0;whiteSpace=wrap;html=1;" vertex="1" parent="1">
          <mxGeometry x="-1040" y="960" width="120" height="40" as="geometry" />
        </mxCell>
        <mxCell id="8AMS8Mi4bmMsw5T7nzCZ-390" value="" style="edgeStyle=orthogonalEdgeStyle;rounded=0;orthogonalLoop=1;jettySize=auto;html=1;" edge="1" parent="1" source="8AMS8Mi4bmMsw5T7nzCZ-391" target="8AMS8Mi4bmMsw5T7nzCZ-389">
          <mxGeometry relative="1" as="geometry">
            <Array as="points">
              <mxPoint x="-945" y="952" />
              <mxPoint x="-945" y="952" />
            </Array>
          </mxGeometry>
        </mxCell>
        <mxCell id="8AMS8Mi4bmMsw5T7nzCZ-391" value="A7*B2" style="text;html=1;align=center;verticalAlign=middle;resizable=0;points=[];autosize=1;strokeColor=none;fillColor=none;" vertex="1" parent="1">
          <mxGeometry x="-975" y="900" width="60" height="30" as="geometry" />
        </mxCell>
        <mxCell id="8AMS8Mi4bmMsw5T7nzCZ-392" value="" style="edgeStyle=orthogonalEdgeStyle;rounded=0;orthogonalLoop=1;jettySize=auto;html=1;exitX=0.25;exitY=1;exitDx=0;exitDy=0;entryX=0.25;entryY=0;entryDx=0;entryDy=0;" edge="1" parent="1" target="8AMS8Mi4bmMsw5T7nzCZ-389">
          <mxGeometry relative="1" as="geometry">
            <Array as="points" />
            <mxPoint x="-1010" y="880" as="sourcePoint" />
          </mxGeometry>
        </mxCell>
        <mxCell id="8AMS8Mi4bmMsw5T7nzCZ-393" value="SUM(39)" style="edgeLabel;html=1;align=center;verticalAlign=middle;resizable=0;points=[];" vertex="1" connectable="0" parent="8AMS8Mi4bmMsw5T7nzCZ-392">
          <mxGeometry x="-0.3464" y="1" relative="1" as="geometry">
            <mxPoint x="-1" y="9" as="offset" />
          </mxGeometry>
        </mxCell>
        <mxCell id="8AMS8Mi4bmMsw5T7nzCZ-394" value="" style="edgeStyle=orthogonalEdgeStyle;rounded=0;orthogonalLoop=1;jettySize=auto;html=1;exitX=0.5;exitY=1;exitDx=0;exitDy=0;" edge="1" parent="1" target="8AMS8Mi4bmMsw5T7nzCZ-396" source="8AMS8Mi4bmMsw5T7nzCZ-389">
          <mxGeometry relative="1" as="geometry">
            <mxPoint x="-980" y="1000" as="sourcePoint" />
          </mxGeometry>
        </mxCell>
        <mxCell id="8AMS8Mi4bmMsw5T7nzCZ-395" value="SUM(40)" style="edgeLabel;html=1;align=center;verticalAlign=middle;resizable=0;points=[];" vertex="1" connectable="0" parent="8AMS8Mi4bmMsw5T7nzCZ-394">
          <mxGeometry x="0.0138" y="2" relative="1" as="geometry">
            <mxPoint x="-2" y="19" as="offset" />
          </mxGeometry>
        </mxCell>
        <mxCell id="8AMS8Mi4bmMsw5T7nzCZ-396" value="C9" style="rounded=0;whiteSpace=wrap;html=1;" vertex="1" parent="1">
          <mxGeometry x="-1000" y="1120" width="40" height="40" as="geometry" />
        </mxCell>
        <mxCell id="8AMS8Mi4bmMsw5T7nzCZ-397" value="" style="edgeStyle=orthogonalEdgeStyle;rounded=0;orthogonalLoop=1;jettySize=auto;html=1;" edge="1" parent="1" target="8AMS8Mi4bmMsw5T7nzCZ-408">
          <mxGeometry relative="1" as="geometry">
            <mxPoint x="-1040" y="620" as="sourcePoint" />
          </mxGeometry>
        </mxCell>
        <mxCell id="8AMS8Mi4bmMsw5T7nzCZ-398" value="" style="edgeStyle=orthogonalEdgeStyle;rounded=0;orthogonalLoop=1;jettySize=auto;html=1;" edge="1" parent="1" target="8AMS8Mi4bmMsw5T7nzCZ-429">
          <mxGeometry relative="1" as="geometry">
            <mxPoint x="-1040" y="980" as="sourcePoint" />
          </mxGeometry>
        </mxCell>
        <mxCell id="8AMS8Mi4bmMsw5T7nzCZ-399" value="" style="edgeStyle=orthogonalEdgeStyle;rounded=0;orthogonalLoop=1;jettySize=auto;html=1;" edge="1" parent="1" target="8AMS8Mi4bmMsw5T7nzCZ-401">
          <mxGeometry relative="1" as="geometry">
            <mxPoint x="-1040" y="500" as="sourcePoint" />
          </mxGeometry>
        </mxCell>
        <mxCell id="8AMS8Mi4bmMsw5T7nzCZ-400" value="COUT(36)" style="edgeLabel;html=1;align=center;verticalAlign=middle;resizable=0;points=[];" vertex="1" connectable="0" parent="8AMS8Mi4bmMsw5T7nzCZ-399">
          <mxGeometry x="-0.0929" y="-1" relative="1" as="geometry">
            <mxPoint x="-4" y="1" as="offset" />
          </mxGeometry>
        </mxCell>
        <mxCell id="8AMS8Mi4bmMsw5T7nzCZ-476" style="edgeStyle=orthogonalEdgeStyle;rounded=0;orthogonalLoop=1;jettySize=auto;html=1;entryX=0.75;entryY=0;entryDx=0;entryDy=0;" edge="1" parent="1" source="8AMS8Mi4bmMsw5T7nzCZ-401" target="8AMS8Mi4bmMsw5T7nzCZ-446">
          <mxGeometry relative="1" as="geometry">
            <mxPoint x="-1350" y="500" as="targetPoint" />
          </mxGeometry>
        </mxCell>
        <mxCell id="8AMS8Mi4bmMsw5T7nzCZ-599" value="COUT(41)" style="edgeLabel;html=1;align=center;verticalAlign=middle;resizable=0;points=[];" vertex="1" connectable="0" parent="8AMS8Mi4bmMsw5T7nzCZ-476">
          <mxGeometry x="-0.6524" y="3" relative="1" as="geometry">
            <mxPoint x="-3" y="-3" as="offset" />
          </mxGeometry>
        </mxCell>
        <mxCell id="8AMS8Mi4bmMsw5T7nzCZ-401" value="FA" style="rounded=0;whiteSpace=wrap;html=1;" vertex="1" parent="1">
          <mxGeometry x="-1240" y="480" width="120" height="40" as="geometry" />
        </mxCell>
        <mxCell id="8AMS8Mi4bmMsw5T7nzCZ-406" value="" style="edgeStyle=orthogonalEdgeStyle;rounded=0;orthogonalLoop=1;jettySize=auto;html=1;" edge="1" parent="1" target="8AMS8Mi4bmMsw5T7nzCZ-408">
          <mxGeometry relative="1" as="geometry">
            <mxPoint x="-1040" y="620" as="sourcePoint" />
          </mxGeometry>
        </mxCell>
        <mxCell id="8AMS8Mi4bmMsw5T7nzCZ-407" value="COUT(37)" style="edgeLabel;html=1;align=center;verticalAlign=middle;resizable=0;points=[];" vertex="1" connectable="0" parent="8AMS8Mi4bmMsw5T7nzCZ-406">
          <mxGeometry x="-0.0929" y="-1" relative="1" as="geometry">
            <mxPoint x="-4" y="1" as="offset" />
          </mxGeometry>
        </mxCell>
        <mxCell id="8AMS8Mi4bmMsw5T7nzCZ-408" value="FA" style="rounded=0;whiteSpace=wrap;html=1;" vertex="1" parent="1">
          <mxGeometry x="-1240" y="600" width="120" height="40" as="geometry" />
        </mxCell>
        <mxCell id="8AMS8Mi4bmMsw5T7nzCZ-409" value="" style="edgeStyle=orthogonalEdgeStyle;rounded=0;orthogonalLoop=1;jettySize=auto;html=1;" edge="1" parent="1" source="8AMS8Mi4bmMsw5T7nzCZ-410" target="8AMS8Mi4bmMsw5T7nzCZ-408">
          <mxGeometry relative="1" as="geometry">
            <Array as="points">
              <mxPoint x="-1145" y="592" />
              <mxPoint x="-1145" y="592" />
            </Array>
          </mxGeometry>
        </mxCell>
        <mxCell id="8AMS8Mi4bmMsw5T7nzCZ-410" value="A4*B6" style="text;html=1;align=center;verticalAlign=middle;resizable=0;points=[];autosize=1;strokeColor=none;fillColor=none;" vertex="1" parent="1">
          <mxGeometry x="-1175" y="540" width="60" height="30" as="geometry" />
        </mxCell>
        <mxCell id="8AMS8Mi4bmMsw5T7nzCZ-411" value="" style="edgeStyle=orthogonalEdgeStyle;rounded=0;orthogonalLoop=1;jettySize=auto;html=1;exitX=0.25;exitY=1;exitDx=0;exitDy=0;entryX=0.25;entryY=0;entryDx=0;entryDy=0;" edge="1" parent="1" target="8AMS8Mi4bmMsw5T7nzCZ-408">
          <mxGeometry relative="1" as="geometry">
            <Array as="points" />
            <mxPoint x="-1210" y="520" as="sourcePoint" />
          </mxGeometry>
        </mxCell>
        <mxCell id="8AMS8Mi4bmMsw5T7nzCZ-412" value="SUM(41)" style="edgeLabel;html=1;align=center;verticalAlign=middle;resizable=0;points=[];" vertex="1" connectable="0" parent="8AMS8Mi4bmMsw5T7nzCZ-411">
          <mxGeometry x="-0.3464" y="1" relative="1" as="geometry">
            <mxPoint x="-1" y="9" as="offset" />
          </mxGeometry>
        </mxCell>
        <mxCell id="8AMS8Mi4bmMsw5T7nzCZ-413" value="" style="edgeStyle=orthogonalEdgeStyle;rounded=0;orthogonalLoop=1;jettySize=auto;html=1;" edge="1" parent="1" target="8AMS8Mi4bmMsw5T7nzCZ-415">
          <mxGeometry relative="1" as="geometry">
            <mxPoint x="-1040" y="740" as="sourcePoint" />
          </mxGeometry>
        </mxCell>
        <mxCell id="8AMS8Mi4bmMsw5T7nzCZ-414" value="COUT(38)" style="edgeLabel;html=1;align=center;verticalAlign=middle;resizable=0;points=[];" vertex="1" connectable="0" parent="8AMS8Mi4bmMsw5T7nzCZ-413">
          <mxGeometry x="-0.0929" y="-1" relative="1" as="geometry">
            <mxPoint x="-4" y="1" as="offset" />
          </mxGeometry>
        </mxCell>
        <mxCell id="8AMS8Mi4bmMsw5T7nzCZ-415" value="FA" style="rounded=0;whiteSpace=wrap;html=1;" vertex="1" parent="1">
          <mxGeometry x="-1240" y="720" width="120" height="40" as="geometry" />
        </mxCell>
        <mxCell id="8AMS8Mi4bmMsw5T7nzCZ-416" value="" style="edgeStyle=orthogonalEdgeStyle;rounded=0;orthogonalLoop=1;jettySize=auto;html=1;" edge="1" parent="1" source="8AMS8Mi4bmMsw5T7nzCZ-417" target="8AMS8Mi4bmMsw5T7nzCZ-415">
          <mxGeometry relative="1" as="geometry">
            <Array as="points">
              <mxPoint x="-1145" y="712" />
              <mxPoint x="-1145" y="712" />
            </Array>
          </mxGeometry>
        </mxCell>
        <mxCell id="8AMS8Mi4bmMsw5T7nzCZ-417" value="A5*B5" style="text;html=1;align=center;verticalAlign=middle;resizable=0;points=[];autosize=1;strokeColor=none;fillColor=none;" vertex="1" parent="1">
          <mxGeometry x="-1175" y="660" width="60" height="30" as="geometry" />
        </mxCell>
        <mxCell id="8AMS8Mi4bmMsw5T7nzCZ-418" value="" style="edgeStyle=orthogonalEdgeStyle;rounded=0;orthogonalLoop=1;jettySize=auto;html=1;exitX=0.25;exitY=1;exitDx=0;exitDy=0;entryX=0.25;entryY=0;entryDx=0;entryDy=0;" edge="1" parent="1" target="8AMS8Mi4bmMsw5T7nzCZ-415">
          <mxGeometry relative="1" as="geometry">
            <Array as="points" />
            <mxPoint x="-1210" y="640" as="sourcePoint" />
          </mxGeometry>
        </mxCell>
        <mxCell id="8AMS8Mi4bmMsw5T7nzCZ-419" value="SUM(42)" style="edgeLabel;html=1;align=center;verticalAlign=middle;resizable=0;points=[];" vertex="1" connectable="0" parent="8AMS8Mi4bmMsw5T7nzCZ-418">
          <mxGeometry x="-0.3464" y="1" relative="1" as="geometry">
            <mxPoint x="-1" y="9" as="offset" />
          </mxGeometry>
        </mxCell>
        <mxCell id="8AMS8Mi4bmMsw5T7nzCZ-420" value="" style="edgeStyle=orthogonalEdgeStyle;rounded=0;orthogonalLoop=1;jettySize=auto;html=1;" edge="1" parent="1" target="8AMS8Mi4bmMsw5T7nzCZ-422">
          <mxGeometry relative="1" as="geometry">
            <mxPoint x="-1040" y="860" as="sourcePoint" />
          </mxGeometry>
        </mxCell>
        <mxCell id="8AMS8Mi4bmMsw5T7nzCZ-421" value="COUT(39)" style="edgeLabel;html=1;align=center;verticalAlign=middle;resizable=0;points=[];" vertex="1" connectable="0" parent="8AMS8Mi4bmMsw5T7nzCZ-420">
          <mxGeometry x="-0.0929" y="-1" relative="1" as="geometry">
            <mxPoint x="-4" y="1" as="offset" />
          </mxGeometry>
        </mxCell>
        <mxCell id="8AMS8Mi4bmMsw5T7nzCZ-422" value="FA" style="rounded=0;whiteSpace=wrap;html=1;" vertex="1" parent="1">
          <mxGeometry x="-1240" y="840" width="120" height="40" as="geometry" />
        </mxCell>
        <mxCell id="8AMS8Mi4bmMsw5T7nzCZ-423" value="" style="edgeStyle=orthogonalEdgeStyle;rounded=0;orthogonalLoop=1;jettySize=auto;html=1;" edge="1" parent="1" source="8AMS8Mi4bmMsw5T7nzCZ-424" target="8AMS8Mi4bmMsw5T7nzCZ-422">
          <mxGeometry relative="1" as="geometry">
            <Array as="points">
              <mxPoint x="-1145" y="832" />
              <mxPoint x="-1145" y="832" />
            </Array>
          </mxGeometry>
        </mxCell>
        <mxCell id="8AMS8Mi4bmMsw5T7nzCZ-424" value="A6*B4" style="text;html=1;align=center;verticalAlign=middle;resizable=0;points=[];autosize=1;strokeColor=none;fillColor=none;" vertex="1" parent="1">
          <mxGeometry x="-1175" y="780" width="60" height="30" as="geometry" />
        </mxCell>
        <mxCell id="8AMS8Mi4bmMsw5T7nzCZ-425" value="" style="edgeStyle=orthogonalEdgeStyle;rounded=0;orthogonalLoop=1;jettySize=auto;html=1;exitX=0.25;exitY=1;exitDx=0;exitDy=0;entryX=0.25;entryY=0;entryDx=0;entryDy=0;" edge="1" parent="1" target="8AMS8Mi4bmMsw5T7nzCZ-422">
          <mxGeometry relative="1" as="geometry">
            <Array as="points" />
            <mxPoint x="-1210" y="760" as="sourcePoint" />
          </mxGeometry>
        </mxCell>
        <mxCell id="8AMS8Mi4bmMsw5T7nzCZ-426" value="SUM(43)" style="edgeLabel;html=1;align=center;verticalAlign=middle;resizable=0;points=[];" vertex="1" connectable="0" parent="8AMS8Mi4bmMsw5T7nzCZ-425">
          <mxGeometry x="-0.3464" y="1" relative="1" as="geometry">
            <mxPoint x="-1" y="9" as="offset" />
          </mxGeometry>
        </mxCell>
        <mxCell id="8AMS8Mi4bmMsw5T7nzCZ-427" value="" style="edgeStyle=orthogonalEdgeStyle;rounded=0;orthogonalLoop=1;jettySize=auto;html=1;" edge="1" parent="1" target="8AMS8Mi4bmMsw5T7nzCZ-429">
          <mxGeometry relative="1" as="geometry">
            <mxPoint x="-1040" y="980" as="sourcePoint" />
          </mxGeometry>
        </mxCell>
        <mxCell id="8AMS8Mi4bmMsw5T7nzCZ-428" value="COUT(40)" style="edgeLabel;html=1;align=center;verticalAlign=middle;resizable=0;points=[];" vertex="1" connectable="0" parent="8AMS8Mi4bmMsw5T7nzCZ-427">
          <mxGeometry x="-0.0929" y="-1" relative="1" as="geometry">
            <mxPoint x="-4" y="1" as="offset" />
          </mxGeometry>
        </mxCell>
        <mxCell id="8AMS8Mi4bmMsw5T7nzCZ-429" value="FA" style="rounded=0;whiteSpace=wrap;html=1;" vertex="1" parent="1">
          <mxGeometry x="-1240" y="960" width="120" height="40" as="geometry" />
        </mxCell>
        <mxCell id="8AMS8Mi4bmMsw5T7nzCZ-430" value="" style="edgeStyle=orthogonalEdgeStyle;rounded=0;orthogonalLoop=1;jettySize=auto;html=1;" edge="1" parent="1" source="8AMS8Mi4bmMsw5T7nzCZ-431" target="8AMS8Mi4bmMsw5T7nzCZ-429">
          <mxGeometry relative="1" as="geometry">
            <Array as="points">
              <mxPoint x="-1145" y="952" />
              <mxPoint x="-1145" y="952" />
            </Array>
          </mxGeometry>
        </mxCell>
        <mxCell id="8AMS8Mi4bmMsw5T7nzCZ-431" value="A7*B3" style="text;html=1;align=center;verticalAlign=middle;resizable=0;points=[];autosize=1;strokeColor=none;fillColor=none;" vertex="1" parent="1">
          <mxGeometry x="-1175" y="900" width="60" height="30" as="geometry" />
        </mxCell>
        <mxCell id="8AMS8Mi4bmMsw5T7nzCZ-432" value="" style="edgeStyle=orthogonalEdgeStyle;rounded=0;orthogonalLoop=1;jettySize=auto;html=1;exitX=0.25;exitY=1;exitDx=0;exitDy=0;entryX=0.25;entryY=0;entryDx=0;entryDy=0;" edge="1" parent="1" target="8AMS8Mi4bmMsw5T7nzCZ-429">
          <mxGeometry relative="1" as="geometry">
            <Array as="points" />
            <mxPoint x="-1210" y="880" as="sourcePoint" />
          </mxGeometry>
        </mxCell>
        <mxCell id="8AMS8Mi4bmMsw5T7nzCZ-433" value="SUM(44)" style="edgeLabel;html=1;align=center;verticalAlign=middle;resizable=0;points=[];" vertex="1" connectable="0" parent="8AMS8Mi4bmMsw5T7nzCZ-432">
          <mxGeometry x="-0.3464" y="1" relative="1" as="geometry">
            <mxPoint x="-1" y="9" as="offset" />
          </mxGeometry>
        </mxCell>
        <mxCell id="8AMS8Mi4bmMsw5T7nzCZ-434" value="" style="edgeStyle=orthogonalEdgeStyle;rounded=0;orthogonalLoop=1;jettySize=auto;html=1;exitX=0.5;exitY=1;exitDx=0;exitDy=0;" edge="1" parent="1" source="8AMS8Mi4bmMsw5T7nzCZ-429" target="8AMS8Mi4bmMsw5T7nzCZ-436">
          <mxGeometry relative="1" as="geometry">
            <mxPoint x="-1180" y="1000" as="sourcePoint" />
          </mxGeometry>
        </mxCell>
        <mxCell id="8AMS8Mi4bmMsw5T7nzCZ-435" value="SUM(45)" style="edgeLabel;html=1;align=center;verticalAlign=middle;resizable=0;points=[];" vertex="1" connectable="0" parent="8AMS8Mi4bmMsw5T7nzCZ-434">
          <mxGeometry x="0.0138" y="2" relative="1" as="geometry">
            <mxPoint x="-2" y="19" as="offset" />
          </mxGeometry>
        </mxCell>
        <mxCell id="8AMS8Mi4bmMsw5T7nzCZ-436" value="C10" style="rounded=0;whiteSpace=wrap;html=1;" vertex="1" parent="1">
          <mxGeometry x="-1200" y="1120" width="40" height="40" as="geometry" />
        </mxCell>
        <mxCell id="8AMS8Mi4bmMsw5T7nzCZ-438" value="" style="edgeStyle=orthogonalEdgeStyle;rounded=0;orthogonalLoop=1;jettySize=auto;html=1;entryX=0.25;entryY=0;entryDx=0;entryDy=0;" edge="1" parent="1" source="8AMS8Mi4bmMsw5T7nzCZ-439" target="8AMS8Mi4bmMsw5T7nzCZ-401">
          <mxGeometry relative="1" as="geometry">
            <Array as="points" />
            <mxPoint x="-1210" y="480" as="targetPoint" />
          </mxGeometry>
        </mxCell>
        <mxCell id="8AMS8Mi4bmMsw5T7nzCZ-439" value="A3*B7" style="text;html=1;align=center;verticalAlign=middle;resizable=0;points=[];autosize=1;strokeColor=none;fillColor=none;" vertex="1" parent="1">
          <mxGeometry x="-1240" y="420" width="60" height="30" as="geometry" />
        </mxCell>
        <mxCell id="8AMS8Mi4bmMsw5T7nzCZ-442" value="" style="edgeStyle=orthogonalEdgeStyle;rounded=0;orthogonalLoop=1;jettySize=auto;html=1;" edge="1" parent="1" target="8AMS8Mi4bmMsw5T7nzCZ-446">
          <mxGeometry relative="1" as="geometry">
            <mxPoint x="-1240" y="620" as="sourcePoint" />
          </mxGeometry>
        </mxCell>
        <mxCell id="8AMS8Mi4bmMsw5T7nzCZ-443" value="" style="edgeStyle=orthogonalEdgeStyle;rounded=0;orthogonalLoop=1;jettySize=auto;html=1;" edge="1" parent="1" target="8AMS8Mi4bmMsw5T7nzCZ-467">
          <mxGeometry relative="1" as="geometry">
            <mxPoint x="-1240" y="980" as="sourcePoint" />
          </mxGeometry>
        </mxCell>
        <mxCell id="8AMS8Mi4bmMsw5T7nzCZ-444" value="" style="edgeStyle=orthogonalEdgeStyle;rounded=0;orthogonalLoop=1;jettySize=auto;html=1;" edge="1" parent="1" target="8AMS8Mi4bmMsw5T7nzCZ-446">
          <mxGeometry relative="1" as="geometry">
            <mxPoint x="-1240" y="620" as="sourcePoint" />
          </mxGeometry>
        </mxCell>
        <mxCell id="8AMS8Mi4bmMsw5T7nzCZ-445" value="COUT(42)" style="edgeLabel;html=1;align=center;verticalAlign=middle;resizable=0;points=[];" vertex="1" connectable="0" parent="8AMS8Mi4bmMsw5T7nzCZ-444">
          <mxGeometry x="-0.0929" y="-1" relative="1" as="geometry">
            <mxPoint x="-4" y="1" as="offset" />
          </mxGeometry>
        </mxCell>
        <mxCell id="8AMS8Mi4bmMsw5T7nzCZ-506" style="edgeStyle=orthogonalEdgeStyle;rounded=0;orthogonalLoop=1;jettySize=auto;html=1;entryX=0.75;entryY=0;entryDx=0;entryDy=0;" edge="1" parent="1" source="8AMS8Mi4bmMsw5T7nzCZ-446" target="8AMS8Mi4bmMsw5T7nzCZ-484">
          <mxGeometry relative="1" as="geometry">
            <mxPoint x="-1560" y="620" as="targetPoint" />
          </mxGeometry>
        </mxCell>
        <mxCell id="8AMS8Mi4bmMsw5T7nzCZ-507" value="COUT(46)" style="edgeLabel;html=1;align=center;verticalAlign=middle;resizable=0;points=[];" vertex="1" connectable="0" parent="8AMS8Mi4bmMsw5T7nzCZ-506">
          <mxGeometry x="-0.6952" relative="1" as="geometry">
            <mxPoint x="-8" as="offset" />
          </mxGeometry>
        </mxCell>
        <mxCell id="8AMS8Mi4bmMsw5T7nzCZ-446" value="FA" style="rounded=0;whiteSpace=wrap;html=1;" vertex="1" parent="1">
          <mxGeometry x="-1440" y="600" width="120" height="40" as="geometry" />
        </mxCell>
        <mxCell id="8AMS8Mi4bmMsw5T7nzCZ-451" value="" style="edgeStyle=orthogonalEdgeStyle;rounded=0;orthogonalLoop=1;jettySize=auto;html=1;" edge="1" parent="1" target="8AMS8Mi4bmMsw5T7nzCZ-453">
          <mxGeometry relative="1" as="geometry">
            <mxPoint x="-1240" y="740" as="sourcePoint" />
          </mxGeometry>
        </mxCell>
        <mxCell id="8AMS8Mi4bmMsw5T7nzCZ-452" value="COUT(43)" style="edgeLabel;html=1;align=center;verticalAlign=middle;resizable=0;points=[];" vertex="1" connectable="0" parent="8AMS8Mi4bmMsw5T7nzCZ-451">
          <mxGeometry x="-0.0929" y="-1" relative="1" as="geometry">
            <mxPoint x="-4" y="1" as="offset" />
          </mxGeometry>
        </mxCell>
        <mxCell id="8AMS8Mi4bmMsw5T7nzCZ-453" value="FA" style="rounded=0;whiteSpace=wrap;html=1;" vertex="1" parent="1">
          <mxGeometry x="-1440" y="720" width="120" height="40" as="geometry" />
        </mxCell>
        <mxCell id="8AMS8Mi4bmMsw5T7nzCZ-454" value="" style="edgeStyle=orthogonalEdgeStyle;rounded=0;orthogonalLoop=1;jettySize=auto;html=1;" edge="1" parent="1" source="8AMS8Mi4bmMsw5T7nzCZ-455" target="8AMS8Mi4bmMsw5T7nzCZ-453">
          <mxGeometry relative="1" as="geometry">
            <Array as="points">
              <mxPoint x="-1345" y="712" />
              <mxPoint x="-1345" y="712" />
            </Array>
          </mxGeometry>
        </mxCell>
        <mxCell id="8AMS8Mi4bmMsw5T7nzCZ-455" value="A5*B6" style="text;html=1;align=center;verticalAlign=middle;resizable=0;points=[];autosize=1;strokeColor=none;fillColor=none;" vertex="1" parent="1">
          <mxGeometry x="-1375" y="660" width="60" height="30" as="geometry" />
        </mxCell>
        <mxCell id="8AMS8Mi4bmMsw5T7nzCZ-456" value="" style="edgeStyle=orthogonalEdgeStyle;rounded=0;orthogonalLoop=1;jettySize=auto;html=1;exitX=0.25;exitY=1;exitDx=0;exitDy=0;entryX=0.25;entryY=0;entryDx=0;entryDy=0;" edge="1" parent="1" target="8AMS8Mi4bmMsw5T7nzCZ-453">
          <mxGeometry relative="1" as="geometry">
            <Array as="points" />
            <mxPoint x="-1410" y="640" as="sourcePoint" />
          </mxGeometry>
        </mxCell>
        <mxCell id="8AMS8Mi4bmMsw5T7nzCZ-457" value="SUM(46)" style="edgeLabel;html=1;align=center;verticalAlign=middle;resizable=0;points=[];" vertex="1" connectable="0" parent="8AMS8Mi4bmMsw5T7nzCZ-456">
          <mxGeometry x="-0.3464" y="1" relative="1" as="geometry">
            <mxPoint x="-1" y="9" as="offset" />
          </mxGeometry>
        </mxCell>
        <mxCell id="8AMS8Mi4bmMsw5T7nzCZ-458" value="" style="edgeStyle=orthogonalEdgeStyle;rounded=0;orthogonalLoop=1;jettySize=auto;html=1;" edge="1" parent="1" target="8AMS8Mi4bmMsw5T7nzCZ-460">
          <mxGeometry relative="1" as="geometry">
            <mxPoint x="-1240" y="860" as="sourcePoint" />
          </mxGeometry>
        </mxCell>
        <mxCell id="8AMS8Mi4bmMsw5T7nzCZ-459" value="COUT(44)" style="edgeLabel;html=1;align=center;verticalAlign=middle;resizable=0;points=[];" vertex="1" connectable="0" parent="8AMS8Mi4bmMsw5T7nzCZ-458">
          <mxGeometry x="-0.0929" y="-1" relative="1" as="geometry">
            <mxPoint x="-4" y="1" as="offset" />
          </mxGeometry>
        </mxCell>
        <mxCell id="8AMS8Mi4bmMsw5T7nzCZ-460" value="FA" style="rounded=0;whiteSpace=wrap;html=1;" vertex="1" parent="1">
          <mxGeometry x="-1440" y="840" width="120" height="40" as="geometry" />
        </mxCell>
        <mxCell id="8AMS8Mi4bmMsw5T7nzCZ-461" value="" style="edgeStyle=orthogonalEdgeStyle;rounded=0;orthogonalLoop=1;jettySize=auto;html=1;" edge="1" parent="1" source="8AMS8Mi4bmMsw5T7nzCZ-462" target="8AMS8Mi4bmMsw5T7nzCZ-460">
          <mxGeometry relative="1" as="geometry">
            <Array as="points">
              <mxPoint x="-1345" y="832" />
              <mxPoint x="-1345" y="832" />
            </Array>
          </mxGeometry>
        </mxCell>
        <mxCell id="8AMS8Mi4bmMsw5T7nzCZ-462" value="A6*B5" style="text;html=1;align=center;verticalAlign=middle;resizable=0;points=[];autosize=1;strokeColor=none;fillColor=none;" vertex="1" parent="1">
          <mxGeometry x="-1375" y="780" width="60" height="30" as="geometry" />
        </mxCell>
        <mxCell id="8AMS8Mi4bmMsw5T7nzCZ-463" value="" style="edgeStyle=orthogonalEdgeStyle;rounded=0;orthogonalLoop=1;jettySize=auto;html=1;exitX=0.25;exitY=1;exitDx=0;exitDy=0;entryX=0.25;entryY=0;entryDx=0;entryDy=0;" edge="1" parent="1" target="8AMS8Mi4bmMsw5T7nzCZ-460">
          <mxGeometry relative="1" as="geometry">
            <Array as="points" />
            <mxPoint x="-1410" y="760" as="sourcePoint" />
          </mxGeometry>
        </mxCell>
        <mxCell id="8AMS8Mi4bmMsw5T7nzCZ-464" value="SUM(47)" style="edgeLabel;html=1;align=center;verticalAlign=middle;resizable=0;points=[];" vertex="1" connectable="0" parent="8AMS8Mi4bmMsw5T7nzCZ-463">
          <mxGeometry x="-0.3464" y="1" relative="1" as="geometry">
            <mxPoint x="-1" y="9" as="offset" />
          </mxGeometry>
        </mxCell>
        <mxCell id="8AMS8Mi4bmMsw5T7nzCZ-465" value="" style="edgeStyle=orthogonalEdgeStyle;rounded=0;orthogonalLoop=1;jettySize=auto;html=1;" edge="1" parent="1" target="8AMS8Mi4bmMsw5T7nzCZ-467">
          <mxGeometry relative="1" as="geometry">
            <mxPoint x="-1240" y="980" as="sourcePoint" />
          </mxGeometry>
        </mxCell>
        <mxCell id="8AMS8Mi4bmMsw5T7nzCZ-466" value="COUT(45)" style="edgeLabel;html=1;align=center;verticalAlign=middle;resizable=0;points=[];" vertex="1" connectable="0" parent="8AMS8Mi4bmMsw5T7nzCZ-465">
          <mxGeometry x="-0.0929" y="-1" relative="1" as="geometry">
            <mxPoint x="-4" y="1" as="offset" />
          </mxGeometry>
        </mxCell>
        <mxCell id="8AMS8Mi4bmMsw5T7nzCZ-467" value="FA" style="rounded=0;whiteSpace=wrap;html=1;" vertex="1" parent="1">
          <mxGeometry x="-1440" y="960" width="120" height="40" as="geometry" />
        </mxCell>
        <mxCell id="8AMS8Mi4bmMsw5T7nzCZ-468" value="" style="edgeStyle=orthogonalEdgeStyle;rounded=0;orthogonalLoop=1;jettySize=auto;html=1;" edge="1" parent="1" source="8AMS8Mi4bmMsw5T7nzCZ-469" target="8AMS8Mi4bmMsw5T7nzCZ-467">
          <mxGeometry relative="1" as="geometry">
            <Array as="points">
              <mxPoint x="-1345" y="952" />
              <mxPoint x="-1345" y="952" />
            </Array>
          </mxGeometry>
        </mxCell>
        <mxCell id="8AMS8Mi4bmMsw5T7nzCZ-469" value="A7*B4" style="text;html=1;align=center;verticalAlign=middle;resizable=0;points=[];autosize=1;strokeColor=none;fillColor=none;" vertex="1" parent="1">
          <mxGeometry x="-1375" y="900" width="60" height="30" as="geometry" />
        </mxCell>
        <mxCell id="8AMS8Mi4bmMsw5T7nzCZ-470" value="" style="edgeStyle=orthogonalEdgeStyle;rounded=0;orthogonalLoop=1;jettySize=auto;html=1;exitX=0.25;exitY=1;exitDx=0;exitDy=0;entryX=0.25;entryY=0;entryDx=0;entryDy=0;" edge="1" parent="1" target="8AMS8Mi4bmMsw5T7nzCZ-467">
          <mxGeometry relative="1" as="geometry">
            <Array as="points" />
            <mxPoint x="-1410" y="880" as="sourcePoint" />
          </mxGeometry>
        </mxCell>
        <mxCell id="8AMS8Mi4bmMsw5T7nzCZ-471" value="SUM(48)" style="edgeLabel;html=1;align=center;verticalAlign=middle;resizable=0;points=[];" vertex="1" connectable="0" parent="8AMS8Mi4bmMsw5T7nzCZ-470">
          <mxGeometry x="-0.3464" y="1" relative="1" as="geometry">
            <mxPoint x="-1" y="9" as="offset" />
          </mxGeometry>
        </mxCell>
        <mxCell id="8AMS8Mi4bmMsw5T7nzCZ-472" value="" style="edgeStyle=orthogonalEdgeStyle;rounded=0;orthogonalLoop=1;jettySize=auto;html=1;exitX=0.5;exitY=1;exitDx=0;exitDy=0;" edge="1" parent="1" source="8AMS8Mi4bmMsw5T7nzCZ-467" target="8AMS8Mi4bmMsw5T7nzCZ-474">
          <mxGeometry relative="1" as="geometry">
            <mxPoint x="-1380" y="1000" as="sourcePoint" />
          </mxGeometry>
        </mxCell>
        <mxCell id="8AMS8Mi4bmMsw5T7nzCZ-473" value="SUM(49)" style="edgeLabel;html=1;align=center;verticalAlign=middle;resizable=0;points=[];" vertex="1" connectable="0" parent="8AMS8Mi4bmMsw5T7nzCZ-472">
          <mxGeometry x="0.0138" y="2" relative="1" as="geometry">
            <mxPoint x="-2" y="19" as="offset" />
          </mxGeometry>
        </mxCell>
        <mxCell id="8AMS8Mi4bmMsw5T7nzCZ-474" value="C11" style="rounded=0;whiteSpace=wrap;html=1;" vertex="1" parent="1">
          <mxGeometry x="-1400" y="1120" width="40" height="40" as="geometry" />
        </mxCell>
        <mxCell id="8AMS8Mi4bmMsw5T7nzCZ-477" value="" style="edgeStyle=orthogonalEdgeStyle;rounded=0;orthogonalLoop=1;jettySize=auto;html=1;entryX=0.25;entryY=0;entryDx=0;entryDy=0;" edge="1" parent="1" source="8AMS8Mi4bmMsw5T7nzCZ-478">
          <mxGeometry relative="1" as="geometry">
            <Array as="points" />
            <mxPoint x="-1410" y="600" as="targetPoint" />
          </mxGeometry>
        </mxCell>
        <mxCell id="8AMS8Mi4bmMsw5T7nzCZ-478" value="A4*B7" style="text;html=1;align=center;verticalAlign=middle;resizable=0;points=[];autosize=1;strokeColor=none;fillColor=none;" vertex="1" parent="1">
          <mxGeometry x="-1440" y="540" width="60" height="30" as="geometry" />
        </mxCell>
        <mxCell id="8AMS8Mi4bmMsw5T7nzCZ-481" value="" style="edgeStyle=orthogonalEdgeStyle;rounded=0;orthogonalLoop=1;jettySize=auto;html=1;" edge="1" parent="1" target="8AMS8Mi4bmMsw5T7nzCZ-498">
          <mxGeometry relative="1" as="geometry">
            <mxPoint x="-1440" y="980" as="sourcePoint" />
          </mxGeometry>
        </mxCell>
        <mxCell id="8AMS8Mi4bmMsw5T7nzCZ-482" value="" style="edgeStyle=orthogonalEdgeStyle;rounded=0;orthogonalLoop=1;jettySize=auto;html=1;" edge="1" parent="1" target="8AMS8Mi4bmMsw5T7nzCZ-484">
          <mxGeometry relative="1" as="geometry">
            <mxPoint x="-1440" y="740" as="sourcePoint" />
          </mxGeometry>
        </mxCell>
        <mxCell id="8AMS8Mi4bmMsw5T7nzCZ-483" value="COUT(47)" style="edgeLabel;html=1;align=center;verticalAlign=middle;resizable=0;points=[];" vertex="1" connectable="0" parent="8AMS8Mi4bmMsw5T7nzCZ-482">
          <mxGeometry x="-0.0929" y="-1" relative="1" as="geometry">
            <mxPoint x="-4" y="1" as="offset" />
          </mxGeometry>
        </mxCell>
        <mxCell id="8AMS8Mi4bmMsw5T7nzCZ-526" style="edgeStyle=orthogonalEdgeStyle;rounded=0;orthogonalLoop=1;jettySize=auto;html=1;entryX=0.75;entryY=0;entryDx=0;entryDy=0;" edge="1" parent="1" source="8AMS8Mi4bmMsw5T7nzCZ-484" target="8AMS8Mi4bmMsw5T7nzCZ-511">
          <mxGeometry relative="1" as="geometry">
            <mxPoint x="-1750" y="740" as="targetPoint" />
          </mxGeometry>
        </mxCell>
        <mxCell id="8AMS8Mi4bmMsw5T7nzCZ-527" value="COUT(50)" style="edgeLabel;html=1;align=center;verticalAlign=middle;resizable=0;points=[];" vertex="1" connectable="0" parent="8AMS8Mi4bmMsw5T7nzCZ-526">
          <mxGeometry x="-0.5188" y="1" relative="1" as="geometry">
            <mxPoint as="offset" />
          </mxGeometry>
        </mxCell>
        <mxCell id="8AMS8Mi4bmMsw5T7nzCZ-484" value="FA" style="rounded=0;whiteSpace=wrap;html=1;" vertex="1" parent="1">
          <mxGeometry x="-1640" y="720" width="120" height="40" as="geometry" />
        </mxCell>
        <mxCell id="8AMS8Mi4bmMsw5T7nzCZ-485" value="" style="edgeStyle=orthogonalEdgeStyle;rounded=0;orthogonalLoop=1;jettySize=auto;html=1;" edge="1" parent="1" source="8AMS8Mi4bmMsw5T7nzCZ-486">
          <mxGeometry relative="1" as="geometry">
            <Array as="points">
              <mxPoint x="-1610" y="712" />
              <mxPoint x="-1610" y="712" />
            </Array>
            <mxPoint x="-1610.030303030303" y="720" as="targetPoint" />
          </mxGeometry>
        </mxCell>
        <mxCell id="8AMS8Mi4bmMsw5T7nzCZ-486" value="A5*B7" style="text;html=1;align=center;verticalAlign=middle;resizable=0;points=[];autosize=1;strokeColor=none;fillColor=none;" vertex="1" parent="1">
          <mxGeometry x="-1640" y="660" width="60" height="30" as="geometry" />
        </mxCell>
        <mxCell id="8AMS8Mi4bmMsw5T7nzCZ-489" value="" style="edgeStyle=orthogonalEdgeStyle;rounded=0;orthogonalLoop=1;jettySize=auto;html=1;" edge="1" parent="1" target="8AMS8Mi4bmMsw5T7nzCZ-491">
          <mxGeometry relative="1" as="geometry">
            <mxPoint x="-1440" y="860" as="sourcePoint" />
          </mxGeometry>
        </mxCell>
        <mxCell id="8AMS8Mi4bmMsw5T7nzCZ-490" value="COUT(48)" style="edgeLabel;html=1;align=center;verticalAlign=middle;resizable=0;points=[];" vertex="1" connectable="0" parent="8AMS8Mi4bmMsw5T7nzCZ-489">
          <mxGeometry x="-0.0929" y="-1" relative="1" as="geometry">
            <mxPoint x="-4" y="1" as="offset" />
          </mxGeometry>
        </mxCell>
        <mxCell id="8AMS8Mi4bmMsw5T7nzCZ-491" value="FA" style="rounded=0;whiteSpace=wrap;html=1;" vertex="1" parent="1">
          <mxGeometry x="-1640" y="840" width="120" height="40" as="geometry" />
        </mxCell>
        <mxCell id="8AMS8Mi4bmMsw5T7nzCZ-492" value="" style="edgeStyle=orthogonalEdgeStyle;rounded=0;orthogonalLoop=1;jettySize=auto;html=1;" edge="1" parent="1" source="8AMS8Mi4bmMsw5T7nzCZ-493" target="8AMS8Mi4bmMsw5T7nzCZ-491">
          <mxGeometry relative="1" as="geometry">
            <Array as="points">
              <mxPoint x="-1545" y="832" />
              <mxPoint x="-1545" y="832" />
            </Array>
          </mxGeometry>
        </mxCell>
        <mxCell id="8AMS8Mi4bmMsw5T7nzCZ-493" value="A6*B6" style="text;html=1;align=center;verticalAlign=middle;resizable=0;points=[];autosize=1;strokeColor=none;fillColor=none;" vertex="1" parent="1">
          <mxGeometry x="-1575" y="780" width="60" height="30" as="geometry" />
        </mxCell>
        <mxCell id="8AMS8Mi4bmMsw5T7nzCZ-494" value="" style="edgeStyle=orthogonalEdgeStyle;rounded=0;orthogonalLoop=1;jettySize=auto;html=1;exitX=0.25;exitY=1;exitDx=0;exitDy=0;entryX=0.25;entryY=0;entryDx=0;entryDy=0;" edge="1" parent="1" target="8AMS8Mi4bmMsw5T7nzCZ-491">
          <mxGeometry relative="1" as="geometry">
            <Array as="points" />
            <mxPoint x="-1610" y="760" as="sourcePoint" />
          </mxGeometry>
        </mxCell>
        <mxCell id="8AMS8Mi4bmMsw5T7nzCZ-495" value="SUM(50)" style="edgeLabel;html=1;align=center;verticalAlign=middle;resizable=0;points=[];" vertex="1" connectable="0" parent="8AMS8Mi4bmMsw5T7nzCZ-494">
          <mxGeometry x="-0.3464" y="1" relative="1" as="geometry">
            <mxPoint x="-1" y="9" as="offset" />
          </mxGeometry>
        </mxCell>
        <mxCell id="8AMS8Mi4bmMsw5T7nzCZ-496" value="" style="edgeStyle=orthogonalEdgeStyle;rounded=0;orthogonalLoop=1;jettySize=auto;html=1;" edge="1" parent="1" target="8AMS8Mi4bmMsw5T7nzCZ-498">
          <mxGeometry relative="1" as="geometry">
            <mxPoint x="-1440" y="980" as="sourcePoint" />
          </mxGeometry>
        </mxCell>
        <mxCell id="8AMS8Mi4bmMsw5T7nzCZ-497" value="COUT(49)" style="edgeLabel;html=1;align=center;verticalAlign=middle;resizable=0;points=[];" vertex="1" connectable="0" parent="8AMS8Mi4bmMsw5T7nzCZ-496">
          <mxGeometry x="-0.0929" y="-1" relative="1" as="geometry">
            <mxPoint x="-4" y="1" as="offset" />
          </mxGeometry>
        </mxCell>
        <mxCell id="8AMS8Mi4bmMsw5T7nzCZ-498" value="FA" style="rounded=0;whiteSpace=wrap;html=1;" vertex="1" parent="1">
          <mxGeometry x="-1640" y="960" width="120" height="40" as="geometry" />
        </mxCell>
        <mxCell id="8AMS8Mi4bmMsw5T7nzCZ-499" value="" style="edgeStyle=orthogonalEdgeStyle;rounded=0;orthogonalLoop=1;jettySize=auto;html=1;" edge="1" parent="1" source="8AMS8Mi4bmMsw5T7nzCZ-500" target="8AMS8Mi4bmMsw5T7nzCZ-498">
          <mxGeometry relative="1" as="geometry">
            <Array as="points">
              <mxPoint x="-1545" y="952" />
              <mxPoint x="-1545" y="952" />
            </Array>
          </mxGeometry>
        </mxCell>
        <mxCell id="8AMS8Mi4bmMsw5T7nzCZ-500" value="A7*B5" style="text;html=1;align=center;verticalAlign=middle;resizable=0;points=[];autosize=1;strokeColor=none;fillColor=none;" vertex="1" parent="1">
          <mxGeometry x="-1575" y="900" width="60" height="30" as="geometry" />
        </mxCell>
        <mxCell id="8AMS8Mi4bmMsw5T7nzCZ-501" value="" style="edgeStyle=orthogonalEdgeStyle;rounded=0;orthogonalLoop=1;jettySize=auto;html=1;exitX=0.25;exitY=1;exitDx=0;exitDy=0;entryX=0.25;entryY=0;entryDx=0;entryDy=0;" edge="1" parent="1" target="8AMS8Mi4bmMsw5T7nzCZ-498">
          <mxGeometry relative="1" as="geometry">
            <Array as="points" />
            <mxPoint x="-1610" y="880" as="sourcePoint" />
          </mxGeometry>
        </mxCell>
        <mxCell id="8AMS8Mi4bmMsw5T7nzCZ-502" value="SUM(51)" style="edgeLabel;html=1;align=center;verticalAlign=middle;resizable=0;points=[];" vertex="1" connectable="0" parent="8AMS8Mi4bmMsw5T7nzCZ-501">
          <mxGeometry x="-0.3464" y="1" relative="1" as="geometry">
            <mxPoint x="-1" y="9" as="offset" />
          </mxGeometry>
        </mxCell>
        <mxCell id="8AMS8Mi4bmMsw5T7nzCZ-503" value="" style="edgeStyle=orthogonalEdgeStyle;rounded=0;orthogonalLoop=1;jettySize=auto;html=1;exitX=0.5;exitY=1;exitDx=0;exitDy=0;" edge="1" parent="1" source="8AMS8Mi4bmMsw5T7nzCZ-498" target="8AMS8Mi4bmMsw5T7nzCZ-505">
          <mxGeometry relative="1" as="geometry">
            <mxPoint x="-1580" y="1000" as="sourcePoint" />
          </mxGeometry>
        </mxCell>
        <mxCell id="8AMS8Mi4bmMsw5T7nzCZ-504" value="SUM(52)" style="edgeLabel;html=1;align=center;verticalAlign=middle;resizable=0;points=[];" vertex="1" connectable="0" parent="8AMS8Mi4bmMsw5T7nzCZ-503">
          <mxGeometry x="0.0138" y="2" relative="1" as="geometry">
            <mxPoint x="-2" y="19" as="offset" />
          </mxGeometry>
        </mxCell>
        <mxCell id="8AMS8Mi4bmMsw5T7nzCZ-505" value="C12" style="rounded=0;whiteSpace=wrap;html=1;" vertex="1" parent="1">
          <mxGeometry x="-1600" y="1120" width="40" height="40" as="geometry" />
        </mxCell>
        <mxCell id="8AMS8Mi4bmMsw5T7nzCZ-508" value="" style="edgeStyle=orthogonalEdgeStyle;rounded=0;orthogonalLoop=1;jettySize=auto;html=1;" edge="1" parent="1" target="8AMS8Mi4bmMsw5T7nzCZ-518">
          <mxGeometry relative="1" as="geometry">
            <mxPoint x="-1640" y="980" as="sourcePoint" />
          </mxGeometry>
        </mxCell>
        <mxCell id="8AMS8Mi4bmMsw5T7nzCZ-509" value="" style="edgeStyle=orthogonalEdgeStyle;rounded=0;orthogonalLoop=1;jettySize=auto;html=1;" edge="1" parent="1" target="8AMS8Mi4bmMsw5T7nzCZ-511">
          <mxGeometry relative="1" as="geometry">
            <mxPoint x="-1640" y="860" as="sourcePoint" />
          </mxGeometry>
        </mxCell>
        <mxCell id="8AMS8Mi4bmMsw5T7nzCZ-510" value="COUT(51)" style="edgeLabel;html=1;align=center;verticalAlign=middle;resizable=0;points=[];" vertex="1" connectable="0" parent="8AMS8Mi4bmMsw5T7nzCZ-509">
          <mxGeometry x="-0.0929" y="-1" relative="1" as="geometry">
            <mxPoint x="-4" y="1" as="offset" />
          </mxGeometry>
        </mxCell>
        <mxCell id="8AMS8Mi4bmMsw5T7nzCZ-539" style="edgeStyle=orthogonalEdgeStyle;rounded=0;orthogonalLoop=1;jettySize=auto;html=1;entryX=0.75;entryY=0;entryDx=0;entryDy=0;" edge="1" parent="1" source="8AMS8Mi4bmMsw5T7nzCZ-511" target="8AMS8Mi4bmMsw5T7nzCZ-531">
          <mxGeometry relative="1" as="geometry">
            <mxPoint x="-1950" y="860" as="targetPoint" />
          </mxGeometry>
        </mxCell>
        <mxCell id="8AMS8Mi4bmMsw5T7nzCZ-540" value="COUT(53)" style="edgeLabel;html=1;align=center;verticalAlign=middle;resizable=0;points=[];" vertex="1" connectable="0" parent="8AMS8Mi4bmMsw5T7nzCZ-539">
          <mxGeometry x="-0.5602" y="-1" relative="1" as="geometry">
            <mxPoint as="offset" />
          </mxGeometry>
        </mxCell>
        <mxCell id="8AMS8Mi4bmMsw5T7nzCZ-511" value="FA" style="rounded=0;whiteSpace=wrap;html=1;" vertex="1" parent="1">
          <mxGeometry x="-1840" y="840" width="120" height="40" as="geometry" />
        </mxCell>
        <mxCell id="8AMS8Mi4bmMsw5T7nzCZ-512" value="" style="edgeStyle=orthogonalEdgeStyle;rounded=0;orthogonalLoop=1;jettySize=auto;html=1;" edge="1" parent="1" source="8AMS8Mi4bmMsw5T7nzCZ-513">
          <mxGeometry relative="1" as="geometry">
            <Array as="points">
              <mxPoint x="-1810" y="832" />
              <mxPoint x="-1810" y="832" />
            </Array>
            <mxPoint x="-1809.95652173913" y="840" as="targetPoint" />
          </mxGeometry>
        </mxCell>
        <mxCell id="8AMS8Mi4bmMsw5T7nzCZ-513" value="A6*B7" style="text;html=1;align=center;verticalAlign=middle;resizable=0;points=[];autosize=1;strokeColor=none;fillColor=none;" vertex="1" parent="1">
          <mxGeometry x="-1840" y="780" width="60" height="30" as="geometry" />
        </mxCell>
        <mxCell id="8AMS8Mi4bmMsw5T7nzCZ-516" value="" style="edgeStyle=orthogonalEdgeStyle;rounded=0;orthogonalLoop=1;jettySize=auto;html=1;" edge="1" parent="1" target="8AMS8Mi4bmMsw5T7nzCZ-518">
          <mxGeometry relative="1" as="geometry">
            <mxPoint x="-1640" y="980" as="sourcePoint" />
          </mxGeometry>
        </mxCell>
        <mxCell id="8AMS8Mi4bmMsw5T7nzCZ-517" value="COUT(52)" style="edgeLabel;html=1;align=center;verticalAlign=middle;resizable=0;points=[];" vertex="1" connectable="0" parent="8AMS8Mi4bmMsw5T7nzCZ-516">
          <mxGeometry x="-0.0929" y="-1" relative="1" as="geometry">
            <mxPoint x="-4" y="1" as="offset" />
          </mxGeometry>
        </mxCell>
        <mxCell id="8AMS8Mi4bmMsw5T7nzCZ-518" value="FA" style="rounded=0;whiteSpace=wrap;html=1;" vertex="1" parent="1">
          <mxGeometry x="-1840" y="960" width="120" height="40" as="geometry" />
        </mxCell>
        <mxCell id="8AMS8Mi4bmMsw5T7nzCZ-519" value="" style="edgeStyle=orthogonalEdgeStyle;rounded=0;orthogonalLoop=1;jettySize=auto;html=1;" edge="1" parent="1" source="8AMS8Mi4bmMsw5T7nzCZ-520" target="8AMS8Mi4bmMsw5T7nzCZ-518">
          <mxGeometry relative="1" as="geometry">
            <Array as="points">
              <mxPoint x="-1745" y="952" />
              <mxPoint x="-1745" y="952" />
            </Array>
          </mxGeometry>
        </mxCell>
        <mxCell id="8AMS8Mi4bmMsw5T7nzCZ-520" value="A7*B6" style="text;html=1;align=center;verticalAlign=middle;resizable=0;points=[];autosize=1;strokeColor=none;fillColor=none;" vertex="1" parent="1">
          <mxGeometry x="-1775" y="900" width="60" height="30" as="geometry" />
        </mxCell>
        <mxCell id="8AMS8Mi4bmMsw5T7nzCZ-521" value="" style="edgeStyle=orthogonalEdgeStyle;rounded=0;orthogonalLoop=1;jettySize=auto;html=1;exitX=0.25;exitY=1;exitDx=0;exitDy=0;entryX=0.25;entryY=0;entryDx=0;entryDy=0;" edge="1" parent="1" target="8AMS8Mi4bmMsw5T7nzCZ-518">
          <mxGeometry relative="1" as="geometry">
            <Array as="points" />
            <mxPoint x="-1810" y="880" as="sourcePoint" />
          </mxGeometry>
        </mxCell>
        <mxCell id="8AMS8Mi4bmMsw5T7nzCZ-522" value="SUM(53)" style="edgeLabel;html=1;align=center;verticalAlign=middle;resizable=0;points=[];" vertex="1" connectable="0" parent="8AMS8Mi4bmMsw5T7nzCZ-521">
          <mxGeometry x="-0.3464" y="1" relative="1" as="geometry">
            <mxPoint x="-1" y="9" as="offset" />
          </mxGeometry>
        </mxCell>
        <mxCell id="8AMS8Mi4bmMsw5T7nzCZ-523" value="" style="edgeStyle=orthogonalEdgeStyle;rounded=0;orthogonalLoop=1;jettySize=auto;html=1;exitX=0.5;exitY=1;exitDx=0;exitDy=0;" edge="1" parent="1" source="8AMS8Mi4bmMsw5T7nzCZ-518" target="8AMS8Mi4bmMsw5T7nzCZ-525">
          <mxGeometry relative="1" as="geometry">
            <mxPoint x="-1780" y="1000" as="sourcePoint" />
          </mxGeometry>
        </mxCell>
        <mxCell id="8AMS8Mi4bmMsw5T7nzCZ-524" value="SUM(54)" style="edgeLabel;html=1;align=center;verticalAlign=middle;resizable=0;points=[];" vertex="1" connectable="0" parent="8AMS8Mi4bmMsw5T7nzCZ-523">
          <mxGeometry x="0.0138" y="2" relative="1" as="geometry">
            <mxPoint x="-2" y="19" as="offset" />
          </mxGeometry>
        </mxCell>
        <mxCell id="8AMS8Mi4bmMsw5T7nzCZ-525" value="C13" style="rounded=0;whiteSpace=wrap;html=1;" vertex="1" parent="1">
          <mxGeometry x="-1800" y="1120" width="40" height="40" as="geometry" />
        </mxCell>
        <mxCell id="8AMS8Mi4bmMsw5T7nzCZ-528" value="" style="edgeStyle=orthogonalEdgeStyle;rounded=0;orthogonalLoop=1;jettySize=auto;html=1;" edge="1" parent="1" target="8AMS8Mi4bmMsw5T7nzCZ-531">
          <mxGeometry relative="1" as="geometry">
            <mxPoint x="-1840" y="980" as="sourcePoint" />
          </mxGeometry>
        </mxCell>
        <mxCell id="8AMS8Mi4bmMsw5T7nzCZ-529" value="" style="edgeStyle=orthogonalEdgeStyle;rounded=0;orthogonalLoop=1;jettySize=auto;html=1;" edge="1" parent="1" target="8AMS8Mi4bmMsw5T7nzCZ-531">
          <mxGeometry relative="1" as="geometry">
            <mxPoint x="-1840" y="980" as="sourcePoint" />
          </mxGeometry>
        </mxCell>
        <mxCell id="8AMS8Mi4bmMsw5T7nzCZ-530" value="COUT(54)" style="edgeLabel;html=1;align=center;verticalAlign=middle;resizable=0;points=[];" vertex="1" connectable="0" parent="8AMS8Mi4bmMsw5T7nzCZ-529">
          <mxGeometry x="-0.0929" y="-1" relative="1" as="geometry">
            <mxPoint x="-4" y="1" as="offset" />
          </mxGeometry>
        </mxCell>
        <mxCell id="8AMS8Mi4bmMsw5T7nzCZ-545" style="edgeStyle=orthogonalEdgeStyle;rounded=0;orthogonalLoop=1;jettySize=auto;html=1;" edge="1" parent="1" source="8AMS8Mi4bmMsw5T7nzCZ-531" target="8AMS8Mi4bmMsw5T7nzCZ-544">
          <mxGeometry relative="1" as="geometry">
            <mxPoint x="-2100" y="980" as="targetPoint" />
          </mxGeometry>
        </mxCell>
        <mxCell id="8AMS8Mi4bmMsw5T7nzCZ-546" value="COUT(54)" style="edgeLabel;html=1;align=center;verticalAlign=middle;resizable=0;points=[];" vertex="1" connectable="0" parent="8AMS8Mi4bmMsw5T7nzCZ-545">
          <mxGeometry x="0.4814" y="1" relative="1" as="geometry">
            <mxPoint x="-1" y="12" as="offset" />
          </mxGeometry>
        </mxCell>
        <mxCell id="8AMS8Mi4bmMsw5T7nzCZ-531" value="FA" style="rounded=0;whiteSpace=wrap;html=1;" vertex="1" parent="1">
          <mxGeometry x="-2040" y="960" width="120" height="40" as="geometry" />
        </mxCell>
        <mxCell id="8AMS8Mi4bmMsw5T7nzCZ-532" value="" style="edgeStyle=orthogonalEdgeStyle;rounded=0;orthogonalLoop=1;jettySize=auto;html=1;" edge="1" parent="1" source="8AMS8Mi4bmMsw5T7nzCZ-533">
          <mxGeometry relative="1" as="geometry">
            <Array as="points">
              <mxPoint x="-2010" y="952" />
              <mxPoint x="-2010" y="952" />
            </Array>
            <mxPoint x="-2009.95652173913" y="960" as="targetPoint" />
          </mxGeometry>
        </mxCell>
        <mxCell id="8AMS8Mi4bmMsw5T7nzCZ-533" value="A7*B7" style="text;html=1;align=center;verticalAlign=middle;resizable=0;points=[];autosize=1;strokeColor=none;fillColor=none;" vertex="1" parent="1">
          <mxGeometry x="-2040" y="900" width="60" height="30" as="geometry" />
        </mxCell>
        <mxCell id="8AMS8Mi4bmMsw5T7nzCZ-536" value="" style="edgeStyle=orthogonalEdgeStyle;rounded=0;orthogonalLoop=1;jettySize=auto;html=1;exitX=0.5;exitY=1;exitDx=0;exitDy=0;" edge="1" parent="1" source="8AMS8Mi4bmMsw5T7nzCZ-531" target="8AMS8Mi4bmMsw5T7nzCZ-538">
          <mxGeometry relative="1" as="geometry">
            <mxPoint x="-1980" y="1000" as="sourcePoint" />
          </mxGeometry>
        </mxCell>
        <mxCell id="8AMS8Mi4bmMsw5T7nzCZ-537" value="SUM(55)" style="edgeLabel;html=1;align=center;verticalAlign=middle;resizable=0;points=[];" vertex="1" connectable="0" parent="8AMS8Mi4bmMsw5T7nzCZ-536">
          <mxGeometry x="0.0138" y="2" relative="1" as="geometry">
            <mxPoint x="-2" y="19" as="offset" />
          </mxGeometry>
        </mxCell>
        <mxCell id="8AMS8Mi4bmMsw5T7nzCZ-538" value="C14" style="rounded=0;whiteSpace=wrap;html=1;" vertex="1" parent="1">
          <mxGeometry x="-2000" y="1120" width="40" height="40" as="geometry" />
        </mxCell>
        <mxCell id="8AMS8Mi4bmMsw5T7nzCZ-544" value="C15" style="rounded=0;whiteSpace=wrap;html=1;" vertex="1" parent="1">
          <mxGeometry x="-2120" y="1120" width="40" height="40" as="geometry" />
        </mxCell>
        <mxCell id="8AMS8Mi4bmMsw5T7nzCZ-548" style="edgeStyle=orthogonalEdgeStyle;rounded=0;orthogonalLoop=1;jettySize=auto;html=1;exitX=0.5;exitY=1;exitDx=0;exitDy=0;" edge="1" parent="1" source="8AMS8Mi4bmMsw5T7nzCZ-547">
          <mxGeometry relative="1" as="geometry">
            <mxPoint x="119.71" y="1660" as="targetPoint" />
            <mxPoint x="119.71" y="1440" as="sourcePoint" />
            <Array as="points">
              <mxPoint x="120" y="1610" />
            </Array>
          </mxGeometry>
        </mxCell>
        <mxCell id="8AMS8Mi4bmMsw5T7nzCZ-547" value="S_OUTPUT" style="whiteSpace=wrap;html=1;" vertex="1" parent="1">
          <mxGeometry x="60" y="1510" width="120" height="60" as="geometry" />
        </mxCell>
        <mxCell id="8AMS8Mi4bmMsw5T7nzCZ-550" value="" style="endArrow=none;html=1;rounded=0;" edge="1" parent="1">
          <mxGeometry width="50" height="50" relative="1" as="geometry">
            <mxPoint x="95" y="1650" as="sourcePoint" />
            <mxPoint x="145" y="1600" as="targetPoint" />
          </mxGeometry>
        </mxCell>
        <mxCell id="8AMS8Mi4bmMsw5T7nzCZ-551" value="8" style="text;html=1;align=center;verticalAlign=middle;resizable=0;points=[];autosize=1;strokeColor=none;fillColor=none;" vertex="1" parent="1">
          <mxGeometry x="120" y="1580" width="30" height="30" as="geometry" />
        </mxCell>
        <mxCell id="8AMS8Mi4bmMsw5T7nzCZ-580" style="edgeStyle=orthogonalEdgeStyle;rounded=0;orthogonalLoop=1;jettySize=auto;html=1;entryX=1;entryY=0.75;entryDx=0;entryDy=0;" edge="1" parent="1" target="8AMS8Mi4bmMsw5T7nzCZ-589">
          <mxGeometry relative="1" as="geometry">
            <mxPoint x="-1430" y="1555" as="targetPoint" />
            <mxPoint x="-780" y="1160" as="sourcePoint" />
            <Array as="points">
              <mxPoint x="-780" y="1160" />
              <mxPoint x="-780" y="1555" />
            </Array>
          </mxGeometry>
        </mxCell>
        <mxCell id="8AMS8Mi4bmMsw5T7nzCZ-581" style="edgeStyle=orthogonalEdgeStyle;rounded=0;orthogonalLoop=1;jettySize=auto;html=1;exitX=0.5;exitY=1;exitDx=0;exitDy=0;entryX=1;entryY=0.5;entryDx=0;entryDy=0;" edge="1" parent="1" target="8AMS8Mi4bmMsw5T7nzCZ-589">
          <mxGeometry relative="1" as="geometry">
            <mxPoint x="-980" y="1160" as="sourcePoint" />
            <mxPoint x="-1427" y="1530" as="targetPoint" />
            <Array as="points">
              <mxPoint x="-980" y="1540" />
            </Array>
          </mxGeometry>
        </mxCell>
        <mxCell id="8AMS8Mi4bmMsw5T7nzCZ-582" style="edgeStyle=orthogonalEdgeStyle;rounded=0;orthogonalLoop=1;jettySize=auto;html=1;entryX=1;entryY=0.25;entryDx=0;entryDy=0;exitX=0.5;exitY=1;exitDx=0;exitDy=0;" edge="1" parent="1" target="8AMS8Mi4bmMsw5T7nzCZ-589">
          <mxGeometry relative="1" as="geometry">
            <mxPoint x="-1160" y="1160" as="sourcePoint" />
            <mxPoint x="-1425" y="1524.9999999999998" as="targetPoint" />
            <Array as="points">
              <mxPoint x="-1180" y="1160" />
              <mxPoint x="-1180" y="1525" />
            </Array>
          </mxGeometry>
        </mxCell>
        <mxCell id="8AMS8Mi4bmMsw5T7nzCZ-583" style="edgeStyle=orthogonalEdgeStyle;rounded=0;orthogonalLoop=1;jettySize=auto;html=1;entryX=0.75;entryY=0;entryDx=0;entryDy=0;" edge="1" parent="1" target="8AMS8Mi4bmMsw5T7nzCZ-589">
          <mxGeometry relative="1" as="geometry">
            <mxPoint x="-1380" y="1160" as="sourcePoint" />
            <Array as="points">
              <mxPoint x="-1380" y="1280" />
              <mxPoint x="-1450" y="1280" />
            </Array>
          </mxGeometry>
        </mxCell>
        <mxCell id="8AMS8Mi4bmMsw5T7nzCZ-584" style="edgeStyle=orthogonalEdgeStyle;rounded=0;orthogonalLoop=1;jettySize=auto;html=1;exitX=0.5;exitY=1;exitDx=0;exitDy=0;entryX=0.25;entryY=0;entryDx=0;entryDy=0;" edge="1" parent="1" target="8AMS8Mi4bmMsw5T7nzCZ-589">
          <mxGeometry relative="1" as="geometry">
            <mxPoint x="-1580" y="1160" as="sourcePoint" />
            <Array as="points">
              <mxPoint x="-1580" y="1280" />
              <mxPoint x="-1510" y="1280" />
            </Array>
          </mxGeometry>
        </mxCell>
        <mxCell id="8AMS8Mi4bmMsw5T7nzCZ-585" style="edgeStyle=orthogonalEdgeStyle;rounded=0;orthogonalLoop=1;jettySize=auto;html=1;entryX=0;entryY=0.25;entryDx=0;entryDy=0;" edge="1" parent="1" target="8AMS8Mi4bmMsw5T7nzCZ-589">
          <mxGeometry relative="1" as="geometry">
            <mxPoint x="-1719.9999999999995" y="1510" as="targetPoint" />
            <mxPoint x="-1780" y="1160" as="sourcePoint" />
            <Array as="points">
              <mxPoint x="-1780" y="1525" />
            </Array>
          </mxGeometry>
        </mxCell>
        <mxCell id="8AMS8Mi4bmMsw5T7nzCZ-586" style="edgeStyle=orthogonalEdgeStyle;rounded=0;orthogonalLoop=1;jettySize=auto;html=1;entryX=0;entryY=0.5;entryDx=0;entryDy=0;" edge="1" parent="1" target="8AMS8Mi4bmMsw5T7nzCZ-589">
          <mxGeometry relative="1" as="geometry">
            <mxPoint x="-1980" y="1160" as="sourcePoint" />
            <Array as="points">
              <mxPoint x="-1980" y="1540" />
            </Array>
          </mxGeometry>
        </mxCell>
        <mxCell id="8AMS8Mi4bmMsw5T7nzCZ-587" style="edgeStyle=orthogonalEdgeStyle;rounded=0;orthogonalLoop=1;jettySize=auto;html=1;entryX=0;entryY=0.75;entryDx=0;entryDy=0;" edge="1" parent="1" target="8AMS8Mi4bmMsw5T7nzCZ-589">
          <mxGeometry relative="1" as="geometry">
            <mxPoint x="-2100" y="1160" as="sourcePoint" />
            <Array as="points">
              <mxPoint x="-2100" y="1160" />
              <mxPoint x="-2100" y="1555" />
            </Array>
          </mxGeometry>
        </mxCell>
        <mxCell id="8AMS8Mi4bmMsw5T7nzCZ-588" style="edgeStyle=orthogonalEdgeStyle;rounded=0;orthogonalLoop=1;jettySize=auto;html=1;exitX=0.5;exitY=1;exitDx=0;exitDy=0;" edge="1" parent="1" source="8AMS8Mi4bmMsw5T7nzCZ-589">
          <mxGeometry relative="1" as="geometry">
            <mxPoint x="-1480.29" y="1660" as="targetPoint" />
            <mxPoint x="-1480.29" y="1440" as="sourcePoint" />
            <Array as="points">
              <mxPoint x="-1480" y="1610" />
            </Array>
          </mxGeometry>
        </mxCell>
        <mxCell id="8AMS8Mi4bmMsw5T7nzCZ-589" value="CARRY_OUT" style="whiteSpace=wrap;html=1;" vertex="1" parent="1">
          <mxGeometry x="-1540" y="1510" width="120" height="60" as="geometry" />
        </mxCell>
        <mxCell id="8AMS8Mi4bmMsw5T7nzCZ-590" value="" style="endArrow=none;html=1;rounded=0;" edge="1" parent="1">
          <mxGeometry width="50" height="50" relative="1" as="geometry">
            <mxPoint x="-1505" y="1650" as="sourcePoint" />
            <mxPoint x="-1455" y="1600" as="targetPoint" />
          </mxGeometry>
        </mxCell>
        <mxCell id="8AMS8Mi4bmMsw5T7nzCZ-591" value="1" style="text;html=1;align=center;verticalAlign=middle;resizable=0;points=[];autosize=1;strokeColor=none;fillColor=none;" vertex="1" parent="1">
          <mxGeometry x="-1480" y="1580" width="30" height="30" as="geometry" />
        </mxCell>
      </root>
    </mxGraphModel>
  </diagram>
</mxfile>
